<!-- Pages vector maps  -->

<svg version="1.1" id="Layer_1" xmlns="http://www.w3.org/2000/svg" xmlns:xlink="http://www.w3.org/1999/xlink" x="0px" y="0px"
	 width="44.5px" height="67px" viewBox="0 0 44.5 67" enable-background="new 0 0 44.5 67" xml:space="preserve">

<ellipse opacity="0.2" fill="#000000" cx="21.729" cy="59.913" rx="9.648" ry="2.398">
	<animate attributeName="rx" values="9;7;6;8.5;9" dur="8s" repeatCount="indefinite"/>
</ellipse>

<path fill="#F55753" d="M42.97,22.861c0-11.544-9.356-20.902-20.9-20.902S1.167,11.317,1.167,22.861c0,3.889,1.081,7.516,2.93,10.634L4.073,33.5
	c0,0,3.918,8.557,17.568,20.5h0.854c13.649-11.943,17.568-20.5,17.568-20.5l-0.023-0.005C41.889,30.377,42.97,26.75,42.97,22.861z
	 M22.069,38.645c-8.719,0-15.783-7.066-15.783-15.783S13.351,7.078,22.069,7.078c8.716,0,15.782,7.066,15.782,15.783
	S30.785,38.645,22.069,38.645z">
	<animateTransform attributeName="transform" type="translate" values="0 -2;0 5;0 0;0 -2" dur="8s" begin="0" repeatCount="indefinite"/>
</path>
</svg>
