<!-- Pages vector maps  -->

<svg version="1.1" id="Layer_1" xmlns="http://www.w3.org/2000/svg" xmlns:xlink="http://www.w3.org/1999/xlink" x="0px" y="0px"
	 width="45px" height="65px" viewBox="0 0 45 65" enable-background="new 0 0 45 65" xml:space="preserve">

<ellipse cx="22" cy="61" rx="7" ry="3" style="stroke: none; fill: #000000;
               fill-opacity: 0.4">
    <animate attributeName="ry" values="3;2.7;3" dur="5s" repeatCount="indefinite"/>          
	<animate attributeName="rx" values="13;9;7;11;13" dur="5s" repeatCount="indefinite"/>
	<animate attributeName="opacity" values="0.4;0.8;0.4" dur="5s" repeatCount="indefinite"/>
</ellipse>

<path fill="#10CFBD" d="M41,20.455C41,9.946,32.48,1.43,21.972,1.43c-10.506,0-19.025,8.517-19.025,19.025 c0,0.109,0.008,0.217,0.008,0.326H2.946c0,0.2,0.018,0.395,0.025,0.595c0,0.027,0,0.054,0.002,0.082 C3.531,36.111,21.975,48,21.975,48s18.44-11.889,18.998-26.542c0.003-0.027,0.003-0.054,0.003-0.082 c0.007-0.2,0.024-0.395,0.024-0.595h-0.008C40.992,20.672,41,20.564,41,20.455z M22.154,29.523c-5.398,0-9.775-4.378-9.775-9.779 c0-5.396,4.377-9.773,9.775-9.773c5.399,0,9.776,4.376,9.776,9.773C31.931,25.146,27.554,29.523,22.154,29.523z">
	<animateTransform attributeName="transform" type="translate" values="0 1;0 8;0 12;0 4;0 1" dur="5s" begin="0" repeatCount="indefinite"/>
</path>



</svg>
