<?xml version="1.0" encoding="utf-8"?>
<!-- Generator: Adobe Illustrator 16.0.0, SVG Export Plug-In . SVG Version: 6.00 Build 0)  -->
<!DOCTYPE svg PUBLIC "-//W3C//DTD SVG 1.1//EN" "http://www.w3.org/Graphics/SVG/1.1/DTD/svg11.dtd">
<svg version="1.1" id="Layer_1" xmlns="http://www.w3.org/2000/svg" xmlns:xlink="http://www.w3.org/1999/xlink" x="0px" y="0px"
	 width="118px" height="55px" viewBox="0 0 118 55" enable-background="new 0 0 118 55" xml:space="preserve">
<rect fill="#E6E6E6" width="118" height="55"/>
<circle opacity="0.3" fill="#626262" cx="107" cy="11" r="4"/>
<path opacity="0.2" fill="#626262" d="M87,10.5c0,0.829-0.672,1.5-1.5,1.5h-77C7.671,12,7,11.329,7,10.5l0,0C7,9.671,7.671,9,8.5,9
	h77C86.328,9,87,9.671,87,10.5L87,10.5z"/>
<path opacity="0.2" fill="#626262" d="M65,19.5c0,0.829-0.672,1.5-1.5,1.5h-55C7.671,21,7,20.329,7,19.5l0,0
	C7,18.671,7.671,18,8.5,18h55C64.328,18,65,18.671,65,19.5L65,19.5z"/>
<path opacity="0.1" fill="#626262" d="M62,45.5c0,0.828-0.352,1.5-0.786,1.5H7.786C7.352,47,7,46.328,7,45.5l0,0
	C7,44.672,7.352,44,7.786,44h53.428C61.648,44,62,44.672,62,45.5L62,45.5z"/>
</svg>
