<?xml version="1.0" encoding="utf-8"?>
<!-- Pages Notification generator -->
<!DOCTYPE svg PUBLIC "-//W3C//DTD SVG 1.1//EN" "http://www.w3.org/Graphics/SVG/1.1/DTD/svg11.dtd">
<svg version="1.1" id="Layer_1" xmlns="http://www.w3.org/2000/svg" xmlns:xlink="http://www.w3.org/1999/xlink" x="0px" y="0px"
	 width="110px" height="45px" viewBox="0 0 110 45" enable-background="new 0 0 110 45" xml:space="preserve">
<path fill="#E6E6E6" d="M104,22.5C104,33.822,94.822,43,83.5,43h-57C15.178,43,6,33.822,6,22.5l0,0C6,11.178,15.178,2,26.5,2h57
	C94.822,2,104,11.178,104,22.5L104,22.5z"/>
<path opacity="0.2" fill="#626262" d="M61,30.5c0,0.828-0.672,1.5-1.5,1.5h-39c-0.829,0-1.5-0.672-1.5-1.5l0,0
	c0-0.828,0.671-1.5,1.5-1.5h39C60.328,29,61,29.672,61,30.5L61,30.5z"/>
<path opacity="0.2" fill="#626262" d="M69,22.5c0,0.828-0.672,1.5-1.5,1.5h-47c-0.829,0-1.5-0.672-1.5-1.5l0,0
	c0-0.829,0.671-1.5,1.5-1.5h47C68.328,21,69,21.671,69,22.5L69,22.5z"/>
<path opacity="0.2" fill="#626262" d="M50,14.5c0,0.829-0.671,1.5-1.5,1.5h-28c-0.829,0-1.5-0.671-1.5-1.5l0,0
	c0-0.829,0.671-1.5,1.5-1.5h28C49.329,13,50,13.671,50,14.5L50,14.5z"/>
<circle opacity="0.3" fill="#626262" cx="87.5" cy="21.5" r="5.5"/>
</svg>
