<?xml version="1.0" encoding="utf-8"?>
<!-- Generator: Adobe Illustrator 16.0.0, SVG Export Plug-In . SVG Version: 6.00 Build 0)  -->
<!DOCTYPE svg PUBLIC "-//W3C//DTD SVG 1.1//EN" "http://www.w3.org/Graphics/SVG/1.1/DTD/svg11.dtd">
<svg version="1.1" id="Layer_1" xmlns="http://www.w3.org/2000/svg" xmlns:xlink="http://www.w3.org/1999/xlink" x="0px" y="0px"
	 width="610px" height="30px" viewBox="0 0 610 30" enable-background="new 0 0 610 30" xml:space="preserve">
<rect fill="#E6E6E6" width="610" height="30"/>
<circle opacity="0.3" fill="#626262" cx="596" cy="15" r="6"/>
<path opacity="0.2" fill="#626262" d="M320,15c0,1.657-1.344,3-3,3H116c-1.657,0-3-1.343-3-3l0,0c0-1.657,1.343-3,3-3h201
	C318.656,12,320,13.343,320,15L320,15z"/>
<path opacity="0.2" fill="#626262" d="M99,15c0,1.657-1.343,3-3,3H21c-1.657,0-3-1.343-3-3l0,0c0-1.657,1.343-3,3-3h75
	C97.657,12,99,13.343,99,15L99,15z"/>
</svg>
