<?xml version="1.0" encoding="UTF-8"?>
<svg width="17px" height="14px" viewBox="0 0 17 14" version="1.1" xmlns="http://www.w3.org/2000/svg" xmlns:xlink="http://www.w3.org/1999/xlink">
    <!-- Generator: Sketch 48.2 (47327) - http://www.bohemiancoding.com/sketch -->
    <title>ICON_GG_gold_17x14</title>
    <desc>Created with Sketch.</desc>
    <defs></defs>
    <g id="Symbols" stroke="none" stroke-width="1" fill="none" fill-rule="evenodd">
        <g id="ICON_GG_gold_17x14" fill="#E5DFD9">
            <path d="M10.2347651,1.56080972 C9.86450732,1.11751097 9.41416479,0.740975007 8.90502201,0.446361262 C9.56039979,0.173491358 10.2722809,0.0169969468 11.020606,0.00122500518 C11.0599592,0.000459376942 11.0990063,0 11.1382065,0 C13.0873428,0 14.8340471,1.02502308 15.6134566,2.63513926 C15.638263,2.71813336 15.6466849,2.84568703 15.6031972,2.86834962 C15.5260219,2.9093873 15.5159156,2.91459357 15.3121053,2.71277397 C13.7825333,1.11934848 11.6173366,1.29467735 11.5387831,1.30263988 C11.0836937,1.30263988 10.6456012,1.39405589 10.2347651,1.56080972 Z M16.9574404,5.9507689 C17.0062875,6.38533949 16.9997031,6.6301874 16.9997031,6.63263741 L16.99955,6.6367718 C16.99955,10.2901966 14.316023,13.2622123 11.0176966,13.2622123 C10.2447183,13.2622123 9.50619331,13.098521 8.82692793,12.8037541 C9.38690843,12.4895403 9.89850121,12.085748 10.3463937,11.6089147 C10.6423856,11.6966557 10.9527713,11.7442778 11.2749477,11.7442778 C12.8991514,11.7442778 14.1422254,10.678217 14.6841371,8.8237123 C14.7515124,8.6183708 15.0710856,7.5777289 14.7406404,7.26290257 C14.472058,7.00718274 14.2731478,6.96415444 13.7926395,6.860029 C13.7058173,6.84119454 13.6084294,6.8200632 13.4983321,6.79510372 C13.3257595,6.75605668 13.1816682,6.73063782 13.0659052,6.71027211 C12.6852349,6.64320308 12.6852349,6.63998744 12.6852349,6.46925234 C12.6852349,6.12012587 12.7206069,5.68188027 12.7248944,5.63272693 C12.7388288,5.61971125 12.8083479,5.57147667 13.0443145,5.5782142 C13.5150228,5.59168926 16.4689696,5.57316106 16.6055577,5.57178293 C16.6570079,5.56780166 16.9147184,5.56872041 16.9574404,5.9507689 Z M7.33334037,6.52345882 C7.33334037,8.07799039 7.7962392,9.43208049 8.55819242,10.3718126 C8.10386863,10.9226055 7.52520681,11.2703539 6.84701332,11.3974482 C5.71556791,10.1909712 5.00996493,8.50107656 5.00996493,6.63171866 C5.00996493,4.60938823 5.82275586,2.81383689 7.1209551,1.6024599 C7.63637603,1.64319132 8.4159387,1.78207628 9.17008251,2.21235935 C8.06206533,3.15346958 7.33334037,4.73464501 7.33334037,6.52345882 Z M6.11292896,0.0153125647 C8.0559403,0.0153125647 9.79713204,1.03650751 10.5740916,2.64111116 C10.5967542,2.71660211 10.6045636,2.83711199 10.5707228,2.85487457 C10.5005913,2.8920841 10.4930881,2.89545286 10.298006,2.7022083 C8.76338079,1.10327029 6.59144661,1.27967103 6.51350566,1.28732732 C4.18614894,1.28732732 2.29275032,3.63627474 2.29275032,6.52345882 C2.29275032,9.50849019 3.99382313,11.7595903 6.24951704,11.7595903 C7.88137706,11.7595903 9.12981047,10.6893952 9.67325339,8.82861232 C9.76865067,8.53767359 10.0546894,7.56486635 9.72592861,7.25187753 C9.45428371,6.99324831 9.25430162,6.94976063 8.7705777,6.84502268 C8.68375545,6.82618823 8.58636754,6.80521001 8.4762702,6.78025053 C8.30354447,6.74105037 8.15914699,6.71563151 8.04323087,6.6952658 C7.67511682,6.63034053 7.67511682,6.63034053 7.67511682,6.46925234 C7.67511682,6.13268217 7.70834508,5.71281165 7.71431698,5.64038322 C7.73315144,5.62675503 7.80726425,5.58709549 8.01857764,5.59352677 C8.48943901,5.60700182 11.4436921,5.58847362 11.5833427,5.58694237 C11.6127428,5.58387985 11.8741283,5.56948604 11.9170035,5.95245328 C11.9656975,6.38579887 11.9592662,6.62988115 11.959113,6.63217803 L11.959113,6.6367718 C11.959113,10.2816216 9.28232361,13.2468997 5.99241908,13.2468997 C2.68827386,13.2468997 0,10.2794778 0,6.63171866 C0,2.99330015 2.63360801,0.0875878702 5.99563472,0.0165375699 C6.03483488,0.015618816 6.07388192,0.0153125647 6.11292896,0.0153125647 Z" id="GG"></path>
        </g>
    </g>
</svg>