<?xml version="1.0" encoding="utf-8"?>
<!-- Generator: Adobe Illustrator 16.0.0, SVG Export Plug-In . SVG Version: 6.00 Build 0)  -->
<!DOCTYPE svg PUBLIC "-//W3C//DTD SVG 1.1//EN" "http://www.w3.org/Graphics/SVG/1.1/DTD/svg11.dtd">
<svg version="1.1" id="Layer_1" xmlns="http://www.w3.org/2000/svg" xmlns:xlink="http://www.w3.org/1999/xlink" x="0px" y="0px"
	 width="400px" height="285px" viewBox="0 0 400 285" enable-background="new 0 0 400 285" xml:space="preserve">
<g opacity="0.3">
	<g>
		<polyline fill="none" stroke="#626262" stroke-width="2" stroke-miterlimit="10" points="398,281 398,284 396,284 		"/>
		
			<line fill="none" stroke="#626262" stroke-width="2" stroke-miterlimit="10" stroke-dasharray="5,2" x1="394" y1="284" x2="5" y2="284"/>
		<polyline fill="none" stroke="#626262" stroke-width="2" stroke-miterlimit="10" points="4,284 1,284 1,281 		"/>
		
			<line fill="none" stroke="#626262" stroke-width="2" stroke-miterlimit="10" stroke-dasharray="5,2" x1="1" y1="279" x2="1" y2="4"/>
		<polyline fill="none" stroke="#626262" stroke-width="2" stroke-miterlimit="10" points="1,3 1,1 4,1 		"/>
		
			<line fill="none" stroke="#626262" stroke-width="2" stroke-miterlimit="10" stroke-dasharray="5,2" x1="6" y1="1" x2="395" y2="1"/>
		<polyline fill="none" stroke="#626262" stroke-width="2" stroke-miterlimit="10" points="396,1 398,1 398,3 		"/>
		
			<line fill="none" stroke="#626262" stroke-width="2" stroke-miterlimit="10" stroke-dasharray="5,2" x1="398" y1="5" x2="398" y2="280"/>
	</g>
</g>
<path fill="#F0F0F0" d="M273,2v59c0,1.104-0.896,2-2,2H126c-1.104,0-2-0.896-2-2V2"/>
<rect x="135" y="12" fill="#E6E6E6" width="69" height="4"/>
<rect x="220" y="12" fill="#E6E6E6" width="43" height="4"/>
<rect x="135" y="21" fill="#E6E6E6" width="61" height="4"/>
<path fill="#2C2C2C" d="M223,51c0,1.104-0.896,2-2,2h-33c-1.104,0-2-0.896-2-2V37c0-1.104,0.896-2,2-2h33c1.104,0,2,0.896,2,2V51z"
	/>
<path fill="#00CFBC" d="M263,51c0,1.104-0.896,2-2,2h-33c-1.104,0-2-0.896-2-2V37c0-1.104,0.896-2,2-2h33c1.104,0,2,0.896,2,2V51z"
	/>
</svg>
