<?xml version="1.0" encoding="utf-8"?>
<!-- Generator: Adobe Illustrator 16.0.0, SVG Export Plug-In . SVG Version: 6.00 Build 0)  -->
<!DOCTYPE svg PUBLIC "-//W3C//DTD SVG 1.1//EN" "http://www.w3.org/Graphics/SVG/1.1/DTD/svg11.dtd">
<svg version="1.1" id="Layer_1" xmlns="http://www.w3.org/2000/svg" xmlns:xlink="http://www.w3.org/1999/xlink" x="0px" y="0px"
	 width="400px" height="285px" viewBox="0 0 400 285" enable-background="new 0 0 400 285" xml:space="preserve">
<g opacity="0.3">
	<g>
		<polyline fill="none" stroke="#626262" stroke-width="2" stroke-miterlimit="10" points="398,281 398,284 396,284 		"/>
		
			<line fill="none" stroke="#626262" stroke-width="2" stroke-miterlimit="10" stroke-dasharray="5,2" x1="394" y1="284" x2="5" y2="284"/>
		<polyline fill="none" stroke="#626262" stroke-width="2" stroke-miterlimit="10" points="4,284 1,284 1,281 		"/>
		
			<line fill="none" stroke="#626262" stroke-width="2" stroke-miterlimit="10" stroke-dasharray="5,2" x1="1" y1="279" x2="1" y2="4"/>
		<polyline fill="none" stroke="#626262" stroke-width="2" stroke-miterlimit="10" points="1,3 1,1 4,1 		"/>
		
			<line fill="none" stroke="#626262" stroke-width="2" stroke-miterlimit="10" stroke-dasharray="5,2" x1="6" y1="1" x2="395" y2="1"/>
		<polyline fill="none" stroke="#626262" stroke-width="2" stroke-miterlimit="10" points="396,1 398,1 398,3 		"/>
		
			<line fill="none" stroke="#626262" stroke-width="2" stroke-miterlimit="10" stroke-dasharray="5,2" x1="398" y1="5" x2="398" y2="280"/>
	</g>
</g>
<g>
	<path fill="#00CFBC" d="M274.5,150.443c0,1.412-1.145,2.557-2.555,2.557h-41.891c-1.412,0-2.556-1.145-2.556-2.557v-17.889
		c0-1.412,1.144-2.556,2.556-2.556h41.891c1.41,0,2.555,1.144,2.555,2.556V150.443z"/>
	<path fill="#F0F0F0" d="M221.5,150.443c0,1.412-1.145,2.557-2.555,2.557h-89.89c-1.411,0-2.555-1.145-2.555-2.557v-17.889
		c0-1.412,1.144-2.556,2.555-2.556h89.89c1.412,0,2.556,1.144,2.556,2.556L221.5,150.443L221.5,150.443z"/>
</g>
</svg>
