<?xml version="1.0" encoding="utf-8"?>
<!-- Generator: Adobe Illustrator 16.0.0, SVG Export Plug-In . SVG Version: 6.00 Build 0)  -->
<!DOCTYPE svg PUBLIC "-//W3C//DTD SVG 1.1//EN" "http://www.w3.org/Graphics/SVG/1.1/DTD/svg11.dtd">
<svg version="1.1" id="Layer_1" xmlns="http://www.w3.org/2000/svg" xmlns:xlink="http://www.w3.org/1999/xlink" x="0px" y="0px"
	 width="400px" height="285px" viewBox="0 0 400 285" enable-background="new 0 0 400 285" xml:space="preserve">
<g opacity="0.3">
	<g>
		<polyline fill="none" stroke="#626262" stroke-width="2" stroke-miterlimit="10" points="398,281 398,284 396,284 		"/>
		
			<line fill="none" stroke="#626262" stroke-width="2" stroke-miterlimit="10" stroke-dasharray="5,2" x1="394" y1="284" x2="5" y2="284"/>
		<polyline fill="none" stroke="#626262" stroke-width="2" stroke-miterlimit="10" points="4,284 1,284 1,281 		"/>
		
			<line fill="none" stroke="#626262" stroke-width="2" stroke-miterlimit="10" stroke-dasharray="5,2" x1="1" y1="279" x2="1" y2="4"/>
		<polyline fill="none" stroke="#626262" stroke-width="2" stroke-miterlimit="10" points="1,3 1,1 4,1 		"/>
		
			<line fill="none" stroke="#626262" stroke-width="2" stroke-miterlimit="10" stroke-dasharray="5,2" x1="6" y1="1" x2="395" y2="1"/>
		<polyline fill="none" stroke="#626262" stroke-width="2" stroke-miterlimit="10" points="396,1 398,1 398,3 		"/>
		
			<line fill="none" stroke="#626262" stroke-width="2" stroke-miterlimit="10" stroke-dasharray="5,2" x1="398" y1="5" x2="398" y2="280"/>
	</g>
</g>
<rect x="297" y="1.719" fill="#F0F0F0" width="99.75" height="281.25"/>
<g>
	<rect x="313" y="106.031" fill="#E6E6E6" width="69" height="4"/>
	<rect x="326" y="125.031" fill="#E6E6E6" width="43" height="4"/>
	<rect x="317" y="115.031" fill="#E6E6E6" width="61" height="4"/>
	<path fill="#00CFBC" d="M380,154.906c0,1.657-1.343,3-3,3h-58c-1.657,0-3-1.343-3-3v-9.999c0-1.657,1.343-3,3-3h58
		c1.657,0,3,1.343,3,3V154.906z"/>
	<path fill="#2C2C2C" d="M380,175.656c0,1.657-1.343,3-3,3h-58c-1.657,0-3-1.343-3-3v-9.999c0-1.657,1.343-3,3-3h58
		c1.657,0,3,1.343,3,3V175.656z"/>
</g>
</svg>
