<?xml version="1.0" encoding="utf-8"?>
<!-- Generator: Adobe Illustrator 16.0.0, SVG Export Plug-In . SVG Version: 6.00 Build 0)  -->
<!DOCTYPE svg PUBLIC "-//W3C//DTD SVG 1.1//EN" "http://www.w3.org/Graphics/SVG/1.1/DTD/svg11.dtd">
<svg version="1.1" id="Layer_1" xmlns="http://www.w3.org/2000/svg" xmlns:xlink="http://www.w3.org/1999/xlink" x="0px" y="0px"
	 width="83px" height="83px" viewBox="0 0 83 83" enable-background="new 0 0 83 83" xml:space="preserve">
<rect fill="#6D5EAC" width="83" height="83"/>
<g>
	<g>
		<path fill="#FFFFFF" d="M13.35,26.725h2.856v1.396h0.042c0.367-0.592,0.832-1.021,1.396-1.29s1.185-0.402,1.861-0.402
			c0.86,0,1.601,0.162,2.221,0.486c0.621,0.324,1.135,0.755,1.544,1.291c0.409,0.536,0.712,1.16,0.91,1.872
			c0.197,0.712,0.296,1.456,0.296,2.232c0,0.734-0.099,1.439-0.296,2.116c-0.197,0.677-0.497,1.276-0.899,1.797
			c-0.402,0.523-0.902,0.938-1.502,1.249c-0.599,0.31-1.3,0.465-2.104,0.465c-0.677,0-1.301-0.137-1.872-0.413
			c-0.571-0.275-1.04-0.68-1.406-1.216h-0.042v5.182H13.35V26.725z M18.871,35.693c0.494,0,0.906-0.098,1.237-0.295
			s0.599-0.456,0.804-0.772c0.205-0.317,0.349-0.688,0.434-1.111c0.084-0.423,0.127-0.853,0.127-1.29
			c0-0.437-0.046-0.868-0.138-1.291c-0.092-0.422-0.244-0.8-0.455-1.131c-0.211-0.333-0.483-0.6-0.814-0.805
			c-0.331-0.205-0.736-0.306-1.216-0.306c-0.494,0-0.906,0.102-1.237,0.306s-0.599,0.47-0.804,0.793
			c-0.205,0.324-0.349,0.698-0.434,1.122c-0.084,0.422-0.127,0.86-0.127,1.311c0,0.438,0.045,0.867,0.137,1.29
			c0.092,0.423,0.24,0.793,0.444,1.111c0.205,0.316,0.476,0.575,0.814,0.772C17.982,35.595,18.391,35.693,18.871,35.693z"/>
		<path fill="#FFFFFF" d="M25.09,30.087c0.042-0.705,0.218-1.291,0.529-1.755c0.31-0.465,0.705-0.839,1.184-1.122
			c0.48-0.281,1.019-0.482,1.618-0.603c0.6-0.12,1.202-0.179,1.809-0.179c0.55-0.001,1.107,0.038,1.671,0.116
			c0.564,0.078,1.079,0.229,1.544,0.456c0.465,0.225,0.846,0.539,1.143,0.941c0.296,0.402,0.444,0.934,0.444,1.597v5.69
			c0,0.494,0.028,0.966,0.084,1.417c0.056,0.451,0.155,0.79,0.296,1.016h-3.046c-0.056-0.168-0.102-0.342-0.137-0.518
			c-0.035-0.177-0.06-0.356-0.074-0.54c-0.48,0.493-1.043,0.838-1.692,1.036c-0.648,0.197-1.312,0.296-1.988,0.296
			c-0.522,0-1.008-0.063-1.459-0.19c-0.452-0.126-0.846-0.324-1.185-0.592c-0.338-0.268-0.603-0.606-0.793-1.015
			c-0.19-0.409-0.286-0.896-0.286-1.461c0-0.62,0.109-1.131,0.328-1.533c0.219-0.402,0.501-0.723,0.846-0.963
			c0.346-0.24,0.741-0.419,1.185-0.539c0.444-0.12,0.892-0.215,1.343-0.286c0.452-0.07,0.896-0.127,1.333-0.168
			c0.438-0.042,0.826-0.106,1.164-0.191c0.338-0.084,0.606-0.208,0.804-0.37s0.289-0.398,0.275-0.708
			c0-0.324-0.053-0.582-0.159-0.772s-0.247-0.338-0.423-0.444c-0.176-0.106-0.38-0.177-0.613-0.212
			c-0.233-0.034-0.483-0.052-0.751-0.052c-0.592,0-1.057,0.126-1.396,0.381c-0.338,0.253-0.536,0.677-0.592,1.269H25.09z
			 M32.028,32.309c-0.127,0.113-0.286,0.201-0.477,0.264c-0.19,0.064-0.395,0.117-0.613,0.159c-0.219,0.042-0.448,0.078-0.688,0.106
			c-0.24,0.028-0.479,0.063-0.719,0.105c-0.226,0.042-0.448,0.1-0.667,0.17c-0.218,0.07-0.409,0.166-0.571,0.285
			c-0.163,0.121-0.293,0.271-0.392,0.455c-0.099,0.184-0.148,0.416-0.148,0.699c0,0.267,0.049,0.494,0.148,0.676
			s0.232,0.328,0.402,0.435c0.169,0.105,0.367,0.179,0.592,0.221c0.226,0.043,0.458,0.063,0.698,0.063
			c0.592,0,1.051-0.098,1.375-0.295c0.325-0.197,0.564-0.434,0.719-0.709c0.156-0.275,0.25-0.552,0.286-0.834
			c0.035-0.283,0.052-0.508,0.053-0.677V32.309z"/>
		<path fill="#FFFFFF" d="M46.813,36.963c0,0.436-0.061,0.938-0.18,1.5c-0.12,0.564-0.378,1.089-0.772,1.576
			c-0.396,0.487-0.965,0.899-1.713,1.238c-0.748,0.337-1.748,0.507-3.004,0.507c-0.536,0-1.082-0.067-1.639-0.201
			c-0.558-0.134-1.065-0.342-1.523-0.624c-0.458-0.282-0.839-0.645-1.143-1.09c-0.303-0.443-0.476-0.976-0.518-1.596h2.983
			c0.141,0.564,0.416,0.956,0.825,1.174c0.409,0.217,0.881,0.328,1.417,0.328c0.846,0,1.463-0.255,1.851-0.762
			s0.575-1.149,0.562-1.924v-1.439h-0.044c-0.324,0.578-0.786,1.005-1.385,1.28c-0.599,0.275-1.23,0.413-1.893,0.413
			c-0.818,0-1.523-0.145-2.116-0.434c-0.592-0.288-1.079-0.685-1.459-1.184c-0.381-0.501-0.659-1.086-0.835-1.756
			c-0.176-0.67-0.264-1.378-0.264-2.126c0-0.705,0.102-1.386,0.307-2.041c0.204-0.656,0.504-1.234,0.899-1.735
			c0.395-0.5,0.884-0.899,1.47-1.196c0.585-0.296,1.259-0.443,2.02-0.443c0.72-0.001,1.35,0.134,1.893,0.402
			s0.998,0.719,1.364,1.354h0.044v-1.46h2.854V36.963z M41.398,35.079c0.423,0,0.797-0.083,1.121-0.253
			c0.324-0.168,0.592-0.395,0.804-0.676c0.212-0.283,0.37-0.603,0.476-0.963c0.106-0.359,0.16-0.737,0.16-1.131
			c0-0.452-0.044-0.878-0.128-1.28c-0.085-0.402-0.226-0.758-0.423-1.069c-0.197-0.31-0.459-0.557-0.783-0.74
			c-0.324-0.183-0.733-0.274-1.227-0.274c-0.423,0-0.786,0.084-1.089,0.253c-0.303,0.169-0.557,0.398-0.762,0.688
			c-0.204,0.289-0.353,0.62-0.444,0.994c-0.092,0.374-0.138,0.766-0.138,1.174c0,0.396,0.039,0.787,0.117,1.175
			c0.077,0.387,0.211,0.736,0.402,1.047c0.19,0.31,0.44,0.564,0.75,0.762C40.545,34.981,40.933,35.079,41.398,35.079z"/>
		<path fill="#FFFFFF" d="M50.643,32.922c0.042,0.973,0.289,1.678,0.74,2.116s1.1,0.655,1.946,0.655c0.606,0,1.127-0.15,1.565-0.455
			c0.437-0.304,0.705-0.625,0.804-0.962h2.645c-0.424,1.312-1.072,2.25-1.947,2.814c-0.874,0.563-1.932,0.845-3.173,0.845
			c-0.86,0-1.635-0.137-2.326-0.413c-0.691-0.275-1.276-0.666-1.756-1.173c-0.479-0.508-0.849-1.115-1.11-1.82
			c-0.262-0.705-0.393-1.479-0.393-2.327c0-0.817,0.136-1.579,0.402-2.284c0.268-0.705,0.649-1.315,1.143-1.83
			c0.493-0.514,1.083-0.919,1.766-1.216c0.685-0.296,1.443-0.443,2.274-0.443c0.932,0,1.742,0.179,2.433,0.54
			c0.69,0.359,1.259,0.842,1.702,1.449c0.445,0.606,0.766,1.297,0.963,2.072c0.197,0.776,0.269,1.586,0.212,2.433H50.643z
			 M55.529,31.019c-0.142-0.762-0.393-1.34-0.752-1.735c-0.359-0.395-0.905-0.592-1.639-0.592c-0.479,0-0.878,0.081-1.195,0.243
			s-0.571,0.364-0.762,0.603c-0.189,0.24-0.324,0.494-0.401,0.762c-0.078,0.268-0.124,0.508-0.138,0.72H55.529z"/>
		<path fill="#FFFFFF" d="M61.579,34.107c0,0.324,0.066,0.603,0.2,0.834c0.135,0.234,0.307,0.424,0.518,0.572
			c0.212,0.148,0.456,0.257,0.729,0.328c0.275,0.07,0.562,0.105,0.858,0.105c0.211,0,0.433-0.024,0.666-0.073
			c0.231-0.05,0.443-0.128,0.635-0.233c0.189-0.105,0.348-0.246,0.475-0.423c0.128-0.176,0.191-0.398,0.191-0.666
			c0-0.452-0.3-0.79-0.899-1.016c-0.599-0.225-1.435-0.452-2.507-0.677c-0.437-0.099-0.863-0.215-1.279-0.35
			c-0.416-0.134-0.786-0.31-1.11-0.528c-0.325-0.218-0.586-0.493-0.783-0.825c-0.197-0.332-0.296-0.737-0.296-1.217
			c0-0.705,0.137-1.282,0.412-1.734s0.639-0.807,1.09-1.068c0.451-0.261,0.959-0.444,1.522-0.55
			c0.564-0.106,1.143-0.158,1.735-0.158c0.592,0,1.166,0.056,1.723,0.169c0.558,0.112,1.056,0.303,1.492,0.571
			c0.438,0.268,0.8,0.624,1.089,1.068c0.29,0.444,0.462,1.004,0.518,1.682h-2.854c-0.044-0.579-0.261-0.969-0.656-1.174
			s-0.861-0.307-1.396-0.307c-0.169,0-0.354,0.011-0.551,0.031c-0.197,0.021-0.376,0.067-0.539,0.138
			c-0.162,0.071-0.299,0.173-0.412,0.307c-0.112,0.134-0.169,0.314-0.169,0.539c0,0.268,0.099,0.486,0.296,0.656
			c0.197,0.168,0.455,0.306,0.772,0.412c0.316,0.106,0.681,0.201,1.089,0.286c0.409,0.084,0.826,0.176,1.248,0.275
			c0.438,0.099,0.864,0.218,1.28,0.359c0.415,0.141,0.786,0.328,1.11,0.56c0.324,0.234,0.584,0.522,0.781,0.868
			c0.198,0.346,0.297,0.772,0.297,1.28c0,0.72-0.145,1.321-0.433,1.808c-0.289,0.487-0.667,0.878-1.133,1.175
			c-0.465,0.297-0.997,0.503-1.597,0.625c-0.599,0.119-1.209,0.179-1.829,0.179c-0.635,0-1.256-0.063-1.862-0.19
			c-0.605-0.126-1.146-0.338-1.618-0.635c-0.472-0.295-0.86-0.688-1.162-1.173c-0.305-0.487-0.469-1.097-0.498-1.83H61.579z"/>
	</g>
	<g>
		<path fill="#DACCFF" d="M70.991,35.373H70v-0.906h3.07v0.906h-0.991V38h-1.088V35.373z"/>
		<path fill="#DACCFF" d="M73.219,34.467h1.55l0.505,2.079h0.009l0.505-2.079h1.549V38h-1.03v-2.265h-0.009L75.684,38h-0.812
			l-0.614-2.265h-0.01V38h-1.029V34.467z"/>
	</g>
</g>
<path opacity="0.17" fill="#231F20" d="M74,62c0,1.104-1.219,2-2.724,2H12.724C11.219,64,10,63.104,10,62V51
	c0-1.104,1.219-2,2.724-2h58.552C72.781,49,74,49.896,74,51V62z"/>
<g>
	<path fill="#DACCFF" d="M17.41,58.62c0.767,0,1.394-0.304,1.88-0.91l1,1.03c-0.793,0.894-1.729,1.34-2.805,1.34
		s-1.963-0.34-2.66-1.021c-0.697-0.68-1.045-1.538-1.045-2.574c0-1.037,0.355-1.902,1.065-2.596s1.579-1.04,2.605-1.04
		c1.146,0,2.107,0.438,2.88,1.311l-0.97,1.1c-0.494-0.613-1.107-0.92-1.84-0.92c-0.587,0-1.088,0.191-1.505,0.575
		c-0.417,0.384-0.625,0.9-0.625,1.55c0,0.65,0.197,1.172,0.59,1.565C16.374,58.424,16.85,58.62,17.41,58.62z"/>
	<path fill="#DACCFF" d="M26.45,60l-0.65-1.51h-2.93L22.22,60h-1.66l3.02-6.99h1.51L28.11,60H26.45z M24.34,55.09l-0.88,2.03h1.75
		L24.34,55.09z"/>
	<path fill="#DACCFF" d="M28.92,60v-6.99h1.56v5.601h2.98V60H28.92z"/>
	<path fill="#DACCFF" d="M39.64,53.01V54.4h-3.48v1.439h3.13v1.33h-3.13v1.45h3.59V60H34.6v-6.99H39.64z"/>
	<path fill="#DACCFF" d="M46.03,53.01h1.56V60h-1.56l-3.33-4.38V60h-1.56v-6.99H42.6l3.431,4.5V53.01z"/>
	<path fill="#DACCFF" d="M54.65,53.925c0.666,0.61,1,1.459,1,2.545c0,1.087-0.325,1.947-0.975,2.58C54.025,59.684,53.033,60,51.7,60
		h-2.39v-6.99h2.47C53.027,53.01,53.983,53.315,54.65,53.925z M53.506,58.08c0.383-0.36,0.574-0.884,0.574-1.57
		s-0.191-1.215-0.574-1.585c-0.385-0.37-0.973-0.555-1.766-0.555h-0.87v4.25h0.99C52.573,58.62,53.121,58.44,53.506,58.08z"/>
	<path fill="#DACCFF" d="M61.779,60l-0.649-1.51h-2.931L57.55,60h-1.659l3.02-6.99h1.51l3.02,6.99H61.779z M59.67,55.09l-0.88,2.03
		h1.75L59.67,55.09z"/>
	<path fill="#DACCFF" d="M69.92,55.33c0,1.12-0.443,1.844-1.33,2.17L70.36,60h-1.921l-1.549-2.23h-1.08V60H64.25v-6.99h2.65
		c1.086,0,1.861,0.184,2.324,0.55C69.688,53.927,69.92,54.517,69.92,55.33z M68.04,56.16c0.193-0.174,0.29-0.448,0.29-0.825
		s-0.1-0.635-0.3-0.775c-0.2-0.14-0.55-0.21-1.05-0.21h-1.17v2.07h1.14C67.483,56.42,67.847,56.333,68.04,56.16z"/>
</g>
</svg>
