<?xml version="1.0" encoding="utf-8"?>
<!-- Generator: Adobe Illustrator 16.0.0, SVG Export Plug-In . SVG Version: 6.00 Build 0)  -->
<!DOCTYPE svg PUBLIC "-//W3C//DTD SVG 1.1//EN" "http://www.w3.org/Graphics/SVG/1.1/DTD/svg11.dtd">
<svg version="1.1" id="Layer_1" xmlns="http://www.w3.org/2000/svg" xmlns:xlink="http://www.w3.org/1999/xlink" x="0px" y="0px"
	 width="23px" height="23px" viewBox="0 0 23 23" enable-background="new 0 0 23 23" xml:space="preserve">
<path fill="#C5BFDD" d="M21.6,11.5c0,5.6-4.5,10.1-10.1,10.1c-5.6,0-10.1-4.5-10.1-10.1c0-5.6,4.5-10.1,10.1-10.1
	C17.1,1.4,21.6,5.9,21.6,11.5z"/>
<polygon fill="#FFFFFF" points="10.4,14 10.3,14 10.3,14 8.4,12.1 9.2,11.3 10.3,12.4 13.8,9 14.6,9.8 "/>
<path fill="#6D60AA" d="M11.5,0.3c-6.2,0-11.2,5-11.2,11.2c0,6.2,5,11.2,11.2,11.2c6.2,0,11.2-5,11.2-11.2
	C22.7,5.3,17.7,0.3,11.5,0.3z M11.5,21C6.3,21,2,16.7,2,11.5C2,6.3,6.3,2,11.5,2c5.2,0,9.5,4.3,9.5,9.5C21,16.7,16.7,21,11.5,21z"/>
</svg>
