<?xml version="1.0" standalone="no"?>
<!DOCTYPE svg PUBLIC "-//W3C//DTD SVG 1.1//EN" "http://www.w3.org/Graphics/SVG/1.1/DTD/svg11.dtd">
<svg xmlns="http://www.w3.org/2000/svg">
<metadata>Copyright (C) 2013 by Designmodo</metadata>
<defs>
<font id="linecons" horiz-adv-x="1000" >
<font-face font-family="Font Awesome" font-weight="400" font-stretch="normal" units-per-em="1000" ascent="850" descent="-150" />
<missing-glyph horiz-adv-x="1000" />
<glyph glyph-name="music" unicode="&#xe022;" d="M9-45q-21 57 6 117 37 76 131 107 39 14 78 14 68 0 119-37v537q0 23 15 40t36 22l531 94h12q23 0 41-16 21-18 21-47v-656q0-35-16-66-37-76-131-107-39-14-78-14-61 0-107 28t-64 77q-21 57 6 117 37 76 131 107 39 14 78 14 68 0 119-37v379l-519-92h-12v-500q0-35-16-66-37-76-131-107-39-14-78-14-61 0-107 28t-64 77z m58 21q15-41 65-58t107 3 85 62 13 83-65 58-106-3-85-62-14-83z m337 623l531 94v94l-531-94v-94z m256-529q16-41 66-58t106 3 85 62 14 83-66 58-106-3-85-62-14-83z" horiz-adv-x="1000" />
<glyph glyph-name="search" unicode="&#xe009;" d="M0-41q0 47 33 80l260 260q-43 82-43 176 0 154 109 265t266 110 266-110 109-266-109-265-266-109q-94 0-176 43l-260-260q-33-33-80-33-45 0-77 32t-32 77z m55 1q0-22 17-39t39-17 40 18l252 252q-45 33-78 78l-252-252q-18-18-18-40z m258 515q0-129 92-221t221-92 221 92 92 221-92 221-221 92-221-92-92-221z m94 0q0 90 64 154t154 64q16 0 16-16t-16-16q-78 0-133-55t-55-133q0-16-16-16t-16 16z" horiz-adv-x="1000" />
<glyph glyph-name="mail" unicode="&#xe019;" d="M0 162v406q0 51 36 88t89 37h750q53 0 89-37t36-88v-406q0-53-36-89t-89-36h-750q-53 0-89 36t-36 89z m62 0q0-25 19-44t44-19h750q25 0 44 19t19 44l-244 184-137-102q-25-20-57-20t-57 20l-137 102z m0 39l219 164-219 164v-328z m0 367l244-184 27-20 129-98q16-12 37-12t37 12l400 301q0 25-19 44t-44 19h-750q-25 0-44-19t-19-44z m656-203l219-164v328z" horiz-adv-x="1000" />
<glyph glyph-name="heart" unicode="&#xe000;" d="M0 476q0 122 88 210 84 84 204 86t208-78q88 80 208 78t204-86q88-88 88-210t-88-210q-4-4-346-342-27-27-66-27t-66 27q-2 0-346 342-88 88-88 210z m62 0q0-97 70-165l346-342q21-23 43 0l346 342q70 68 70 165t-70 165q-66 66-160 68t-164-61l-43-39-43 39q-70 62-164 61t-160-68q-70-68-70-165z m94 7q0 55 39 94t94 39q16 0 16-16t-16-16q-41 0-71-29t-30-72q0-16-16-16t-16 16z" horiz-adv-x="1000" />
<glyph glyph-name="star" unicode="&#xe002;" d="M4 457q14 41 57 47l262 39 113 234q20 41 64 41t64-41l113-234 262-39q43-6 57-47t-16-70l-191-191 43-264q8-43-29-68-18-14-41-14-18 0-35 8l-227 123-227-123q-18-8-35-8-23 0-41 14-37 25-29 68l43 264-189 191q-31 29-18 70z m68-21l191-191q25-25 20-61l-45-264 227 123q16 8 35 8t35-8l227-123-45 264q-6 35 20 61l191 191-260 37q-39 6-55 41l-113 234-113-234q-16-35-55-39z" horiz-adv-x="1001" />
<glyph glyph-name="user" unicode="&#xe007;" d="M4-105q-14 43 25 70 119 78 291 115-84 105-119 256-10 55-11 122t22 148 66 138q84 105 223 105t223-105q43-57 66-138t22-148-11-122q-35-150-119-256 172-37 291-115 39-27 25-71t-61-44h-875q-21 0-38 13t-22 32z m61 18h875q-109 72-268 107l-78 16q-45-29-92-29t-92 29l-78-16q-160-35-268-107z m193 602q-14-104 16-208t96-187l10-14q57-64 123-64t123 64l10 14q66 82 96 187t16 208q-14 113-76 193t-168 80-168-80-76-193z" horiz-adv-x="1003" />
<glyph glyph-name="videocam" unicode="&#xe005;" d="M0 100v500q0 39 27 66t66 27h594q39 0 66-27t27-66v-39l84 84q20 18 45 18h27q25 0 44-19t19-44v-500q0-27-19-45t-44-18h-27q-25 0-45 18l-84 84v-39q0-39-27-66t-66-27h-594q-39 0-66 27t-27 66z m62 0q0-14 9-22t22-9h594q14 0 22 9t9 22v500q0 14-9 22t-22 9h-594q-14 0-22-9t-9-22v-500z m687 156l31-31 125-125h31v500h-31l-156-156v-187z" horiz-adv-x="1000" />
<glyph glyph-name="camera" unicode="&#xe00b;" d="M0 6v469q0 35 22 61t56 31l135 23 43 107q12 27 35 43t53 16h312q29 0 53-16t35-43l43-107 135-23q33-6 56-31t22-61v-469q0-39-27-66t-66-27h-812q-39 0-66 27t-27 66z m62 0q0-14 9-22t22-9h812q14 0 22 9t9 22v469q0 27-25 31l-170 27-57 141q-8 20-29 20h-312q-21 0-29-20l-57-141-170-27q-25-4-25-31v-469z m187 281q0 104 73 177t177 73 177-73 73-177-73-177-177-73-177 73-73 177z m62-15q6-77 65-128t137-45 128 65 45 137-65 128-137 45-128-65-45-137z m62 15q0 51 36 88t89 37q16 0 16-16t-16-16q-39 0-66-27t-27-66q0-16-16-16t-16 16z" horiz-adv-x="1000" />
<glyph glyph-name="photo" unicode="&#xe01b;" d="M0-25v750q0 53 36 89t89 36h687q53 0 89-36t36-89v-750q0-53-36-89t-89-36h-687q-53 0-89 36t-36 89z m62 0q0-25 19-44t44-19h687q25 0 44 19t19 44v750q0 25-19 44t-44 19h-687q-25 0-44-19t-19-44v-750z m62 156v562q0 14 9 22t22 9h625q14 0 22-9t9-22v-562q0-14-9-22t-22-9h-625q-14 0-22 9t-9 22z m31 0h482l-88 100-18 21-252 285-125-145v-262z m0 311l102 117q10 10 23 10t23-10l246-281 82 94q10 10 23 10t23-10l102-111v434h-625v-252z m344 96q0 39 27 66t66 27 66-27 27-66-27-66-66-27-66 27-27 66z m31 0q0-25 19-44t44-19 44 19 19 44-19 44-44 19-44-19-19-44z m41-283l107-123h102v82l-125 137z" horiz-adv-x="937" />
<glyph glyph-name="attach" unicode="&#xe029;" d="M0 99q0 91 64 155l455 451q82 82 199 82t199-82 82-199-82-199l-344-342q-21-23-44-1t1 44l338 340q64 62 64 153t-64 155-155 64-153-64l-453-447q-45-45-45-109t46-110 110-46 109 45l457 451q27 27 27 66t-27 66-66 27-66-27l-342-344q-23-21-45 1t0 44l342 344q47 45 111 45t110-46 46-110-45-111l-457-449q-64-64-155-64t-154 63-63 154z" horiz-adv-x="1000" />
<glyph glyph-name="lock" unicode="&#xe00d;" d="M0 131v219q0 39 27 66t66 27v125q0 117 82 199t199 82 199-82 82-199v-125q39 0 66-27t27-66v-219q0-117-82-199t-199-82h-187q-117 0-199 82t-82 199z m62 0q0-90 64-154t154-64h187q90 0 154 64t64 154v219q0 14-9 22t-22 9h-562q-14 0-22-9t-9-22v-219z m94 312h62v125q0 64 46 110t110 46 110-46 46-110v-125h62v125q0 90-64 154t-154 64-154-64-64-154v-125z m94 0h250v125q0 53-36 89t-89 36-89-36-36-89v-125z m62-250q0 25 19 44t44 19 44-19 19-44q0-27-21-84-14-41-41-41t-41 41q-21 57-21 84z" horiz-adv-x="750" />
<glyph glyph-name="eye" unicode="&#xe013;" d="M0 341v18q0 1 2 3v4q70 131 206 214t290 83 291-83 205-216l1-1 1-1v-4q2-6 2-8t-2-8v-4l-1-1-1-1q-68-133-205-216t-291-83-290 83-206 216v2q-2 2-2 3z m66 9q64-113 183-182t250-68 250 68 183 182q-64 113-183 182t-250 68-250-68-183-182z m213 0q0 90 64 154t154 64 154-64 64-154-64-154-154-64-154 64-64 154z m31 0q0-78 55-133t133-55 133 55 55 133-55 133-133 55-133-55-55-133z m62 0q0 53 37 89t88 36q16 0 16-16t-16-16q-37 0-65-27t-28-66q0-16-16-16t-16 16z" horiz-adv-x="998" />
<glyph glyph-name="tag" unicode="&#xe00c;" d="M0 100v500q0 51 36 88t89 37h594q68 0 105-59l156-250q43-66 0-133l-156-250q-37-59-105-59h-594q-53 0-89 36t-36 89z m62 0q0-25 19-44t44-19h594q35 0 53 29l156 250q21 33 0 66l-156 250q-18 29-53 29h-594q-25 0-44-19t-19-44v-500z m562 250q0 39 27 66t66 27 66-27 27-66-27-66-66-27-66 27-27 66z m31 0q0-25 19-44t44-19 44 19 19 44-19 44-44 19-44-19-19-44z" horiz-adv-x="1002" />
<glyph glyph-name="thumbs-up" unicode="&#xe01a;" d="M0-56v500q0 39 27 66t66 27h94q32 0 61-23 12 6 33 16 123 64 125 227 0 39 27 66t66 27q57 0 105-64t49-146q0-66-8-104 236-6 266-14 43-12 65-43t22-62v-23q-2-39-27-68 18-33 12-74-8-55-41-86 16-37 0-84-18-59-53-82 8-27 0-55-6-18-14-33-33-61-111-61h-172q-92 0-186 21-92 21-127 29h-2q0 2-3 2h-5v2q-27-55-84-55h-94q-39 0-66 27t-27 66z m62 0q0-14 9-22t22-9h94q14 0 22 9t9 22v500q0 14-9 22t-22 9h-94q-14 0-22-9t-9-22v-500z m31 47q0 20 14 33t33 14 33-14 14-33-14-33-33-14-33 14-14 33z m31 0q0-16 16-16t16 16-16 16-16-16z m125 4q0-23 27-27 21-6 145-35 88-20 172-20h172q41 0 57 27 6 16 8 23 6 12-2 27t-29 16h-49q-16 0-16 16t16 16h51q31 0 49 11t22 20 11 30q21 64-39 64h-62q-16 0-16 16t16 16h74q57 0 68 66 2 21-9 40t-42 19h-61q-16 0-16 16t16 16h62q61 0 62 45v21q0 37-37 47-45 12-338 12 20 59 24 84t5 80q0 57-32 103t-60 46q-31 0-31-31-2-92-46-173t-142-122q-2 0-4-1l-2-1q-25-8-25-33v-432z" horiz-adv-x="1000" />
<glyph glyph-name="pencil" unicode="&#xe00f;" d="M0-41q0 4 1 8t1 8 1 8 1 6v2l74 268q10 31 31 53l324 324v2l2 2 150 152q61 59 146 59 105 0 186-80 74-74 81-171t-58-161l-477-480q-23-23-55-31l-264-70-3-1q-3-1-7-2t-9-1-10-1-9-1q-45 0-77 32t-32 77z m62 0q0-20 14-33t33-14q6 0 21 4l115 31q4 59-43 105-45 45-105 43l-31-119q-4-14-4-18z m45 168q66-2 117-53t53-119l115 29 12 6q41 47 33 115t-61 121q-51 49-115 59t-111-23q-8-10-12-21z m131 225q45-2 90-20l295 295q-88 21-145-33z m119-35q37-20 64-45 21-21 41-55l297 299q-16 31-39 55-29 29-66 45z m121-129q18-41 21-82v-23l242 244v2q61 61 31 156z m102 508q105 0 186-80 70-72 78-166v-21l53 55q45 45 41 111-6 74-62 131-62 62-143 62-61 0-102-41z" horiz-adv-x="1000" />
<glyph glyph-name="comment" unicode="&#xe014;" d="M0 412q0 156 146 266t353 109 353-109 146-266-146-266-353-109q-47 0-96 8-29-35-89-78t-122-55h-10q-12 0-20 8t-8 20q0 6 2 12 0 2 13 21t18 29 14 29 13 36 4 32v2q-102 53-160 134t-59 177z m62 0q0-74 49-143t137-111q33-18 33-57v-6q0-41-21-92 61 37 96 80 18 23 49 23 4 0 8-2 45-6 88-6 182 0 310 92t128 221-128 221-310 92-310-92-128-221z m94 0q0 90 102 154t242 64q16 0 16-16t-16-16q-125 0-219-57t-94-131q0-16-16-16t-16 16z" horiz-adv-x="1000" />
<glyph glyph-name="location" unicode="&#xe012;" d="M0 475q0 156 109 266t266 109 266-109 109-266q0-78-28-160t-85-166-101-141-110-133q-20-25-49-25h-4q-29 0-49 25-66 76-110 133t-101 141-85 166-28 160z m62 0q0-72 28-150t85-160 95-129 101-119h2q2-2 2-4l4 4q62 72 100 119t95 129 86 160 28 150q0 129-92 221t-221 92-221-92-92-221z m125 8q0 78 55 133t133 55 133-55 55-133-55-133-133-55-133 55-55 133z m31 0q0-64 46-110t110-46 110 46 46 110-46 110-110 46-110-46-46-110z" horiz-adv-x="750" />
<glyph glyph-name="cup" unicode="&#xe016;" d="M0 537v94q0 25 17 43t42 20l39 113q14 43 59 43h562q45 0 59-43l39-113q23-2 41-20t18-43v-94q0-25-19-44t-44-19h-33l1-3q1-3 1-5l-62-562q-4-23-21-39t-41-16h-437q-23 0-41 16t-21 39l-62 562q0 2 1 5l1 3h-33q-25 0-44 19t-19 44z m62 0h750v94h-750v-94z m62 156h625l-31 94h-562z m31-219l10-94h543l10 94h-562z m14-125l35-312h465l35 312h-535z m39-344l10-94h437l10 94h-457z" horiz-adv-x="875" />
<glyph glyph-name="trash" unicode="&#xe006;" d="M0 569v68q2 37 29 62t64 25h94v31q0 39 27 66t66 27h312q39 0 66-27t27-66v-31h94q37 0 64-25t29-62v-68q0-25-19-44t-44-19v-531q0-53-36-89t-89-36h-500q-53 0-89 36t-36 89v531q-25 0-44 19t-19 44z m62 0h750v62q0 14-9 22t-22 9h-687q-14 0-22-9t-9-22v-62z m62-594q0-25 19-44t44-19h500q25 0 44 19t19 44v531h-625v-531z m62 31v406q0 14 9 22t22 9h62q14 0 22-9t9-22v-406q0-14-9-22t-22-9h-62q-14 0-22 9t-9 22z m31 0h62v406h-62v-406z m31 719h375v31q0 14-9 22t-22 9h-312q-14 0-22-9t-9-22v-31z m125-719v406q0 14 9 22t22 9h62q14 0 22-9t9-22v-406q0-14-9-22t-22-9h-62q-14 0-22 9t-9 22z m31 0h62v406h-62v-406z m156 0v406q0 14 9 22t22 9h62q14 0 22-9t9-22v-406q0-14-9-22t-22-9h-62q-14 0-22 9t-9 22z m31 0h62v406h-62v-406z" horiz-adv-x="875" />
<glyph glyph-name="doc" unicode="&#xe018;" d="M0-25v625q0 39 27 66t66 27h31v62q0 39 27 66t66 27h687q39 0 66-27t27-66v-781q0-53-36-89t-89-36h-750q-53 0-89 36t-36 89z m62 0q0-25 19-44t44-19h750q25 0 44 19t19 44v781q0 14-9 22t-22 9h-687q-14 0-22-9t-9-22v-750q0-14-9-22t-22-9-22 9-9 22v625h-31q-14 0-22-9t-9-22v-625z m187 16q0 16 16 16h250q16 0 16-16t-16-16h-250q-16 0-16 16z m0 94q0 16 16 16h250q16 0 16-16t-16-16h-250q-16 0-16 16z m0 94q0 16 16 16h250q16 0 16-16 0-6-5-11t-11-5h-250q-16 0-16 16z m0 94q0 16 16 16h594q16 0 16-16t-16-16h-594q-16 0-16 16z m0 94q0 16 16 16h594q16 0 16-16t-16-16h-594q-16 0-16 16z m0 109v219q0 14 9 22t22 9h219q14 0 22-9t9-22v-219q0-14-9-22t-22-9h-219q-14 0-22 9t-9 22z m62 31h156v156h-156v-156z m281-516q0 16 16 16h250q16 0 16-16t-16-16h-250q-16 0-16 16z m0 94q0 16 16 16h250q16 0 16-16t-16-16h-250q-16 0-16 16z m0 94q0 16 16 16h250q16 0 16-16 0-6-5-11t-11-5h-250q-16 0-16 16z m0 281q0 16 16 16h250q16 0 16-16t-16-16h-250q-16 0-16 16z m0 94q0 16 16 16h250q16 0 16-16t-16-16h-250q-16 0-16 16z m0 94q0 16 16 16h250q16 0 16-16t-16-16h-250q-16 0-16 16z" horiz-adv-x="1000" />
<glyph glyph-name="note" unicode="&#xe01c;" d="M0-25v750q0 39 27 66t66 27h656q25 0 45-18l187-187q18-20 18-45v-594q0-39-27-66t-66-27h-812q-39 0-66 27t-27 66z m62 0q0-14 9-22t22-9h812q14 0 22 9t9 22v562h-125q-39 0-66 27t-27 66v125h-625q-14 0-22-9t-9-22v-750z m62 78q0 16 16 16h719q16 0 16-16t-16-16h-719q-16 0-16 16z m0 94q0 16 16 16h719q16 0 16-16t-16-16h-719q-16 0-16 16z m0 94q0 16 16 16h719q16 0 16-16t-16-16h-719q-16 0-16 16z m0 94q0 16 16 16h719q16 0 16-16t-16-16h-719q-16 0-16 16z m0 109v187q0 14 9 22t22 9h219q14 0 22-9t9-22v-187q0-14-9-22t-22-9h-219q-14 0-22 9t-9 22z m62 31h156v125h-156v-125z m281-47q0 16 16 16h375q16 0 16-16t-16-16h-375q-16 0-16 16z m0 94q0 16 16 16h156q16 0 16-16t-16-16h-156q-16 0-16 16z m0 94q0 16 16 16h156q16 0 16-16t-16-16h-156q-16 0-16 16z m281 16q0-25 19-44t44-19h125l-187 187v-125z" horiz-adv-x="1000" />
<glyph glyph-name="cog" unicode="&#xe00a;" d="M0 307v86q0 21 15 39t36 21l96 20q6 20 16 41l-53 80q-14 20-11 42t19 38l59 59q20 20 45 20 20 0 35-12l80-53q21 10 41 16l20 96q4 21 21 36t39 15h86q21 0 39-15t21-36l20-96q20-6 41-16l80 53q16 12 35 12 25 0 45-20l59-59q18-16 20-38t-12-42l-53-80q10-21 16-41l96-20q21-4 36-21t15-39v-86q0-21-15-39t-36-21l-96-20q-6-20-16-41l53-80q14-20 12-42t-20-38l-59-59q-20-20-45-20-20 0-35 12l-80 53q-21-10-41-16l-20-96q-4-21-21-36t-39-15h-86q-21 0-39 14t-21 37l-20 96q-20 6-41 16l-80-53q-16-12-35-12-25 0-45 20l-59 59q-16 16-19 38t11 42l53 80q-10 21-16 41l-96 20q-21 4-36 21t-15 39z m62 0l96-20q35-6 47-39 6-18 14-35 16-31-4-61l-55-82 61-61 82 55q16 10 33 10 16 0 27-6 18-8 35-14 33-12 39-47l20-96h86l20 96q6 35 39 47 18 6 35 14 12 6 27 6 18 0 33-10l82-55 61 61-55 82q-20 29-4 61 8 18 14 35 12 33 47 39l96 20v86l-96 20q-35 6-47 39-6 18-14 35-16 31 4 61l55 82-61 61-82-55q-16-10-33-10-16 0-27 6-18 8-35 14-33 12-39 47l-20 96h-86l-20-96q-6-35-39-47-18-6-35-14-12-6-27-6-18 0-33 10l-82 55-61-61 55-82q20-29 4-61-8-18-14-35-12-33-47-39l-96-20v-86z m219 43q0 90 64 154t154 64 154-64 64-154-64-154-154-64-154 64-64 154z m27 0q0-80 56-136t136-56 136 56 56 136-56 136-136 56-136-56-56-136z m66 0q0 53 36 89t89 36 89-37 36-89-36-88-89-36-89 36-36 89z m31 0q0-39 27-66t66-27 66 27 27 66-27 66-66 27-66-27-27-66z" horiz-adv-x="1000" />
<glyph glyph-name="params" unicode="&#xe01f;" d="M0 537q0 76 62 125v94q0 39 27 66t66 27 66-27 27-66v-94q62-49 62-125t-62-125v-469q0-39-27-66t-66-27-66 27-27 66v469q-62 49-62 125z m62 0q0-12 4-25l2-6q4-14 12-23 8-12 20-21t25-13q16-6 31-6t31 6q14 4 25 14 12 8 20 20 8 10 12 23l2 6q4 14 4 25t-4 25q-2 4-2 6-4 14-12 23-8 12-20 21t-25 13q-16 6-31 6t-31-6q-14-4-25-14-10-8-20-20-8-10-12-23l-2-6q-4-14-4-25z m62-594q0-14 9-22t22-9 22 9 9 22v441q-16-4-31-4t-31 4v-441z m0 746q16 4 31 4t31-4v66q0 14-9 22t-22 9-22-9-9-22v-66z m219-527q0 76 62 125v469q0 39 27 66t66 27 66-27 27-66v-469q62-49 62-125t-62-125v-94q0-39-27-66t-66-27-66 27-27 66v94q-62 49-62 125z m62 0q0-12 4-25l2-6q4-14 12-23 8-12 20-21t25-13q16-6 31-6t31 6q14 4 25 14 12 8 20 20 8 10 12 23 0 2 2 6 4 14 4 25t-4 25l-2 6q-4 14-12 23-8 12-20 20-12 10-25 14-16 6-31 6t-31-6q-14-4-25-14-10-8-20-20-8-10-12-23l-2-6q-4-14-4-25z m62-219q0-14 9-22t22-9 22 9 9 22v66q-16-4-31-4t-31 4v-66z m0 371q16 4 31 4t31-4v441q0 14-9 22t-22 9-22-9-9-22v-441z m219 223q0 76 62 125v94q0 39 27 66t66 27 66-27 27-66v-94q62-49 62-125t-62-125v-469q0-39-27-66t-66-27-66 27-27 66v469q-62 49-62 125z m62 0q0-12 4-25l2-6q4-14 12-23 8-12 20-21t25-13q16-6 31-6t31 6q14 4 25 14 12 8 20 20 8 10 12 23 0 2 2 6 4 14 4 25t-4 25l-2 6q-4 14-12 23-8 12-20 20-12 10-25 14-16 6-31 6t-31-6q-14-4-25-14-12-8-20-20-8-10-12-23l-2-6q-4-14-4-25z m62-594q0-14 9-22t22-9 22 9 9 22v441q-16-4-31-4t-31 4v-441z m0 746q16 4 31 4t31-4v66q0 14-9 22t-22 9-22-9-9-22v-66z" horiz-adv-x="1000" />
<glyph glyph-name="calendar" unicode="&#xe02b;" d="M0-66v738q0 35 24 60t60 24h135v62q0 14 9 22t22 9 22-9 9-22v-62h187v62q0 14 9 22t22 9 22-9 9-22v-62h187v62q0 14 9 22t22 9 22-9 9-22v-62h135q35 0 60-24t24-60v-738q0-35-24-60t-60-24h-832q-35 0-60 24t-24 60z m62 0q0-10 6-16t16-6h832q10 0 16 6t6 16v738q0 10-6 16t-16 6h-135v-62q0-14-9-22t-22-9-22 9-9 22v62h-187v-62q0-14-9-22t-22-9-22 9-9 22v62h-187v-62q0-14-9-22t-22-9-22 9-9 22v62h-135q-10 0-16-6t-6-16v-738z m156 135v94h125v-94h-125z m0 156v94h125v-94h-125z m0 156v94h125v-94h-125z m219-312v94h125v-94h-125z m0 156v94h125v-94h-125z m0 156v94h125v-94h-125z m219-312v94h125v-94h-125z m0 156v94h125v-94h-125z m0 156v94h125v-94h-125z" horiz-adv-x="1000" />
<glyph glyph-name="sound" unicode="&#xe004;" d="M0 162q0 39 27 66l98 98v430q0 29 16 53t43 33q16 8 35 8 39 0 66-27l687-687q45-45 20-102-10-27-33-43t-53-16h-430l-98-98q-27-27-66-27t-66 27l-219 219q-27 27-27 66z m62 0q0-14 10-21l219-219q8-10 21-10t21 10l98 98h2l-264 264v-2l-98-98q-10-8-10-21z m123 150l277-277q12 2 14 2h377l-666 666v-377q0-2-2-14z m2 434l709-709h10q21 0 29 20t-8 33l-687 687q-8 10-21 10-6 0-12-2-20-8-20-29v-10z m344 72q0 14 9 22t22 9q182 0 310-128t128-310q0-14-9-22t-22-9-22 9-9 22q0 154-110 265t-265 110q-14 0-22 9t-9 22z m16-109q0 16 16 16 129 0 221-92t92-221q0-16-16-16t-16 16q0 117-82 199t-199 82q-16 0-16 16z" horiz-adv-x="1001" />
<glyph glyph-name="clock" unicode="&#xe01d;" d="M0 350q0 121 86 213l43 236q4 21 21 36t41 15h250q21 0 39-15t21-36l45-244q57-64 72-145l2 1q2 1 4 1 25 0 44-19t19-44-19-44-44-19q-2 0-4 1l-2 1q-18-84-76-148l-45-240q-4-21-21-36t-40-15h-250q-23 0-40 15t-21 36l-45 240q-82 90-82 209z m62 0q0-104 73-177t177-73 177 73 73 177-73 177-177 73-177-73-73-177z m31 0q0 14 9 22t22 9 22-9 9-22-9-22-22-9-22 9-9 22z m55-132q0 13 9 21t22 9 22-9 9-21-9-22-22-10-22 10-9 22z m0 265q0 14 9 22t22 9 22-9 9-22-9-22-22-9-22 9-9 22z m8-402l31-168h250l31 168q-74-43-156-43t-156 43z m4 539q74 43 156 43t156-43l-31 168h-250z m121-457q0 14 9 22t22 9 22-9 9-22-9-22-22-9-22 9-9 22z m0 187q0 14 10 21l162 135q8 6 14-1t2-15l-76-94-59-70q-8-8-21-8t-22 9-9 22z m0 187q0 14 9 22t22 9 22-9 9-22-9-22-22-9-22 9-9 22z m133-319q0 13 9 21t21 9 22-9 10-22q0-12-10-21t-22-10-21 10-9 22z m55 132q0 14 9 22t22 9 22-9 9-22-9-22-22-9-22 9-9 22z" horiz-adv-x="687" />
<glyph glyph-name="lightbulb" unicode="&#xe00e;" d="M0 506q0 143 101 243t243 101 243-101 101-243q0-55-29-121t-71-141-56-115q-16-39-31-95t-24-81-26-54-42-39-63-11-63 11-41 39-26 54-25 81-31 95q-14 43-56 116t-71 140-29 121z m62 0q0-64 82-213 37-64 53-100h293q16 35 53 100 82 150 82 213 0 117-82 199t-199 82-199-82-82-199z m94 0q0 78 55 133t133 55q16 0 16-16t-16-16q-64 0-110-46t-46-110q0-16-16-16t-16 16z m66-375q12-33 20-61l213 27q2 12 10 33h-242z m29-90q10-35 18-61l154 20q6 16 12 37 2 6 5 16t3 12z m29-90q12-25 24-32t38-7q29 0 43 10t27 45z" horiz-adv-x="687" />
<glyph glyph-name="tv" unicode="&#xe003;" d="M36 47q-72 303 0 605 10 43 53 47 205 25 410 25t410-25q45-4 55-47 72-303 0-605-12-43-55-47-94-12-197-18 6-4 6-8 0-14-64-22t-154-9-154 9-64 22q0 4 6 8-104 6-197 18-43 4-53 47z m61 16q402-51 807 0 68 287 0 574-404 51-807 0-68-287 0-574z m61 84q-66 207 0 412 6 18 23 21 129 25 256 25t256-25q18-4 23-21 33-102 33-205t-33-207q-6-18-23-21-129-25-256-25t-256 25q-18 4-23 21z m31 10q248-51 498 0 64 197 0 393-250 53-498 0-64-195 0-393z m62 209l8 88q4 14 20 16l143 12q16 0 16-16t-16-16l-117-8q-16-2-18-18l-6-59q0-16-16-16t-14 16z m498-219q0 16 16 16h94q16 0 16-16t-16-16h-94q-16 0-16 16z m31 94q0 16 16 16h94q16 0 16-16t-16-16h-94q-16 0-16 16z m0 94q0 16 16 16h94q16 0 16-16t-16-16h-94q-16 0-16 16z m0 187q0 20 14 33t33 14 33-14 14-33-14-33-33-14-33 14-14 33z m31 0q0-16 16-16t16 16-16 16-16-16z" horiz-adv-x="1000" />
<glyph glyph-name="desktop" unicode="&#xe011;" d="M0 100v625q0 39 27 66t66 27h812q39 0 66-27t27-66v-625q0-39-27-66t-66-27h-312v-37l195-25q23-6 23-31 0-14-9-22t-22-9h-562q-14 0-22 9t-9 22q0 25 23 31l195 25v37h-312q-39 0-66 27t-27 66z m62 0q0-14 9-22t22-9h812q14 0 22 9t9 22v625q0 14-9 22t-22 9h-812q-14 0-22-9t-9-22v-625z m62 125v437q0 14 9 22t22 9h687q14 0 22-9t9-22v-437q0-14-9-22t-22-9h-687q-14 0-22 9t-9 22z m31 0h687v437h-687v-437z" horiz-adv-x="1000" />
<glyph glyph-name="mobile" unicode="&#xe017;" d="M0-56v812q0 39 27 66t66 27h500q39 0 66-27t27-66v-812q0-39-27-66t-66-27h-500q-39 0-66 27t-27 66z m62 0q0-14 9-22t22-9h500q14 0 22 9t9 22v62h-562v-62z m0 94h562v625h-562v-625z m0 656h562v62q0 14-9 22t-22 9h-500q-14 0-22-9t-9-22v-62z m219 47q0 16 16 16h94q16 0 16-16t-16-16h-94q-16 0-16 16z m31-781q0 16 16 16h31q16 0 16-16t-16-16h-31q-16 0-16 16z" horiz-adv-x="687" />
<glyph glyph-name="cd" unicode="&#xe02d;" d="M5 276q-18 127 29 260 51 127 158 209t233 100 259-29q127-51 210-158t100-233-30-259q-51-127-157-210t-233-100-260 30q-127 51-209 157t-100 233z m89 236q-67-168 4-335t239-233 335 5 233 239-5 334-239 233-334-4-233-239z m58-23q57 145 199 205 16 8 21-7t-8-21q-131-57-184-189-6-14-21-8t-9 20z m59-23q47 121 166 172 14 6 21-9t-9-21q-105-45-150-154-6-14-20-8t-8 20z m57-21q39 94 133 135l2 2q14 6 20-9t-8-21q-84-35-117-119-6-16-21-10t-9 21z m59-23q29 72 101 103t144 1 103-101 1-144-101-103-144-1-103 101-1 144z m58-24q-19-48 2-96t68-66 96 2 66 68-2 96-68 66-96-2-66-68z m58-22q10 23 34 34t48 1 34-34 1-48-34-34-48-1-34 34-1 48z m30-35q5-12 17-17t23 0 17 17 0 23-17 17-23 0-17-17 0-23z m106-210q-6 15 8 21 84 35 117 119 6 16 21 10t9-21q-39-96-133-137h-2q-14-6-20 9z m24-58q-7 14 9 21 107 45 150 152 6 16 21 10t9-21q-49-119-168-170-14-6-21 8z m24-58q-6 15 8 21 131 57 184 189 6 14 21 8t9-20q-57-145-199-205v-2q-16-6-21 9z" horiz-adv-x="998" />
<glyph glyph-name="inbox" unicode="&#xe015;" d="M0 37v219q0 8 2 18l125 469q6 20 22 32t38 13h625q21 0 38-13t22-32l125-469q2-10 2-18v-219q0-53-36-89t-89-36h-750q-53 0-89 36t-36 89z m62 0q0-25 19-44t44-19h750q25 0 44 19t19 44v219l-125 469h-625l-125-469v-219z m59 227l107 375q6 23 29 23h484q23 0 29-23l107-375q4-16-5-27t-24-12h-143l-45-90q-18-35-57-35h-211q-39 0-57 35l-45 90h-143q-16 0-24 12t-5 27z m45 23h127q39 0 57-35l45-90h211l45 90q18 35 57 35h127l-92 344h-484z" horiz-adv-x="1000" />
<glyph glyph-name="globe" unicode="&#xe02f;" d="M0 366q0 201 142 343t343 142 343-142 142-343-142-343-343-142-343 142-142 343z m62-16q8-166 125-283 53 37 109 61-43 105-47 223h-187z m0 31h187q4 104 37 195-62 25-117 68-102-113-107-264z m129 287q51-39 107-62 43 102 117 176-131-21-225-113z m20-623q88-76 205-96-64 64-105 148-53-20-100-53z m70 305q4-111 45-213 68 21 143 25v187h-187z m0 31h187v156q-78 4-152 29-31-88-35-186z m47 215q68-23 141-27v219h-2q-90-76-139-191z m12-486q49-100 127-166h2v187q-68-4-129-21z m160-166h2q78 66 127 166-61 18-129 21v-187z m0 219q74-4 143-25 41 102 45 213h-187v-187z m0 219h187q-4 98-35 186-74-25-152-29v-156z m0 187q72 4 141 27-49 115-139 191h-2v-219z m53-619q117 20 205 96-47 33-100 53-41-84-105-148z m0 832q74-74 117-176 57 23 107 62-94 92-225 113z m119-654q57-23 109-61 117 117 125 283h-187q-4-117-47-223z m10 449q33-92 37-195h187q-6 150-107 264-55-43-117-68z" horiz-adv-x="969" />
<glyph glyph-name="cloud" unicode="&#xe001;" d="M0 178q0 55 27 102t74 74q-8 21-8 43 0 59 41 100t100 41q20 0 43-8 33 74 102 119t152 45q109 0 188-73t91-181q82-16 136-80t54-150q0-98-68-166t-166-68h-562q-84 0-144 60t-60 144z m62 0q0-59 41-100t100-41h562q70 0 121 51t51 121q0 62-39 109t-100 59q-35 8-42 15t-9 42q-8 84-70 141t-146 57q-62 0-117-34t-80-93q-10-20-12-24t-9-13-15-6-21 6q-21 10-43 8-33 0-56-22t-22-56q0-10 4-23 14-33 10-45t-37-29q-70-41-70-121z" horiz-adv-x="1000" />
<glyph glyph-name="paper-plane" unicode="&#xe01e;" d="M0 191q-2 19 14 28l937 625q8 6 18 6t18-6q16-10 14-31l-156-937q-4-14-16-21-8-4-16-4-6 0-12 2l-303 121-64-107q-10-16-27-16t-27 16l-115 201-244 98q-18 8-20 26z m98 11l189-76q2-2 5-4l3-2 527 564z m221-104l88-152 504 787z m184-62q12-2 20-4l266-107 125 748z" horiz-adv-x="1000" />
<glyph glyph-name="fire" unicode="&#xe028;" d="M0 135q0 76 18 167t33 156 14 170-33 222l20-14q20-14 51-44t64-69 64-97 49-118q62 94 64 186l31-35q29-35 61-105t31-139l16 20q16 21 32 60t17 75q96-119 135-251t10-249q-14-51-31-84t-56-67-106-51-170-17q-137 0-225 85t-88 200z m62 0q0-88 69-155t181-67q74 0 129 11t84 25 49 42 26 44 15 50q39 158-64 344-61-104-145-172 0 92-11 176t-24 113q-23-59-113-186 0 8-12 51t-44 122-75 138q8-125-33-311-31-143-31-225z m51-23q0 146 41 264l16 47 16-41q20-57 66-164 20 29 49 74l47 74v-53q0-66 23-135 39 20 68 41t43 36 35 40l27 29 6-31q21-119-20-219-4-10-14-10-4 0-6 2-14 6-8 20 27 72 20 168-59-66-154-113l-16-6-6 16q-23 66-27 111-31-45-59-84l-16-21-12 23q-43 98-64 148-25-84-25-217 0-16-16-16t-16 16z" horiz-adv-x="688" />
<glyph glyph-name="graduation-cap" unicode="&#xe024;" d="M0 600q0 33 21 59t52 33l406 94q12 2 21 2t21-2l406-94q31-8 52-33t21-59-21-59-52-33l-84-20v-264q0-68-84-112t-260-44-260 44-84 112v264l-84 20q-31 8-52 33t-21 59z m62 0q0-25 23-31l406-94h16l406 94q23 6 23 31t-23 31l-406 94h-16l-406-94q-23-6-23-31z m156-375q0-20 29-40t97-37 155-17 155 17 97 37 29 40v250l-260-61q-12-2-21-2t-21 2l-260 61v-250z m656-250q0 31 20 78t43 47 43-47 20-78q0-25-19-44t-44-19-44 19-19 44z m31 187v281q0 14 9 22t22 9 22-9 9-22v-281q0-14-9-22t-22-9-22 9-9 22z" horiz-adv-x="1000" />
<glyph glyph-name="megaphone" unicode="&#xe023;" d="M0 412q0 66 36 111t89 45h289q62 0 119 45t96 125h2q59 111 150 111 102 0 160-131t59-307-59-307-160-131q-92 0-150 111h-2q-78 154-199 168-6-2-8-2v-2q-6-2-10-8-2-2-2-4-4-6-4-12v-221q0-8 16-26t16-36v-31q0-25-19-44t-44-19h-125q-25 0-44 19t-19 44v281q0 25-19 44t-44 19q-53 0-89 45t-36 111z m62 0q0-39 19-66t44-27h219q-31 37-31 94t31 94h-219q-25 0-44-27t-19-66z m170-156q18-29 18-62v-281h125v27l-2 2-2 2q-27 33-27 62v219q0 16 6 31h-117z m111 156q0-39 19-66t44-27h8q86 0 162-62-14 74-14 156 0 80 14 156-76-62-162-62h-8q-25 0-44-27t-19-66z m281 0q0-47 6-94h88q25 0 44 27t19 66-19 66-44 27h-88q-6-47-6-94z m14-156q20-98 58-158t85-61q64 0 110 109t46 266-46 266-110 109q-47 0-85-61t-58-158h80q53 0 89-45t36-111-36-111-89-45h-80z" horiz-adv-x="1000" />
<glyph glyph-name="database" unicode="&#xe021;" d="M0 53v594q0 98 131 150t307 53 307-53 131-150v-594q0-98-131-150t-307-53-307 53-131 150z m62 0q0-59 109-100t266-41 266 41 109 100v117q-47-49-150-75t-225-26-225 26-150 75v-117z m0 187q0-59 109-100t266-41 266 41 109 100v117q-47-49-150-75t-225-26-225 26-150 75v-117z m0 187q0-59 109-100t266-41 266 41 109 100v107q-59-45-160-68t-215-23-215 23-160 68v-107z m0 219q0-59 109-100t266-41 266 41 109 100-109 100-266 41-266-41-109-100z m625-609q0 14 9 22t22 9 22-9 9-22-9-22-22-9-22 9-9 22z m0 187q0 14 9 22t22 9 22-9 9-22-9-22-22-9-22 9-9 22z m0 187q0 14 9 22t22 9 22-9 9-22-9-22-22-9-22 9-9 22z" horiz-adv-x="875" />
<glyph glyph-name="key" unicode="&#xe008;" d="M0-88v94q0 20 18 39l379 379q-21 57-21 113 0 129 92 221t221 92 221-92 92-221-92-221-221-92q-57 0-113 21l-74-72v-74q0-25-19-44t-44-19h-62v-62q0-25-19-44t-44-19h-72l-45-45q-18-18-39-18h-94q-25 0-44 19t-19 44z m62 0h88l45 45q18 18 45 18h72v62q0 25 19 44t44 19h62v74q0 25 18 43l61 61 35 35 10 10q61-35 127-35 104 0 177 73t73 177-73 177-177 73-177-73-73-177q0-66 35-127l-45-45-365-363v-90z m562 713q0 4 2 10 23 64 88 88 16 6 27-4 74-53 127-127 6-8 6-18 0-4-2-10-23-64-88-88-16-6-27 4-74 53-127 127-6 8-6 18z m31 0q51-70 119-119 51 18 68 68-49 68-119 119-51-18-68-68z" horiz-adv-x="1000" />
<glyph glyph-name="beaker" unicode="&#xe025;" d="M2 354q10 49 55 68l424 170q-12 20-12 41 0 33 23 57l43 43q23 23 56 23t56-23l240-240q23-23 23-56t-23-56l-43-45q-23-21-55-21-23 0-43 12l-168-418q-18-47-68-57-8-2-18-2h-4q-37 0-62 27l-398 393q-35 35-25 84z m62-11q-3-17 9-28l396-393q10-10 21-10h8q16 4 23 20l146 371q-59 61-123 85t-146 33-123 22l-193-78q-16-6-19-22z m187-24q0 25 19 44t44 19 44-19 19-44-19-44-44-19-44 19-19 44z m31 0q0-14 9-22t22-9 22 9 9 22-9 22-22 9-22-9-9-22z m43 145q29-6 80-14 59-6 93-13t87-33 98-69l41 102 55-55q12-12 21 0l45 45q12 10 0 21l-242 242q-10 10-21 0l-45-45q-10-12 0-21l55-55z m51-332q0 14 9 22t22 9 22-9 9-22-9-22-22-9-22 9-9 22z m62 141q0 33 22 56t56 22 56-22 22-56-22-56-56-22-56 22-22 56z m31 0q0-20 14-33t33-14 33 14 14 33-14 33-33 14-33-14-14-33z m375 500q0 33 22 56t56 22 56-22 22-56-22-56-56-22-56 22-22 56z m31-172q0 14 9 22t22 9 22-9 9-22-9-22-22-9-22 9-9 22z m0 172q0-20 14-33t33-14 33 14 14 33-14 33-33 14-33-14-14-33z" horiz-adv-x="1000" />
<glyph glyph-name="truck" unicode="&#xe02e;" d="M0 319v344q0 39 27 66t66 27h469q39 0 66-27t27-66v-62h125q51 0 78-41l125-187q16-23 16-53v-187q0-39-27-66t-66-27h-35q-12-41-45-67t-76-26-76 26-45 67h-164q-12-41-45-67t-76-26-76 26-45 67h-35q-39 0-66 27t-27 66v94q-39 0-66 27t-27 66z m62 0q0-14 9-22t22-9h469q14 0 22 9t9 22v344q0 14-9 22t-22 9h-469q-14 0-22-9t-9-22v-344z m94-187q0-14 9-22t22-9h35q12 41 45 67t76 26 76-26 45-67h164q12 41 45 67t76 26 76-26 45-67h35q14 0 22 9t9 22v187q0 10-6 18l-125 187q-8 14-25 14h-125v-219q0-39-27-66t-66-27h-406v-94z m125-62q0-25 19-44t44-19 44 19 19 44-19 44-44 19-44-19-19-44z m406 0q0-25 19-44t44-19 44 19 19 44-19 44-44 19-44-19-19-44z m0 219v187q0 14 9 22t22 9h31q18 0 25-14l94-141q6-8 6-18v-47q0-14-9-22t-22-9h-125q-14 0-22 9t-9 22z m31 0h125v47l-94 141h-31v-187z" horiz-adv-x="1000" />
<glyph glyph-name="money" unicode="&#xe020;" d="M3 243q31 98 107 174 59 61 203 145 129 74 178 123 55 55 74 121 6 16 16 27 14 12 29 16 35 8 61-16l312-312q25-27 16-62-31-100-107-174-59-61-203-145-129-74-178-123-55-53-74-121-6-16-16-27-14-12-29-16-35-8-61 16l-312 312q-25 27-16 62z m61-18l99-99 115-115 99-99q25 78 84 140t128 102l139 80t129 102 83 140l-157 157-155 155q-23-78-83-140t-129-102l-139-80t-128-102-84-140z m273-199l21 29q21 27 47 53 21 23 55 49 12 10 21 0 12-12 0-23h-2q-31-25-53-47-23-23-43-49l-20-27q-2-2-2-4-12-12-23 0-8 10-2 20z m27 359q2 18 10 33 8 18 20 31 0 2-6 6-4 2-4 7t4 10 9 5 7-4q4-4 8-6 8 8 21 16t27 12 29 1 24-15q8-8 8-18t-8-16q-6-6-16-4-6 2-18 4-10 4-21 3t-22-11q20-20 51-57 14 8 31 14 16 6 31 8t31-3 31-17q14-12 20-25 4-14 2-29 0-16-10-33-8-20-21-37 8-6 16-14 4-2 5-7t-3-9-9-5-9 3q-10 8-16 16-18-18-35-23-16-6-33-6-16 2-28 8t-21 15-8 18 8 16 14 7 13-3 13-8 14-7 17 0 21 12q-21 21-57 62-31-18-64-20-29-2-51 16-14 12-20 25t-4 29z m42 11q-1-7 1-14t8-11q10-10 22-9t32 11q-29 31-49 51-6-8-10-15t-5-14z m112 144q-10 10 0 21 2 2 4 2 31 25 53 47 23 23 43 49l20 27q2 4 4 4 12 12 21 0 10-10 2-21l-21-29q-21-27-47-53-21-23-55-49-12-10-23 2z m4-195q31-35 53-57 6 6 10 14t6 16 0 15-9 14-15 9-16 1-16-5q-4-2-14-6z" horiz-adv-x="1001" />
<glyph glyph-name="food" unicode="&#xe026;" d="M0 116q0 33 22 56t56 22h84q21 121 117 201t221 80q102 0 186-55t127-145l143 70q12 6 23 2t18-16 2-23-16-18l-150-76q4-12 6-21h84q33 0 56-22t22-56q0-23-16-41l-109-123v-23q0-33-22-56t-56-22h-594q-33 0-56 22t-22 56v23l-109 123q-16 18-16 41z m62 0l125-141v-47q0-16 16-16h594q16 0 16 16v47l125 141q0 16-16 16h-844q-16 0-16-16z m131 78h33q21 96 98 157t176 62q84 0 153-46t103-120l27 16q-37 82-113 132t-170 50q-111 0-198-71t-108-179z m55 291q-16 39 16 113 25 61 14 90h-2v6q0 16 16 16 10 0 14-10 18-41-14-113-25-62-12-92v-4q0-16-16-16-10 0-14 8v2h-2z m10-291h33q20 68 77 112t132 44q66 0 120-36t79-95l29 14q-31 66-93 107t-136 41q-86 0-153-53t-89-135z m66 0h33q18 43 57 68t86 25 86-25 57-68h6l23 12q-21 51-68 82t-104 31q-61 0-108-35t-67-90z m68 0h37q29 31 70 31t68-31h39q-37 62-107 62t-107-62z m76 430v2q-16 39 14 113 27 61 14 90v6q0 16 14 16 12 0 16-10 18-41-14-113-25-62-14-92 2-2 2-4 0-16-16-16-10 0-16 8z m160-135v2q-16 39 16 111 25 62 12 90v6q0 16 16 16 10 0 14-10 18-39-14-113-25-61-14-90v-2q2-2 2-4 0-16-16-16-10 0-14 10h-2z m160-295h18q0 2-1 4t-1 4z" horiz-adv-x="1000" />
<glyph glyph-name="shop" unicode="&#xe02a;" d="M0 412v31q0 31 20 57l94 125q4 6 12 14v148q0 25 19 44t44 19h625q25 0 44-19t19-44v-148q8-8 12-14l94-125q20-25 20-57v-31q0-39-27-66t-66-27v-406q0-25-19-44t-44-19h-687q-25 0-44 19t-19 44v406q-39 0-66 27t-27 66z m62 0q0-14 9-22t22-9h59l125 219h-90q-16 0-25-12l-94-125q-6-10-6-20v-31z m94-500h203v312q0 14 9 22t22 9h234q14 0 22-9t9-22v-312h187v406h-687v-406z m31 469h131l62 219h-68z m0 281h625v125h-625v-125z m164-281h133v219h-70z m39-469h234v312h-234v-312z m125 469h133l-62 219h-70v-219z m104 219l62-219h131l-125 219h-68z m104 0l125-219h59q14 0 22 9t9 22v31q0 10-6 20l-94 125q-10 12-25 12h-90z" horiz-adv-x="1000" />
<glyph glyph-name="diamond" unicode="&#xe010;" d="M0 502q0 27 18 45l160 158q18 20 43 20h559q25 0 43-20l160-158q18-18 18-43 0-23-16-43l-437-465q-20-21-47-21t-47 21l-437 465q-16 18-16 41z m62 4h135l84 84-72 61z m27-31l307-328-195 328h-111z m146 0l230-383-76 383h-154z m4 31h143l-78 64z m2 156l61-51 51 51h-111z m84-70l80-66 70 59-86 70z m96-117l78-389 78 389h-156z m8 31h141l-70 57z m0 156l70-59 68 59h-139z m96-78l68-59 80 66-64 62z m8-492l230 383h-154z m70 55l307 328h-111z m14 359h143l-64 64z m29 156l51-51 61 51h-111z m72-72l84-84h133l-145 145z" horiz-adv-x="1000" />
<glyph glyph-name="t-shirt" unicode="&#xe027;" d="M4 580q-14 41 20 68l156 125q18 14 39 14h562q21 0 39-14l156-125q33-27 20-68l-62-187q-10-29-39-39-10-4-20-4-18 0-31 8v-383q0-25-19-44t-44-19h-562q-25 0-44 19t-19 44v383q-14-8-31-8-10 0-20 4-29 10-39 39z m59 20l62-187 94 62v-500h562v500l94-62 62 187-156 125h-131q-14-41-55-67t-96-26-96 26-55 67h-131z m320 125q14-27 45-45t72-18 72 18 45 45h-234z" horiz-adv-x="1000" />
<glyph glyph-name="wallet" unicode="&#xe02c;" d="M0 22v625q0 70 51 121t121 51h641q39 0 66-27t27-66v-281q94-70 94-187t-94-187v-47q0-70-51-121t-121-51h-562q-70 0-121 51t-51 121z m62 0q0-45 32-77t77-32h562q45 0 77 32t32 77v47h-281q-64 0-110 46t-46 110 46 110 110 46h281v62q0 14-9 22t-22 9h-641q-62 0-109 39v-492z m0 625q0-45 31-76v123q0 14 9 22t22 9h656q14 0 22-9t9-22v-156q16 0 31-6v193q0 14-9 22t-22 9h-641q-45 0-77-32t-32-77z m62-98q23-12 47-12h609v31h-656v-20z m0 51h656v31h-656v-31z m0 62h656v31h-656v-31z m344-437q0-39 27-66t66-27h320q55 51 55 125 0 59-35 104v-2q-4-8-8-14-20-25-51-25h-281q-39 0-66-27t-27-66z m31 0q0 25 19 44t44 19 44-19 19-44-19-44-44-19-44 19-19 44z" horiz-adv-x="1000" />
</font>
</defs>
</svg>
