<?xml version="1.0" encoding="utf-8"?>
<!-- Generator: Adobe Illustrator 22.1.0, SVG Export Plug-In . SVG Version: 6.00 Build 0)  -->
<svg version="1.1" id="cloudcorelogosvg" xmlns="http://www.w3.org/2000/svg" xmlns:xlink="http://www.w3.org/1999/xlink" x="0px" y="0px"
	 viewBox="0 0 1024 639.7" style="fill:#fff;enable-background:new 0 0 1024 639.7;" xml:space="preserve">
<g>
<path d="M369,98.6L139.4,98.6L129.2,139.8L358.7,139.8Z" style="fill: #61BC46" class="ieYJCQir_0"></path>
<path d="M321.9,292.5L335.5,236.7L289.4,236.7L284,259.5L208.2,284.4L227.2,206.9L342.5,206.9L353.9,160.4L124.3,160.4
92.3,291.9L196.3,333.6Z" style="fill: #61BC46" class="ieYJCQir_1"></path>
<path d="M595.3,160.3c-0.5,0.4-1.3,0.8-2.3,1l2.5,9.9c9.2-0.4,17.9-0.8,26.2-1.3c-9.9,10.3-22.1,18.1-36.4,23.1l6.7,10.2
c24.9-9.3,43.8-26.7,56.7-52.4l-9.9-5.3c-2.6,4.9-5.4,9.6-8.5,14.1c-7,0.6-13.9,1.2-20.9,1.4c4.8-5,10.3-13,16.7-24h35.4v-11.2
h-28.1c-1.5-4.9-3.2-9.4-5-13.3l-12.5,2.1c2.1,3.4,3.9,7.1,5.6,11.2h-30.6v11.2h22.7C605.9,149.6,600,157.3,595.3,160.3z" class="ieYJCQir_2"></path>
<path width="92.7" height="11.9" d="M426.6 119.2 L519.3000000000001 119.2 L519.3000000000001 131.1 L426.6 131.1 Z" class="ieYJCQir_3"></path>
<path d="M424.9,214.4c-0.6,0.4-1.7,0.8-3,1.2l3.2,12.5c30.5-2.1,58.6-4.9,84.6-8.5c2.3,4.4,4.4,8.8,6.5,13.2l11-7.6
c-6.5-12.9-15.5-28.1-27.2-45.6l-9.8,6.1c4.9,7.7,9.4,15.4,13.6,22.7c-20.9,3-42.1,5.2-63.3,6.5c8.4-9.6,18.1-25.4,29.2-47.6h61.2
v-12.3H414.2v12.3h41.7C443.2,192.7,432.8,208.5,424.9,214.4z" class="ieYJCQir_4"></path>
<path d="M828.3,163.5c-5.8,10.6-10.7,18.1-14.6,22.5c-1.4,1.4-3.2,2.6-5.4,3.5l3.2,11c12.1-1.7,25.1-4.9,38.7-9.8v-11
c-8.3,3-16.4,5.4-24.4,7.2c6.5-8.7,14.5-22.3,24-40.9l6.8,9.2c3.6-3,7-6.2,10.2-9.8c3,4.8,6.5,9.3,10.6,13.4
c-8.5,5.8-18.9,10.8-30.7,15.1l7.5,9.9c12.4-4.8,23.1-10.5,32.2-17c9,7.1,20,12.7,32.8,16.5l6.8-10.1c-11.6-3.4-21.8-8-30.6-13.9
c8.4-7.9,14.7-16.9,19-27v-8.9h-33.8c1-2.8,2.1-5.7,3-8.5l-11.6-2.2c-3.7,12.5-10.8,23.2-21.4,32c0.3-0.6,0.5-1.3,0.9-1.8
l-10.6-3.9c-2.3,4.6-4.5,9.2-6.7,13.6c-4.4,0.8-8.8,1.3-13.2,1.8c6.2-9.6,12.4-22.2,18.5-37.8l-11.5-4.4
c-4.6,14.2-9.9,27-16.1,38.6c-1.5,2.2-3.2,3.7-5.2,4.5l3.1,11.1C816.2,165.3,822.4,164.4,828.3,163.5z M875.1,134.2h26.1
c-3.7,6.5-8.7,12.3-14.8,17.7c-4.9-4.4-9.2-9.6-12.8-15.4L875.1,134.2z" class="ieYJCQir_5"></path>
<path d="M902.7,230.8h11.8v-48.7h-54.9v48.7h11.8V226h31.4V230.8z M871.3,214.9v-21.7h31.4v21.7H871.3z" class="ieYJCQir_6"></path>
<path d="M852.7,204.3c-12.8,4.6-27.6,8.3-44.5,11.1l1.4,12c16.3-3,30.6-6.8,43.1-11.6V204.3z" class="ieYJCQir_7"></path>
<path d="M640,199.6c8-8.5,15-18.5,20.9-29.6l-10.2-5.3c-15,27.9-37.3,46.6-67.3,56.4l6.7,10.5c16-5.7,30.1-13.8,42.2-24.5
c8.9,8.7,16,16.9,21.3,24.7l9-9C656.4,214.9,648.8,207.3,640,199.6z" class="ieYJCQir_8"></path>
<path d="M703.6,216.7c5.9-8.5,11.1-18.6,15.5-30.2c3.5,4.9,6.8,10.1,10.2,15.5l8.1-8c-4.9-7.5-9.6-14.3-13.9-20.5
c3.1-10.7,5.6-22.6,7.5-35.5l-11.2-1.9c-1.3,9.2-3,17.8-4.9,26c-4.9-6.2-9.3-11.5-13.4-15.9l-7.5,7.4c5.9,7,11.6,14.1,17,21.6
c-4.1,12.3-9.2,23-15.2,32.2L703.6,216.7z" class="ieYJCQir_9"></path>
<path d="M693.7,128.9h81.1v86.3c0,3-1.7,4.5-4.8,4.5l-12.1-0.5l3.2,11.9h12.9c8.5,0,12.9-4.4,12.9-13.2V117.2H681.6v114.7h12.1
V128.9z" class="ieYJCQir_10"></path>
<path d="M548,202.9c5.7-9.3,10.3-19.6,14.1-30.7v59.7h11.8v-62.5c3.1,5,6.8,11.4,11.1,18.9l6.8-10.5c-6.1-8.1-12-15.5-17.9-22.1v-7
h14.2v-11.8h-14.2v-24.1h-11.8v24.1h-16.8v11.8h16.1c-3.9,15.5-9.9,29.4-18.5,41.6L548,202.9z" class="ieYJCQir_11"></path>
<path d="M757.5,136.4c-1.5,9.8-3.5,19.2-5.8,28c-4.6-6.6-9-12.1-13.2-16.8l-7.6,7.2c5.7,7.2,11.2,14.8,16.7,22.9
c-4.5,12.4-10.1,23.2-16.8,32.7l7.7,9.4c6.5-8.5,12-18.6,16.8-30.2c3.7,5.9,7.5,12.1,11.1,18.6l8.3-8.1
c-5.2-8.5-10.1-16.3-14.7-23.4c3.6-11.5,6.6-24.3,8.9-38.4L757.5,136.4z" class="ieYJCQir_12"></path>
<path width="9.8" height="67.1" d="M486.5 252.8 L496.3 252.8 L496.3 319.9 L486.5 319.9 Z" class="ieYJCQir_13"></path>
<path d="M854.2,294.7c0-4.2,1.2-7.6,3.7-10.1c2.3-2.4,5-3.6,7.9-3.6c2.2,0,4.5,0.3,6.9,1v-9.8c-1.7-0.8-3.8-1.2-6.2-1.2
c-3,0-5.5,0.8-7.7,2.7c-1.8,1.3-3.4,3.2-4.6,5.8v-7.2h-9.8V320h9.8V294.7z" class="ieYJCQir_14"></path>
<path d="M791.1,314c4.4,4.8,10.2,7.3,17.4,7.3s13-2.5,17.4-7.3c4.2-4.6,6.4-10.6,6.4-17.8c0-7.3-2.2-13.3-6.5-18
c-4.3-4.8-10.1-7.2-17.3-7.2s-13,2.4-17.3,7.2c-4.3,4.7-6.5,10.7-6.5,18C784.7,303.4,786.9,309.4,791.1,314z M798,284.4
c2.5-3.6,6-5.3,10.5-5.3c4.5,0,8,1.8,10.6,5.3c2.2,3,3.3,7,3.3,11.8c0,4.7-1.1,8.6-3.3,11.7c-2.6,3.5-6.1,5.3-10.6,5.3
c-4.5,0-8-1.8-10.5-5.3c-2.2-3-3.2-6.9-3.2-11.7C794.8,291.4,795.8,287.4,798,284.4z" class="ieYJCQir_15"></path>
<path d="M919.5,278.9c-4.1-5.3-10.1-7.9-17.8-7.9c-7,0-12.6,2.4-16.7,7.3c-4.2,4.8-6.3,10.7-6.3,17.8c0,7.8,2.2,14,6.6,18.6
c4.1,4.3,9.7,6.5,16.7,6.5c6.4,0,11.6-1.8,15.8-5.4c3.3-3,5.4-6.7,6.5-11.2h-9.8c-1.3,2.8-2.7,4.9-4.3,6.2
c-2.1,1.6-4.9,2.4-8.3,2.4c-3.9,0-6.9-1.3-9.1-3.7c-2.2-2.5-3.4-6.1-3.8-10.7h36.2C925.1,290.4,923.2,283.7,919.5,278.9z
M889.2,291.5c0.6-4.1,1.9-7.1,4-9.2c2.2-2.2,5.1-3.2,8.8-3.2c7.7,0,12.1,4.2,13,12.5H889.2z" class="ieYJCQir_16"></path>
<path d="M611.1,320v-47.7h-9.8v29.1c-0.8,3.5-2.4,6.4-4.6,8.5c-2.2,2-4.5,3.1-7.1,3.1c-3.8,0-6.5-1-8.2-2.9
c-1.8-1.8-2.6-4.8-2.6-8.9v-29.1H569V302c0,12.8,5.7,19.3,17.2,19.3c6,0,11-2.6,15-7.7v6.5H611.1z" class="ieYJCQir_17"></path>
<path d="M669.1,320v-67.1h-9.8v26.6c-3.9-5.6-8.8-8.4-14.6-8.4c-6.8,0-12.3,2.5-16.1,7.5c-3.7,4.6-5.4,10.4-5.4,17.4
c0,7.3,1.8,13.3,5.5,17.9c4,5,9.5,7.5,16.5,7.5c6.5,0,11.4-2.4,14.8-7v5.7H669.1z M659.6,296.6c0,4.8-1,8.7-3,11.7
c-2.4,3.3-5.6,5.1-9.9,5.1c-4.8,0-8.4-1.8-10.6-5.2c-1.9-3-2.9-7-2.9-12.3s1-9.3,3-12.1c2.3-3.3,5.9-4.9,10.7-4.9
c3.6,0,6.5,1.4,8.9,4.3c2.4,3.1,3.7,7.3,3.7,12.5V296.6z" class="ieYJCQir_18"></path>
<path d="M444.8,321.3c7.1,0,13.2-2,18.3-6.1c5.4-4.3,8.9-10.3,10.3-18h-9.8c-1.3,5.2-3.6,9-6.9,11.6c-3.1,2.4-7.2,3.6-12,3.6
c-7.4,0-12.8-2.3-16.3-6.9c-3.3-4.3-5-10.4-5-18.4c0-7.7,1.7-13.7,5.1-18.2c3.6-4.9,8.9-7.3,16-7.3c4.8,0,8.7,1,11.8,3.1
c3.1,2.1,5.3,5.4,6.4,9.9h9.8c-1-6.6-4-12-8.8-15.9c-5-4.1-11.3-6-19-6c-10.5,0-18.4,3.4-24,10.4c-5,6.2-7.4,14.1-7.4,23.9
c0,10,2.3,17.9,7.1,23.8C425.9,317.8,434,321.3,444.8,321.3z" class="ieYJCQir_19"></path>
<path d="M746,321.3c7.1,0,13.2-2,18.3-6.1c5.4-4.3,8.9-10.3,10.3-18h-9.8c-1.3,5.2-3.6,9-6.9,11.6c-3.1,2.4-7.2,3.6-12,3.6
c-7.4,0-12.8-2.3-16.3-6.9c-3.3-4.3-5-10.4-5-18.4c0-7.7,1.7-13.7,5.1-18.2c3.6-4.9,8.9-7.3,16-7.3c4.8,0,8.7,1,11.8,3.1
c3.1,2.1,5.3,5.4,6.4,9.9h9.8c-1-6.6-4-12-8.8-15.9c-5-4.1-11.3-6-19-6c-10.5,0-18.4,3.4-24,10.4c-5,6.2-7.4,14.1-7.4,23.9
c0,10,2.3,17.9,7.1,23.8C727.1,317.8,735.2,321.3,746,321.3z" class="ieYJCQir_20"></path>
<path d="M509.3,296.2c0,7.2,2.1,13.2,6.4,17.8c4.4,4.8,10.2,7.3,17.4,7.3c7.2,0,13-2.5,17.4-7.3c4.2-4.6,6.4-10.6,6.4-17.8
c0-7.3-2.2-13.3-6.5-18c-4.3-4.8-10.1-7.2-17.3-7.2c-7.2,0-13,2.4-17.3,7.2C511.4,282.9,509.3,288.9,509.3,296.2z M522.6,284.4
c2.5-3.6,6-5.3,10.5-5.3c4.5,0,8,1.8,10.6,5.3c2.2,3,3.3,7,3.3,11.8c0,4.7-1.1,8.6-3.3,11.7c-2.6,3.5-6.1,5.3-10.6,5.3
c-4.5,0-8-1.8-10.5-5.3c-2.2-3-3.2-6.9-3.2-11.7C519.4,291.4,520.4,287.4,522.6,284.4z" class="ieYJCQir_21"></path>
<path d="M845.7,435.3c3,3.9,6.1,7.9,9,12.4c-14.7,1.4-29.8,2.4-45.5,3c7.7-7,15.3-15.7,22.8-26l-9.1-3.1
c-12.4,18.1-22,27.9-29.1,29.5l1.7,8.3c23.6-0.9,45.1-2.2,64.4-3.9c2.1,3.4,4.2,7,6.5,10.9l8.6-4.2c-6.7-11.2-13.8-21.3-21.3-30.5
L845.7,435.3z" class="ieYJCQir_22"></path>
<path d="M801.5,507h8.9v-3.8h45.4v3.8h8.9v-39.2h-63.1V507z M810.4,476.2h45.4v18.6h-45.4V476.2z" class="ieYJCQir_23"></path>
<path d="M672.5,433.9L706.1,433.9L706.1,425.3L631,425.3L631,433.9L663.6,433.9L663.6,466.6L627.3,466.6L627.3,474.9
663.6,474.9L663.6,506.9L672.5,506.9L672.5,474.9L709.6,474.9L709.6,466.6L672.5,466.6Z" class="ieYJCQir_24"></path>
<path d="M643.9,438.2l-8.2,4c3.4,6.1,6.6,13,9.7,20.8l8.2-4.1C650.4,451.3,647.2,444.5,643.9,438.2z" class="ieYJCQir_25"></path>
<path d="M691.3,462.5c4.2-6.8,7.7-13.7,10.4-20.8l-8-3.8c-2.6,6.7-6,13.6-10.3,20.6L691.3,462.5z" class="ieYJCQir_26"></path>
<path d="M516.3,449.1L508.2,449.1L508.2,468.3L488.9,468.3L488.9,476.4L508.2,476.4L508.2,495.7L516.3,495.7L516.3,476.4
535.5,476.4L535.5,468.3L516.3,468.3Z" class="ieYJCQir_27" style="fill: #61BC46"></path>
<path width="10" height="65.9" d="M359.8 431.6 L369.8 431.6 L369.8 497.5 L359.8 497.5 Z" class="ieYJCQir_28"></path>
<path d="M209.9,431.6l-25.4,65.9h10.7l6.2-17h28.3l6.2,17h10.8l-25.4-65.9H209.9z M204.5,472.2l11-29.8h0.4l10.9,29.8H204.5z" class="ieYJCQir_29"></path>
<path d="M922.4,393.8H101.6c-20.4,0-36.9,16.5-36.9,36.9v73.8c0,20.4,16.5,36.9,36.9,36.9h820.9c20.4,0,36.9-16.5,36.9-36.9v-73.8
C959.3,410.3,942.8,393.8,922.4,393.8z M950.1,504.5c0,15.3-12.4,27.7-27.7,27.7H101.6c-15.3,0-27.7-12.4-27.7-27.7v-73.8
c0-15.3,12.4-27.7,27.7-27.7h820.9c15.3,0,27.7,12.4,27.7,27.7V504.5z" class="ieYJCQir_30"></path>
</g>
</svg>
