<svg xmlns="http://www.w3.org/2000/svg" width="517" height="323" viewBox="0 0 517 323">
  <g id="组_26" data-name="组 26" transform="translate(-967 -5262)">
    <text id="荣誉资质" transform="translate(967 5283)" fill="#0a3d6c" font-size="20" font-family="PingFang SC Bold, PingFang SC"><tspan x="0" y="0">高程走势 </tspan><tspan y="0" fill="#666" font-family="PingFang SC Medium, PingFang SC">(m)</tspan></text>
    <text id="荣誉资质-2" data-name="荣誉资质" transform="translate(1228 5283)" fill="#666" font-size="18" font-family="PingFang SC Medium, PingFang SC"><tspan x="0" y="0">预警线</tspan></text>
    <text id="荣誉资质-3" data-name="荣誉资质" transform="translate(1011 5580)" fill="#0a3d6c" font-size="14" font-family="PingFang SC Medium, PingFang SC"><tspan x="0" y="0">18-08-12</tspan></text>
    <text id="荣誉资质-4" data-name="荣誉资质" transform="translate(967 5560)" fill="#0c406e" font-size="14" font-family="PingFang SC Medium, PingFang SC"><tspan x="0" y="0">1140</tspan></text>
    <text id="荣誉资质-5" data-name="荣誉资质" transform="translate(967 5534)" fill="#0c406e" font-size="14" font-family="PingFang SC Medium, PingFang SC"><tspan x="0" y="0">1160</tspan></text>
    <text id="荣誉资质-6" data-name="荣誉资质" transform="translate(967 5509)" fill="#0c406e" font-size="14" font-family="PingFang SC Medium, PingFang SC"><tspan x="0" y="0">1180</tspan></text>
    <text id="荣誉资质-7" data-name="荣誉资质" transform="translate(967 5483)" fill="#0c406e" font-size="14" font-family="PingFang SC Medium, PingFang SC"><tspan x="0" y="0">1200</tspan></text>
    <text id="荣誉资质-8" data-name="荣誉资质" transform="translate(967 5458)" fill="#0c406e" font-size="14" font-family="PingFang SC Medium, PingFang SC"><tspan x="0" y="0">1220</tspan></text>
    <text id="荣誉资质-9" data-name="荣誉资质" transform="translate(967 5432)" fill="#0c406e" font-size="14" font-family="PingFang SC Medium, PingFang SC"><tspan x="0" y="0">1240</tspan></text>
    <text id="荣誉资质-10" data-name="荣誉资质" transform="translate(967 5407)" fill="#0c406e" font-size="14" font-family="PingFang SC Medium, PingFang SC"><tspan x="0" y="0">1260</tspan></text>
    <text id="荣誉资质-11" data-name="荣誉资质" transform="translate(967 5381)" fill="#0c406e" font-size="14" font-family="PingFang SC Medium, PingFang SC"><tspan x="0" y="0">1280</tspan></text>
    <text id="荣誉资质-12" data-name="荣誉资质" transform="translate(967 5356)" fill="#0c406e" font-size="14" font-family="PingFang SC Medium, PingFang SC"><tspan x="0" y="0">1300</tspan></text>
    <text id="荣誉资质-13" data-name="荣誉资质" transform="translate(967 5330)" fill="#0c406e" font-size="14" font-family="PingFang SC Medium, PingFang SC"><tspan x="0" y="0">1320</tspan></text>
    <text id="荣誉资质-14" data-name="荣誉资质" transform="translate(1092 5580)" fill="#0a3d6c" font-size="14" font-family="PingFang SC Medium, PingFang SC"><tspan x="0" y="0">18-09-11</tspan></text>
    <text id="荣誉资质-15" data-name="荣誉资质" transform="translate(1173 5580)" fill="#0a3d6c" font-size="14" font-family="PingFang SC Medium, PingFang SC"><tspan x="0" y="0">18-10-09</tspan></text>
    <text id="荣誉资质-16" data-name="荣誉资质" transform="translate(1254 5580)" fill="#0a3d6c" font-size="14" font-family="PingFang SC Medium, PingFang SC"><tspan x="0" y="0">18-11-10</tspan></text>
    <text id="荣誉资质-17" data-name="荣誉资质" transform="translate(1335 5580)" fill="#0a3d6c" font-size="14" font-family="PingFang SC Medium, PingFang SC"><tspan x="0" y="0">18-12-08</tspan></text>
    <text id="荣誉资质-18" data-name="荣誉资质" transform="translate(1416 5580)" fill="#0a3d6c" font-size="14" font-family="PingFang SC Medium, PingFang SC"><tspan x="0" y="0">19-01-09</tspan></text>
    <text id="荣誉资质-19" data-name="荣誉资质" transform="translate(1353 5283)" fill="#666" font-size="18" font-family="PingFang SC Medium, PingFang SC"><tspan x="0" y="0">超采线</tspan></text>
    <path id="路径_97" data-name="路径 97" d="M-1597.619,8405H-1147" transform="translate(2609 -2877.5)" fill="none" stroke="#d7dde5" stroke-width="2" stroke-dasharray="5 3"/>
    <path id="路径_98" data-name="路径 98" d="M-1597.619,8405H-1147" transform="translate(2609 -2903.5)" fill="none" stroke="#d7dde5" stroke-width="2" stroke-dasharray="5 3"/>
    <path id="路径_99" data-name="路径 99" d="M-1597.619,8405H-1147" transform="translate(2609 -2928.5)" fill="none" stroke="#d7dde5" stroke-width="2" stroke-dasharray="5 3"/>
    <path id="路径_100" data-name="路径 100" d="M-1597.619,8405H-1147" transform="translate(2609 -2954.5)" fill="none" stroke="#d7dde5" stroke-width="2" stroke-dasharray="5 3"/>
    <path id="路径_101" data-name="路径 101" d="M-1597.619,8405H-1147" transform="translate(2609 -2979.5)" fill="none" stroke="#d7dde5" stroke-width="2" stroke-dasharray="5 3"/>
    <path id="路径_102" data-name="路径 102" d="M-1597.619,8405H-1147" transform="translate(2609 -3004.5)" fill="none" stroke="#d7dde5" stroke-width="2" stroke-dasharray="5 3"/>
    <path id="路径_103" data-name="路径 103" d="M-1597.619,8405H-1147" transform="translate(2609 -3030.5)" fill="none" stroke="#d7dde5" stroke-width="2" stroke-dasharray="5 3"/>
    <path id="路径_104" data-name="路径 104" d="M-1597.619,8405H-1147" transform="translate(2609 -3055.5)" fill="none" stroke="#d7dde5" stroke-width="2" stroke-dasharray="5 3"/>
    <path id="路径_105" data-name="路径 105" d="M-1597.619,8405H-1147" transform="translate(2609 -3080.5)" fill="none" stroke="#d7dde5" stroke-width="2" stroke-dasharray="5 3"/>
    <path id="路径_106" data-name="路径 106" d="M-1597.618,8405h230.809" transform="translate(9449.5 6922.119) rotate(90)" fill="none" stroke="#d7dde5" stroke-width="2" stroke-dasharray="5 3"/>
    <path id="路径_107" data-name="路径 107" d="M-1597.618,8405h230.809" transform="translate(9531.5 6922.119) rotate(90)" fill="none" stroke="#d7dde5" stroke-width="2" stroke-dasharray="5 3"/>
    <path id="路径_108" data-name="路径 108" d="M-1597.618,8405h230.809" transform="translate(9613.5 6922.119) rotate(90)" fill="none" stroke="#d7dde5" stroke-width="2" stroke-dasharray="5 3"/>
    <path id="路径_109" data-name="路径 109" d="M-1597.618,8405h230.809" transform="translate(9695.5 6922.119) rotate(90)" fill="none" stroke="#d7dde5" stroke-width="2" stroke-dasharray="5 3"/>
    <path id="路径_110" data-name="路径 110" d="M-1597.618,8405h230.809" transform="translate(9777.5 6922.119) rotate(90)" fill="none" stroke="#d7dde5" stroke-width="2" stroke-dasharray="5 3"/>
    <path id="路径_111" data-name="路径 111" d="M-1597.618,8405h230.809" transform="translate(9859.5 6922.119) rotate(90)" fill="none" stroke="#d7dde5" stroke-width="2" stroke-dasharray="5 3"/>
    <path id="路径_96" data-name="路径 96" d="M-1609.468,8166.866v236.187h450.618" transform="translate(2620.85 -2847.867)" fill="none" stroke="#0a3d6c" stroke-width="3"/>
    <path id="路径_112" data-name="路径 112" d="M-1318.5,8114h37.434" transform="translate(2611 -2837.5)" fill="none" stroke="#0199ff" stroke-width="3" stroke-dasharray="7 3"/>
    <path id="路径_115" data-name="路径 115" d="M-1318.5,8114H-870" transform="translate(2332 -2612.5)" fill="none" stroke="#0199ff" stroke-width="3" stroke-dasharray="7 3"/>
    <path id="路径_113" data-name="路径 113" d="M-1318.5,8114h37.434" transform="translate(2736 -2837.5)" fill="none" stroke="#ff8d00" stroke-width="3" stroke-dasharray="7 3"/>
    <path id="路径_116" data-name="路径 116" d="M-1318.5,8114H-870" transform="translate(2332 -2586.5)" fill="none" stroke="#ff8d00" stroke-width="3" stroke-dasharray="7 3"/>
    <circle id="椭圆_23" data-name="椭圆 23" cx="7" cy="7" r="7" transform="translate(1037 5341)" fill="#1f4e79"/>
    <circle id="椭圆_24" data-name="椭圆 24" cx="7" cy="7" r="7" transform="translate(1120 5392)" fill="#1f4e79"/>
    <circle id="椭圆_25" data-name="椭圆 25" cx="7" cy="7" r="7" transform="translate(1202 5410)" fill="#1f4e79"/>
    <circle id="椭圆_26" data-name="椭圆 26" cx="7" cy="7" r="7" transform="translate(1283 5430)" fill="#1f4e79"/>
    <circle id="椭圆_27" data-name="椭圆 27" cx="7" cy="7" r="7" transform="translate(1366 5453)" fill="#1f4e79"/>
    <circle id="椭圆_28" data-name="椭圆 28" cx="7" cy="7" r="7" transform="translate(1448 5485)" fill="#1f4e79"/>
    <path id="路径_114" data-name="路径 114" d="M-1552,8171l82.18,50.882,82.84,16.568,81.065,21.894,82.622,22.07,82.145,33.128" transform="translate(2596 -2823)" fill="none" stroke="#1e4f7d" stroke-width="2" stroke-dasharray="5 2"/>
  </g>
</svg>
