<svg xmlns="http://www.w3.org/2000/svg" width="517" height="323" viewBox="0 0 517 323">
  <g id="面积走势" transform="translate(-1045 -8083)">
    <text id="荣誉资质" transform="translate(1045 8104)" fill="#0a3d6c" font-size="20" font-family="PingFang SC Bold, PingFang SC"><tspan x="0" y="0">面积走势 </tspan><tspan y="0" fill="#666" font-family="PingFang SC Medium, PingFang SC">(Km²)</tspan></text>
    <text id="荣誉资质-2" data-name="荣誉资质" transform="translate(1306 8104)" fill="#666" font-size="18" font-family="PingFang SC Medium, PingFang SC"><tspan x="0" y="0">预警线</tspan></text>
    <text id="荣誉资质-3" data-name="荣誉资质" transform="translate(1089 8401)" fill="#0a3d6c" font-size="14" font-family="PingFang SC Medium, PingFang SC"><tspan x="0" y="0">18-08-12</tspan></text>
    <text id="荣誉资质-4" data-name="荣誉资质" transform="translate(1079 8381)" fill="#0c406e" font-size="14" font-family="PingFang SC Medium, PingFang SC"><tspan x="-28.896" y="0">0.10</tspan></text>
    <text id="荣誉资质-5" data-name="荣誉资质" transform="translate(1079 8355)" fill="#0c406e" font-size="14" font-family="PingFang SC Medium, PingFang SC"><tspan x="-28.896" y="0">0.20</tspan></text>
    <text id="荣誉资质-6" data-name="荣誉资质" transform="translate(1079 8330)" fill="#0c406e" font-size="14" font-family="PingFang SC Medium, PingFang SC"><tspan x="-28.896" y="0">0.30</tspan></text>
    <text id="荣誉资质-7" data-name="荣誉资质" transform="translate(1079 8304)" fill="#0c406e" font-size="14" font-family="PingFang SC Medium, PingFang SC"><tspan x="-28.896" y="0">0.40</tspan></text>
    <text id="荣誉资质-8" data-name="荣誉资质" transform="translate(1079 8279)" fill="#0c406e" font-size="14" font-family="PingFang SC Medium, PingFang SC"><tspan x="-28.896" y="0">0.50</tspan></text>
    <text id="荣誉资质-9" data-name="荣誉资质" transform="translate(1079 8253)" fill="#0c406e" font-size="14" font-family="PingFang SC Medium, PingFang SC"><tspan x="-28.896" y="0">0.60</tspan></text>
    <text id="荣誉资质-10" data-name="荣誉资质" transform="translate(1079 8228)" fill="#0c406e" font-size="14" font-family="PingFang SC Medium, PingFang SC"><tspan x="-28.896" y="0">0.70</tspan></text>
    <text id="荣誉资质-11" data-name="荣誉资质" transform="translate(1079 8202)" fill="#0c406e" font-size="14" font-family="PingFang SC Medium, PingFang SC"><tspan x="-28.896" y="0">0.80</tspan></text>
    <text id="荣誉资质-12" data-name="荣誉资质" transform="translate(1079 8177)" fill="#0c406e" font-size="14" font-family="PingFang SC Medium, PingFang SC"><tspan x="-28.896" y="0">0.90</tspan></text>
    <text id="荣誉资质-13" data-name="荣誉资质" transform="translate(1079 8151)" fill="#0c406e" font-size="14" font-family="PingFang SC Medium, PingFang SC"><tspan x="-28.896" y="0">1.00</tspan></text>
    <text id="荣誉资质-14" data-name="荣誉资质" transform="translate(1170 8401)" fill="#0a3d6c" font-size="14" font-family="PingFang SC Medium, PingFang SC"><tspan x="0" y="0">18-09-11</tspan></text>
    <text id="荣誉资质-15" data-name="荣誉资质" transform="translate(1251 8401)" fill="#0a3d6c" font-size="14" font-family="PingFang SC Medium, PingFang SC"><tspan x="0" y="0">18-10-09</tspan></text>
    <text id="荣誉资质-16" data-name="荣誉资质" transform="translate(1332 8401)" fill="#0a3d6c" font-size="14" font-family="PingFang SC Medium, PingFang SC"><tspan x="0" y="0">18-11-10</tspan></text>
    <text id="荣誉资质-17" data-name="荣誉资质" transform="translate(1413 8401)" fill="#0a3d6c" font-size="14" font-family="PingFang SC Medium, PingFang SC"><tspan x="0" y="0">18-12-08</tspan></text>
    <text id="荣誉资质-18" data-name="荣誉资质" transform="translate(1494 8401)" fill="#0a3d6c" font-size="14" font-family="PingFang SC Medium, PingFang SC"><tspan x="0" y="0">19-01-09</tspan></text>
    <text id="荣誉资质-19" data-name="荣誉资质" transform="translate(1431 8104)" fill="#666" font-size="18" font-family="PingFang SC Medium, PingFang SC"><tspan x="0" y="0">超采线</tspan></text>
    <path id="路径_119" data-name="路径 119" d="M-1597.619,8405H-1147" transform="translate(2687 -56.5)" fill="none" stroke="#d7dde5" stroke-width="2" stroke-dasharray="5 3"/>
    <path id="路径_123" data-name="路径 123" d="M-1597.619,8405H-1147" transform="translate(2687 -82.5)" fill="none" stroke="#d7dde5" stroke-width="2" stroke-dasharray="5 3"/>
    <path id="路径_127" data-name="路径 127" d="M-1597.619,8405H-1147" transform="translate(2687 -107.5)" fill="none" stroke="#d7dde5" stroke-width="2" stroke-dasharray="5 3"/>
    <path id="路径_128" data-name="路径 128" d="M-1597.619,8405H-1147" transform="translate(2687 -133.5)" fill="none" stroke="#d7dde5" stroke-width="2" stroke-dasharray="5 3"/>
    <path id="路径_130" data-name="路径 130" d="M-1597.619,8405H-1147" transform="translate(2687 -158.5)" fill="none" stroke="#d7dde5" stroke-width="2" stroke-dasharray="5 3"/>
    <path id="路径_132" data-name="路径 132" d="M-1597.619,8405H-1147" transform="translate(2687 -183.5)" fill="none" stroke="#d7dde5" stroke-width="2" stroke-dasharray="5 3"/>
    <path id="路径_133" data-name="路径 133" d="M-1597.619,8405H-1147" transform="translate(2687 -209.5)" fill="none" stroke="#d7dde5" stroke-width="2" stroke-dasharray="5 3"/>
    <path id="路径_135" data-name="路径 135" d="M-1597.619,8405H-1147" transform="translate(2687 -234.5)" fill="none" stroke="#d7dde5" stroke-width="2" stroke-dasharray="5 3"/>
    <path id="路径_137" data-name="路径 137" d="M-1597.619,8405H-1147" transform="translate(2687 -259.5)" fill="none" stroke="#d7dde5" stroke-width="2" stroke-dasharray="5 3"/>
    <path id="路径_136" data-name="路径 136" d="M-1597.618,8405h230.809" transform="translate(9527.5 9743.119) rotate(90)" fill="none" stroke="#d7dde5" stroke-width="2" stroke-dasharray="5 3"/>
    <path id="路径_134" data-name="路径 134" d="M-1597.618,8405h230.809" transform="translate(9609.5 9743.119) rotate(90)" fill="none" stroke="#d7dde5" stroke-width="2" stroke-dasharray="5 3"/>
    <path id="路径_131" data-name="路径 131" d="M-1597.618,8405h230.809" transform="translate(9691.5 9743.119) rotate(90)" fill="none" stroke="#d7dde5" stroke-width="2" stroke-dasharray="5 3"/>
    <path id="路径_129" data-name="路径 129" d="M-1597.618,8405h230.809" transform="translate(9773.5 9743.119) rotate(90)" fill="none" stroke="#d7dde5" stroke-width="2" stroke-dasharray="5 3"/>
    <path id="路径_124" data-name="路径 124" d="M-1597.618,8405h230.809" transform="translate(9855.5 9743.119) rotate(90)" fill="none" stroke="#d7dde5" stroke-width="2" stroke-dasharray="5 3"/>
    <path id="路径_120" data-name="路径 120" d="M-1597.618,8405h230.809" transform="translate(9937.5 9743.119) rotate(90)" fill="none" stroke="#d7dde5" stroke-width="2" stroke-dasharray="5 3"/>
    <path id="路径_121" data-name="路径 121" d="M-1609.468,8166.866v236.187h450.618" transform="translate(2698.85 -26.867)" fill="none" stroke="#0a3d6c" stroke-width="3"/>
    <path id="路径_138" data-name="路径 138" d="M-1318.5,8114h37.434" transform="translate(2689 -16.5)" fill="none" stroke="#0199ff" stroke-width="3" stroke-dasharray="7 3"/>
    <path id="路径_125" data-name="路径 125" d="M-1318.5,8114H-870" transform="translate(2410 119.5)" fill="none" stroke="#0199ff" stroke-width="3" stroke-dasharray="7 3"/>
    <path id="路径_139" data-name="路径 139" d="M-1318.5,8114h37.434" transform="translate(2814 -16.5)" fill="none" stroke="#ff8d00" stroke-width="3" stroke-dasharray="7 3"/>
    <path id="路径_122" data-name="路径 122" d="M-1318.5,8114H-870" transform="translate(2410 86.5)" fill="none" stroke="#ff8d00" stroke-width="3" stroke-dasharray="7 3"/>
    <circle id="椭圆_36" data-name="椭圆 36" cx="7" cy="7" r="7" transform="translate(1115 8328)" fill="#1f4e79"/>
    <circle id="椭圆_35" data-name="椭圆 35" cx="7" cy="7" r="7" transform="translate(1198 8291)" fill="#1f4e79"/>
    <circle id="椭圆_34" data-name="椭圆 34" cx="7" cy="7" r="7" transform="translate(1280 8272)" fill="#1f4e79"/>
    <circle id="椭圆_33" data-name="椭圆 33" cx="7" cy="7" r="7" transform="translate(1361 8235)" fill="#1f4e79"/>
    <circle id="椭圆_32" data-name="椭圆 32" cx="7" cy="7" r="7" transform="translate(1444 8187)" fill="#1f4e79"/>
    <circle id="椭圆_31" data-name="椭圆 31" cx="7" cy="7" r="7" transform="translate(1526 8172)" fill="#1f4e79"/>
    <path id="路径_126" data-name="路径 126" d="M-1551.671,8339.531l81.565-39.7,83.2-17.422,80.477-38.585,83.2-47.308,82.108-15.226" transform="translate(2674 -2)" fill="none" stroke="#1e4f7d" stroke-width="2" stroke-dasharray="5 2"/>
  </g>
</svg>
