<svg xmlns="http://www.w3.org/2000/svg" width="517" height="323" viewBox="0 0 517 323">
  <g id="挖方量走势" transform="translate(-1673 -8083)">
    <text id="荣誉资质" transform="translate(1673 8104)" fill="#0a3d6c" font-size="20" font-family="PingFang SC Bold, PingFang SC"><tspan x="0" y="0">挖方量走势 </tspan><tspan y="0" fill="#666" font-family="PingFang SC Medium, PingFang SC">(万m³)</tspan></text>
    <text id="荣誉资质-2" data-name="荣誉资质" transform="translate(1934 8104)" fill="#666" font-size="18" font-family="PingFang SC Medium, PingFang SC"><tspan x="0" y="0">预警线</tspan></text>
    <text id="荣誉资质-3" data-name="荣誉资质" transform="translate(1717 8401)" fill="#0a3d6c" font-size="14" font-family="PingFang SC Medium, PingFang SC"><tspan x="0" y="0">18-08-12</tspan></text>
    <text id="荣誉资质-4" data-name="荣誉资质" transform="translate(1707 8381)" fill="#0c406e" font-size="14" font-family="PingFang SC Medium, PingFang SC"><tspan x="-16.8" y="0">10</tspan></text>
    <text id="荣誉资质-5" data-name="荣誉资质" transform="translate(1707 8355)" fill="#0c406e" font-size="14" font-family="PingFang SC Medium, PingFang SC"><tspan x="-16.8" y="0">20</tspan></text>
    <text id="荣誉资质-6" data-name="荣誉资质" transform="translate(1707 8330)" fill="#0c406e" font-size="14" font-family="PingFang SC Medium, PingFang SC"><tspan x="-16.8" y="0">30</tspan></text>
    <text id="荣誉资质-7" data-name="荣誉资质" transform="translate(1707 8304)" fill="#0c406e" font-size="14" font-family="PingFang SC Medium, PingFang SC"><tspan x="-16.8" y="0">40</tspan></text>
    <text id="荣誉资质-8" data-name="荣誉资质" transform="translate(1707 8279)" fill="#0c406e" font-size="14" font-family="PingFang SC Medium, PingFang SC"><tspan x="-16.8" y="0">50</tspan></text>
    <text id="荣誉资质-9" data-name="荣誉资质" transform="translate(1707 8253)" fill="#0c406e" font-size="14" font-family="PingFang SC Medium, PingFang SC"><tspan x="-16.8" y="0">60</tspan></text>
    <text id="荣誉资质-10" data-name="荣誉资质" transform="translate(1707 8228)" fill="#0c406e" font-size="14" font-family="PingFang SC Medium, PingFang SC"><tspan x="-16.8" y="0">70</tspan></text>
    <text id="荣誉资质-11" data-name="荣誉资质" transform="translate(1707 8202)" fill="#0c406e" font-size="14" font-family="PingFang SC Medium, PingFang SC"><tspan x="-16.8" y="0">80</tspan></text>
    <text id="荣誉资质-12" data-name="荣誉资质" transform="translate(1707 8177)" fill="#0c406e" font-size="14" font-family="PingFang SC Medium, PingFang SC"><tspan x="-16.8" y="0">90</tspan></text>
    <text id="荣誉资质-13" data-name="荣誉资质" transform="translate(1707 8151)" fill="#0c406e" font-size="14" font-family="PingFang SC Medium, PingFang SC"><tspan x="-25.2" y="0">100</tspan></text>
    <text id="荣誉资质-14" data-name="荣誉资质" transform="translate(1798 8401)" fill="#0a3d6c" font-size="14" font-family="PingFang SC Medium, PingFang SC"><tspan x="0" y="0">18-09-11</tspan></text>
    <text id="荣誉资质-15" data-name="荣誉资质" transform="translate(1879 8401)" fill="#0a3d6c" font-size="14" font-family="PingFang SC Medium, PingFang SC"><tspan x="0" y="0">18-10-09</tspan></text>
    <text id="荣誉资质-16" data-name="荣誉资质" transform="translate(1960 8401)" fill="#0a3d6c" font-size="14" font-family="PingFang SC Medium, PingFang SC"><tspan x="0" y="0">18-11-10</tspan></text>
    <text id="荣誉资质-17" data-name="荣誉资质" transform="translate(2041 8401)" fill="#0a3d6c" font-size="14" font-family="PingFang SC Medium, PingFang SC"><tspan x="0" y="0">18-12-08</tspan></text>
    <text id="荣誉资质-18" data-name="荣誉资质" transform="translate(2122 8401)" fill="#0a3d6c" font-size="14" font-family="PingFang SC Medium, PingFang SC"><tspan x="0" y="0">19-01-09</tspan></text>
    <text id="荣誉资质-19" data-name="荣誉资质" transform="translate(2059 8104)" fill="#666" font-size="18" font-family="PingFang SC Medium, PingFang SC"><tspan x="0" y="0">超采线</tspan></text>
    <path id="路径_140" data-name="路径 140" d="M-1597.619,8405H-1147" transform="translate(3315 -56.5)" fill="none" stroke="#d7dde5" stroke-width="2" stroke-dasharray="5 3"/>
    <path id="路径_144" data-name="路径 144" d="M-1597.619,8405H-1147" transform="translate(3315 -82.5)" fill="none" stroke="#d7dde5" stroke-width="2" stroke-dasharray="5 3"/>
    <path id="路径_148" data-name="路径 148" d="M-1597.619,8405H-1147" transform="translate(3315 -107.5)" fill="none" stroke="#d7dde5" stroke-width="2" stroke-dasharray="5 3"/>
    <path id="路径_149" data-name="路径 149" d="M-1597.619,8405H-1147" transform="translate(3315 -133.5)" fill="none" stroke="#d7dde5" stroke-width="2" stroke-dasharray="5 3"/>
    <path id="路径_151" data-name="路径 151" d="M-1597.619,8405H-1147" transform="translate(3315 -158.5)" fill="none" stroke="#d7dde5" stroke-width="2" stroke-dasharray="5 3"/>
    <path id="路径_153" data-name="路径 153" d="M-1597.619,8405H-1147" transform="translate(3315 -183.5)" fill="none" stroke="#d7dde5" stroke-width="2" stroke-dasharray="5 3"/>
    <path id="路径_154" data-name="路径 154" d="M-1597.619,8405H-1147" transform="translate(3315 -209.5)" fill="none" stroke="#d7dde5" stroke-width="2" stroke-dasharray="5 3"/>
    <path id="路径_156" data-name="路径 156" d="M-1597.619,8405H-1147" transform="translate(3315 -234.5)" fill="none" stroke="#d7dde5" stroke-width="2" stroke-dasharray="5 3"/>
    <path id="路径_158" data-name="路径 158" d="M-1597.619,8405H-1147" transform="translate(3315 -259.5)" fill="none" stroke="#d7dde5" stroke-width="2" stroke-dasharray="5 3"/>
    <path id="路径_157" data-name="路径 157" d="M-1597.618,8405h230.809" transform="translate(10155.5 9743.119) rotate(90)" fill="none" stroke="#d7dde5" stroke-width="2" stroke-dasharray="5 3"/>
    <path id="路径_155" data-name="路径 155" d="M-1597.618,8405h230.809" transform="translate(10237.5 9743.119) rotate(90)" fill="none" stroke="#d7dde5" stroke-width="2" stroke-dasharray="5 3"/>
    <path id="路径_152" data-name="路径 152" d="M-1597.618,8405h230.809" transform="translate(10319.5 9743.119) rotate(90)" fill="none" stroke="#d7dde5" stroke-width="2" stroke-dasharray="5 3"/>
    <path id="路径_150" data-name="路径 150" d="M-1597.618,8405h230.809" transform="translate(10401.5 9743.119) rotate(90)" fill="none" stroke="#d7dde5" stroke-width="2" stroke-dasharray="5 3"/>
    <path id="路径_145" data-name="路径 145" d="M-1597.618,8405h230.809" transform="translate(10483.5 9743.119) rotate(90)" fill="none" stroke="#d7dde5" stroke-width="2" stroke-dasharray="5 3"/>
    <path id="路径_141" data-name="路径 141" d="M-1597.618,8405h230.809" transform="translate(10565.5 9743.119) rotate(90)" fill="none" stroke="#d7dde5" stroke-width="2" stroke-dasharray="5 3"/>
    <path id="路径_142" data-name="路径 142" d="M-1609.468,8166.866v236.187h450.618" transform="translate(3326.85 -26.867)" fill="none" stroke="#0a3d6c" stroke-width="3"/>
    <path id="路径_159" data-name="路径 159" d="M-1318.5,8114h37.434" transform="translate(3317 -16.5)" fill="none" stroke="#0199ff" stroke-width="3" stroke-dasharray="7 3"/>
    <path id="路径_146" data-name="路径 146" d="M-1318.5,8114H-870" transform="translate(3038 112.5)" fill="none" stroke="#0199ff" stroke-width="3" stroke-dasharray="7 3"/>
    <path id="路径_160" data-name="路径 160" d="M-1318.5,8114h37.434" transform="translate(3442 -16.5)" fill="none" stroke="#ff8d00" stroke-width="3" stroke-dasharray="7 3"/>
    <path id="路径_143" data-name="路径 143" d="M-1318.5,8114H-870" transform="translate(3038 80.5)" fill="none" stroke="#ff8d00" stroke-width="3" stroke-dasharray="7 3"/>
    <circle id="椭圆_42" data-name="椭圆 42" cx="7" cy="7" r="7" transform="translate(1743 8355)" fill="#1f4e79"/>
    <circle id="椭圆_41" data-name="椭圆 41" cx="7" cy="7" r="7" transform="translate(1826 8343)" fill="#1f4e79"/>
    <circle id="椭圆_40" data-name="椭圆 40" cx="7" cy="7" r="7" transform="translate(1908 8315)" fill="#1f4e79"/>
    <circle id="椭圆_39" data-name="椭圆 39" cx="7" cy="7" r="7" transform="translate(1989 8252)" fill="#1f4e79"/>
    <circle id="椭圆_38" data-name="椭圆 38" cx="7" cy="7" r="7" transform="translate(2072 8213)" fill="#1f4e79"/>
    <circle id="椭圆_37" data-name="椭圆 37" cx="7" cy="7" r="7" transform="translate(2154 8150)" fill="#1f4e79"/>
    <path id="路径_147" data-name="路径 147" d="M-1552.44,8361.715l83.413-10.6,82.707-27.569,80.405-63.2,82.18-37.887,83.413-62.914" transform="translate(3302 -2)" fill="none" stroke="#1e4f7d" stroke-width="2" stroke-dasharray="5 2"/>
  </g>
</svg>
