<?xml version="1.0" encoding="iso-8859-1"?>
<!-- Generator: Adobe Illustrator 19.0.0, SVG Export Plug-In . SVG Version: 6.00 Build 0)  -->
<svg xmlns="http://www.w3.org/2000/svg" xmlns:xlink="http://www.w3.org/1999/xlink" version="1.1" id="Layer_1" x="0px" y="0px" viewBox="0 0 512 512" style="enable-background:new 0 0 512 512;" xml:space="preserve" width="512px" height="512px">
<g>
	<g>
		<path d="M399.549,337.644c-0.015-0.015-0.088-0.089-0.103-0.105c-18.111-18.109-47.592-18.124-65.756,0.009    c-12.197,12.177-32.036,12.169-44.28-0.077c-8.781-8.78-20.457-13.616-32.874-13.616c-12.418,0-24.093,4.836-32.875,13.616    l-0.381,0.381c-12.044,12.045-31.763,12.169-43.959,0.277l-1.36-1.326c-18.125-17.672-47.43-17.486-65.33,0.413l-0.382,0.382    c-2.97,2.971-2.97,7.784,0,10.754c2.973,2.968,7.786,2.968,10.756-0.001l0.382-0.382c12.043-12.046,31.762-12.17,43.959-0.277    l1.36,1.326c8.987,8.763,20.719,13.134,32.451,13.133c11.928-0.001,23.855-4.522,32.88-13.545l0.381-0.381    c12.197-12.199,32.045-12.196,44.298,0.059c18.113,18.111,47.594,18.124,65.756-0.009c12.198-12.176,32.035-12.169,44.177-0.026    l0.059,0.06c2.945,2.995,7.758,3.034,10.753,0.09C402.452,345.453,402.493,340.639,399.549,337.644z" fill="#c5ce43"/>
	</g>
</g>
<g>
	<g>
		<path d="M511.751,414.22V278.586c0-0.112-0.002-0.223-0.007-0.334c0.09-2.089-0.674-4.203-2.288-5.777    c-18.124-17.672-47.428-17.486-65.329,0.413l-0.382,0.382c-12.195,12.199-32.042,12.199-44.195,0.046    c-0.015-0.015-0.088-0.089-0.103-0.105c-13.817-13.815-34.247-17.087-51.21-9.831c-0.159-5.587-1.739-11.058-4.691-15.959    l-1.305-2.167c0.758,0.221,1.52,0.437,2.291,0.629c4.626,1.149,9.308,1.716,13.956,1.716c10.329,0,20.498-2.804,29.573-8.27    c13.159-7.926,22.445-20.504,26.144-35.415c0.28-1.129,0.514-2.262,0.725-3.395c0.008-0.051,0.019-0.101,0.026-0.153    c2.532-13.794-0.006-27.862-7.306-39.981c-7.926-13.159-20.503-22.445-35.414-26.144c-14.912-3.701-30.37-1.373-43.529,6.554    c-13.159,7.926-22.445,20.504-26.144,35.415c-0.192,0.772-0.357,1.545-0.516,2.319l-32.466-53.899L302.852,66.4    c1.032-1.805,1.279-3.954,0.684-5.947c-0.595-1.993-1.98-3.654-3.832-4.599l-6.49-3.309    c-19.882-10.133-44.104-2.939-55.242,16.371l-25.186,39.301c-6.341,9.893-6.66,22.378-0.834,32.583l22,38.535l-97.763,80.944    c-8.656,1.747-16.897,5.95-23.557,12.61l-0.382,0.382c-12.194,12.196-32.042,12.199-44.276-0.036    c-18.125-18.125-47.621-18.124-65.746,0C0.801,274.66,0,276.594,0,278.611v137.511v40.313c0,4.2,3.404,7.604,7.604,7.604h496.792    c4.2,0,7.604-3.404,7.604-7.604v-40.313C512,415.464,511.908,414.83,511.751,414.22z M336.555,153.821    c6.676-4.022,14.155-6.084,21.752-6.084c3.419,0,6.863,0.418,10.266,1.263c10.967,2.722,20.218,9.552,26.048,19.232    c3.869,6.423,5.816,13.471,6.028,20.481l-73.701-26.965C329.677,158.717,332.886,156.031,336.555,153.821z M318.885,174.99    l79.407,29.052c-3.14,8.988-9.305,16.974-18.078,22.258c-19.982,12.038-46.032,5.572-58.068-14.411    C315.178,200.323,314.421,186.728,318.885,174.99z M248.572,186.973c2.846-2.357,3.587-6.419,1.755-9.628l-25.168-44.086    c-3.011-5.273-2.846-11.724,0.431-16.836l25.287-39.458c0.07-0.109,0.139-0.222,0.203-0.336    c6.945-12.175,22.031-16.853,34.608-10.84l-31.525,55.168c-1.368,2.392-1.332,5.336,0.088,7.696l76.267,126.615    c5.017,8.327,2.365,19.159-5.889,24.249c-11.546,5.281-25.663,3.186-35.116-6.269c-0.015-0.015-0.088-0.089-0.103-0.105    c-8.781-8.78-20.457-13.617-32.874-13.617s-24.093,4.837-32.882,13.624l-0.374,0.375c-12.044,12.045-31.762,12.169-43.957,0.279    l-1.363-1.329c-5.545-5.406-12.138-9.132-19.13-11.199L248.572,186.973z M47.993,448.832H15.208v-25.105h32.785V448.832z     M115.259,448.832H63.201v-25.105h52.058V448.832z M182.525,448.832h-52.059v-25.105h52.059V448.832z M249.791,448.832h-52.059    v-25.105h52.059V448.832z M317.058,448.832h-52.059v-25.105h52.059V448.832z M324.662,407.514c-0.596,0-1.174,0.076-1.732,0.206    c-21.35-0.073-43.381-0.14-65.381-0.198c-0.052-0.001-0.102-0.008-0.154-0.008c-0.047,0-0.092,0.006-0.139,0.007    c-0.133,0-0.266,0-0.398-0.001c-46.338-0.121-86.65-0.181-120.515-0.181c-18.681,0-35.403,0.019-50.087,0.056    c-11.427,0.028-21.65,0.069-30.65,0.121c-0.003,0-0.006,0-0.009,0c-0.004,0-0.008,0-0.012,0    c-10.319,0.059-19.023,0.133-25.998,0.22c-5.967,0.075-10.791,0.162-14.38,0.26V281.963h0.001    c12.276-10.129,30.533-9.452,42.049,2.061c8.781,8.78,20.457,13.616,32.874,13.616c12.417,0,24.092-4.836,32.873-13.616    l0.382-0.382c12.043-12.043,31.762-12.168,43.957-0.279l1.363,1.329c18.123,17.67,47.429,17.486,65.335-0.42l0.374-0.375    c5.908-5.909,13.763-9.163,22.119-9.163s16.212,3.255,22.075,9.118c0.015,0.015,0.088,0.089,0.103,0.105    c18.112,18.11,47.593,18.124,65.721,0.026c0.015-0.015,0.042-0.042,0.066-0.066c12.199-12.146,32.015-12.129,44.147,0.003    c0.015,0.015,0.088,0.089,0.103,0.105c18.127,18.127,47.622,18.127,65.749,0l0.382-0.383c11.314-11.315,29.4-12.112,41.662-2.305    v127.107c-22.407-0.112-91.288-0.443-170.104-0.714C325.868,407.594,325.275,407.514,324.662,407.514z M384.324,448.832h-52.059    v-25.105h52.059V448.832z M451.589,448.832h-52.058v-25.105h52.058V448.832z M496.792,448.831h-29.995v-25.105h29.995V448.831z" fill="#c5ce43"/>
	</g>
</g>
<g>
</g>
<g>
</g>
<g>
</g>
<g>
</g>
<g>
</g>
<g>
</g>
<g>
</g>
<g>
</g>
<g>
</g>
<g>
</g>
<g>
</g>
<g>
</g>
<g>
</g>
<g>
</g>
<g>
</g>
</svg>
