<?xml version="1.0" encoding="iso-8859-1"?>
<!-- Generator: Adobe Illustrator 19.0.0, SVG Export Plug-In . SVG Version: 6.00 Build 0)  -->
<svg xmlns="http://www.w3.org/2000/svg" xmlns:xlink="http://www.w3.org/1999/xlink" version="1.1" id="Layer_1" x="0px" y="0px" viewBox="0 0 511.999 511.999" style="enable-background:new 0 0 511.999 511.999;" xml:space="preserve" width="512px" height="512px">
<g>
	<g>
		<path d="M202.716,324.394c0-34.664-28.2-62.863-62.861-62.863s-62.862,28.2-62.862,62.862c0,25.187,15.006,47.775,37.815,57.673    v3.172h-11.521c-4.194,0-7.594,3.4-7.594,7.594v28.509c0,4.194,3.4,7.594,7.594,7.594h72.305c4.194,0,7.594-3.4,7.594-7.594    v-28.509c0-4.194-3.4-7.594-7.594-7.594h-10.691v-3.177C187.729,372.168,202.716,349.651,202.716,324.394z M167.996,400.426    v13.321h-57.117v-13.321H122.4h34.906H167.996z M129.995,385.237v-58.197c0-4.261,3.466-7.727,7.727-7.727h4.264    c4.261,0,7.727,3.466,7.727,7.727v49.936c0,0.009,0,0.018,0,0.026v8.235H129.995z M141.986,304.124h-4.264    c-12.636,0-22.915,10.279-22.915,22.915v37.926c-13.849-8.552-22.626-23.799-22.626-40.573c0-26.288,21.386-47.674,47.674-47.674    c26.288,0,47.674,21.386,47.674,47.674c-0.001,16.825-8.767,32.045-22.628,40.585v-37.938    C164.901,314.404,154.621,304.124,141.986,304.124z" fill="#FFFFFF"/>
	</g>
</g>
<g>
	<g>
		<path d="M511.134,30.805l-7.777-25.432c-0.588-1.926-1.919-3.539-3.697-4.485c-1.777-0.945-3.858-1.145-5.786-0.557    L380.706,34.938c-0.225,0.069-0.443,0.15-0.655,0.237c-2.028-0.367-4.112-0.569-6.244-0.569c-19.3,0-35.001,15.702-35.001,35.001    c0,9.49,3.801,18.103,9.954,24.415v143.345l-216.452-43.391c-6.404-1.284-12.84-1.983-19.245-2.13v-36.621h38.843    c4.194,0,7.594-3.4,7.594-7.594v-22.156c0-10.53-7.501-19.638-17.835-21.659L43.039,84.541    c-6.497-1.272-13.152,0.415-18.261,4.622c-5.109,4.207-8.04,10.417-8.04,17.036v41.431c0,4.194,3.4,7.594,7.594,7.594h39.68    v46.942c-8.197,3.844-15.977,8.727-23.153,14.607c-25.629,21-40.328,52.049-40.328,85.183v43.527    c0,40.396,21.867,75.775,54.381,94.941H40.538c-4.194,0-7.594,3.4-7.594,7.594v33.866c0,4.194,3.4,7.594,7.594,7.594h366.512    c4.195,0,7.594-3.4,7.594-7.594v-33.866c0-4.194-3.399-7.594-7.594-7.594h-23.517c32.514-19.166,54.382-54.545,54.382-94.941    c0-33.186-15.003-63.587-39.061-84.009V94.021c6.058-6.214,9.828-14.662,9.942-23.978l97.296-29.754    C510.103,39.062,512.361,34.816,511.134,30.805z M373.806,49.795c10.924,0,19.813,8.888,19.813,19.813    s-8.888,19.813-19.813,19.813s-19.813-8.888-19.813-19.813S362.882,49.795,373.806,49.795z M383.665,103.184v147.462    c-6.193-3.664-12.784-6.756-19.717-9.172V103.185c3.129,0.92,6.436,1.423,9.858,1.423    C377.229,104.608,380.536,104.105,383.665,103.184z M31.926,140.035V106.2c0-2.826,1.57-4.54,2.507-5.312    c0.936-0.772,2.92-1.985,5.693-1.441l98.625,19.275c3.222,0.63,5.56,3.469,5.56,6.752v14.562H31.926z M97.874,155.225v37.322    c-6.333,0.734-12.579,2.019-18.674,3.838v-41.159H97.874z M399.456,455.612v18.677H48.132v-18.677h62.528h217.126H399.456z     M422.727,345.483c0,52.351-42.591,94.941-94.942,94.941H110.66c-52.351,0-94.941-42.591-94.941-94.941v-43.527    c0-28.564,12.672-55.331,34.766-73.435c17.161-14.062,38.328-21.524,60.049-21.524c6.243,0,12.533,0.617,18.787,1.87    l217.125,43.526C390.647,261.254,422.727,300.404,422.727,345.483z M405.655,55.12c-1.677-3.672-3.968-7.004-6.745-9.866    l92.142-28.178l3.335,10.908L405.655,55.12z" fill="#FFFFFF"/>
	</g>
</g>
<g>
	<g>
		<path d="M84.586,474.291H40.538c-4.194,0-7.594,3.4-7.594,7.594v22.52c0,4.194,3.4,7.594,7.594,7.594h44.048    c4.194,0,7.594-3.4,7.594-7.594v-22.52C92.18,477.691,88.78,474.291,84.586,474.291z M76.992,496.811h-28.86v-7.332h28.86V496.811    z" fill="#FFFFFF"/>
	</g>
</g>
<g>
	<g>
		<path d="M407.051,474.291h-44.048c-4.195,0-7.594,3.4-7.594,7.594v22.52c0,4.194,3.399,7.594,7.594,7.594h44.048    c4.194,0,7.594-3.4,7.594-7.594v-22.52C414.645,477.691,411.246,474.291,407.051,474.291z M399.456,496.811h-28.86v-7.332h28.86    V496.811z" fill="#FFFFFF"/>
	</g>
</g>
<g>
</g>
<g>
</g>
<g>
</g>
<g>
</g>
<g>
</g>
<g>
</g>
<g>
</g>
<g>
</g>
<g>
</g>
<g>
</g>
<g>
</g>
<g>
</g>
<g>
</g>
<g>
</g>
<g>
</g>
</svg>
