<?xml version="1.0" encoding="iso-8859-1"?>
<!-- Generator: Adobe Illustrator 19.0.0, SVG Export Plug-In . SVG Version: 6.00 Build 0)  -->
<svg xmlns="http://www.w3.org/2000/svg" xmlns:xlink="http://www.w3.org/1999/xlink" version="1.1" id="Layer_1" x="0px" y="0px" viewBox="0 0 512.001 512.001" style="enable-background:new 0 0 512.001 512.001;" xml:space="preserve" width="512px" height="512px">
<g>
	<g>
		<path d="M510.271,441.35c-4.943-32.236-20.198-51.884-44.116-56.82c-13.848-2.859-24.357-5.568-34.074-8.781l-5.458-1.805    c-0.003-0.001-0.006-0.002-0.01-0.003l-9.725-3.216c-4.414-1.459-8.06-4.515-10.269-8.607l-90.503-167.7    c-1.252-2.321-3.616-3.827-6.248-3.984c-6.437-0.379-12.743-1.482-18.821-3.243c-18.86-18.066-31.253-74.48-34.487-95.107    c-0.163-1.045-0.544-2.046-1.115-2.935l-33.651-52.398c-0.01-0.015-0.022-0.029-0.032-0.045    c-5.856-9.56-15.595-15.85-26.769-17.266c-11.469-1.453-22.811,2.392-31.118,10.55L48.135,143.663    c-0.223,0.219-0.429,0.448-0.62,0.687c-0.242,0.187-0.476,0.389-0.699,0.609L3.291,187.707c-1.44,1.414-2.26,3.342-2.277,5.361    c-0.018,2.018,0.766,3.96,2.18,5.4l27.076,27.568c-5.765,0.969-11.26,3.186-16.019,6.619C5.194,239.188,0,249.217,0,260.17    v162.226c0,0.313,0.024,0.62,0.062,0.923C0.024,423.622,0,423.93,0,424.243v61.008c0,4.204,3.407,7.61,7.61,7.61h314.058h157.316    h24.243c3.796,0,7.011-2.797,7.537-6.556C510.889,485.413,513.777,464.21,510.271,441.35z M393.227,369.345    c0.808,1.498,1.725,2.915,2.733,4.254h-23.101l-10.677-19.181l24.909,3.557L393.227,369.345z M367.147,321.022l10.952,20.294    l-16.576-2.367L367.147,321.022z M349.281,287.916l7.779,14.414l-8.605,27.43l-7.867-14.133L349.281,287.916z M330.033,252.25    l9.161,16.974l-8.807,28.075l-9.478-17.026L330.033,252.25z M323.264,315.796l-101.784-5.08l-49.344-50.672l123.526,6.165    L323.264,315.796z M299.759,242.277c0.203,0.087,0.406,0.175,0.608,0.262c5.265,2.265,10.538,4.526,14.511,6.213    c0.088,0.038,0.166,0.071,0.254,0.108l-4.322,13.271L299.759,242.277z M284.457,201.09c0.36,0.141,0.729,0.252,1.102,0.336    c6.195,1.882,12.592,3.195,19.128,3.859l15.363,28.468l-0.189,0.579c-8.218-3.498-21.776-9.34-32.029-13.774l-12.316-22.758    C278.436,199.04,281.423,200.13,284.457,201.09z M233.074,82.481l8.711,13.563c1.456,8.695,8.662,48.63,22.668,78.03    c-3.614-2.658-7.043-5.597-10.225-8.837C232.571,143.186,224.879,111.859,233.074,82.481z M243.369,175.902    c1.969,2.004,4.017,3.912,6.131,5.73c0.093,0.219,0.195,0.436,0.31,0.649l30.43,56.225l6.696,12.029l-130.398-6.508    l-31.721-32.574c-1.207-6.329-4.253-28.836,10.008-42.843l81.321-79.869c-1.839,10.969-1.888,22.202-0.068,33.324    C219.425,142.515,228.863,161.131,243.369,175.902z M174.539,40.849c4.963-4.873,11.719-7.174,18.54-6.309    c6.617,0.838,12.372,4.575,15.793,10.252l11.313,18.772c-0.289,0.213-0.572,0.44-0.836,0.7l-95.189,93.49    c-11.329,11.127-14.91,25.31-15.588,37.02l-44.366-45.56L174.539,40.849z M53.348,159.877l246.204,252.829    c13.085,13.437,31.347,21.145,50.104,21.145h74.932c4.203,0,7.61-3.406,7.61-7.61c0-4.204-3.407-7.61-7.61-7.61h-74.932    c-14.674,0-28.962-6.029-39.2-16.543l-73.379-75.354l94.912,4.737l29.747,53.44c1.343,2.413,3.888,3.91,6.649,3.91h54.743    l4.174,1.38c10.296,3.404,21.33,6.252,35.776,9.236c21.959,4.533,29.975,26.697,32.572,47.223H333.994    c-14.587,0-28.815-5.969-39.037-16.376L41.147,171.859L53.348,159.877z M15.22,260.17c0-6.092,2.818-11.479,7.935-15.172    c6.104-4.403,14.313-5.516,21.957-2.976c0.373,0.124,0.75,0.208,1.126,0.272l17.086,17.397v123.281    c0,13.252,7.365,24.36,15.106,32.385l-63.209-0.51V260.17z M15.22,477.64v-15.283h216.849c4.203,0,7.61-3.406,7.61-7.61    c0-4.204-3.407-7.61-7.61-7.61H15.22v-17.07l217.161,1.755l39.392,40.108c2.009,2.046,4.152,3.939,6.386,5.71H15.22z     M78.544,382.971V275.188L217.313,416.48l-114.7-0.927C95.091,410.919,78.544,397.661,78.544,382.971z M496.316,477.641h-17.333    H321.667c-14.587,0-28.815-5.968-39.037-16.375l-39.478-40.195c-0.74-1.606-2.019-2.909-3.612-3.678L19.385,193.232l10.904-10.709    l253.81,258.423c13.064,13.302,31.25,20.932,49.895,20.932h162.729C496.849,468.156,496.601,473.666,496.316,477.641z" fill="#FFFFFF"/>
	</g>
</g>
<g>
</g>
<g>
</g>
<g>
</g>
<g>
</g>
<g>
</g>
<g>
</g>
<g>
</g>
<g>
</g>
<g>
</g>
<g>
</g>
<g>
</g>
<g>
</g>
<g>
</g>
<g>
</g>
<g>
</g>
</svg>
