<?xml version="1.0" encoding="iso-8859-1"?>
<!-- Generator: Adobe Illustrator 19.0.0, SVG Export Plug-In . SVG Version: 6.00 Build 0)  -->
<svg xmlns="http://www.w3.org/2000/svg" xmlns:xlink="http://www.w3.org/1999/xlink" version="1.1" id="Layer_1" x="0px" y="0px" viewBox="0 0 512 512" style="enable-background:new 0 0 512 512;" xml:space="preserve" width="512px" height="512px">
<g>
	<g>
		<path d="M452.198,304.221c-26.434-22.879-71.454-12.128-73.358-11.659c-3.185,0.785-5.528,3.493-5.847,6.757    c-0.192,1.951-4.374,48.048,22.062,70.926c13.481,11.667,31.79,14.588,46.754,14.588c14.38,0,25.672-2.7,26.605-2.93    c3.185-0.785,5.528-3.493,5.847-6.757C474.452,373.197,478.634,327.1,452.198,304.221z M459.112,367.945    c-11.556,1.832-38.23,4.194-53.934-9.396c-15.709-13.597-17.194-40.354-17.036-52.04c11.537-1.855,38.161-4.242,53.933,9.408    C457.779,329.509,459.269,356.251,459.112,367.945z" fill="#FFFFFF"/>
	</g>
</g>
<g>
	<g>
		<path d="M149.987,42.164c-23.118-26.228-69.173-21.633-71.123-21.42c-3.261,0.349-5.948,2.716-6.703,5.908    C71.709,28.56,61.365,73.674,84.482,99.9c16.85,19.118,45.885,21.858,61.146,21.858c5.677,0,9.447-0.378,9.976-0.436    c3.261-0.349,5.948-2.716,6.703-5.908C162.76,113.505,173.105,68.39,149.987,42.164z M148.266,106.239    c-11.727,0.274-38.45-0.988-52.18-16.565c-13.737-15.586-11.61-42.299-9.882-53.858c11.679-0.276,38.386,0.93,52.179,16.578    C152.116,67.974,149.995,94.673,148.266,106.239z" fill="#FFFFFF"/>
	</g>
</g>
<g>
	<g>
		<path d="M511.913,255.552c-0.297-1.964-7.307-46.335-35.091-70.971c12.333-15.407,19.009-30.259,19.334-30.99    c1.331-2.997,0.627-6.509-1.756-8.762c-1.305-1.233-23.966-22.355-52.716-30.903c2.898-29.863-8.061-58.836-8.566-60.147    c-1.179-3.061-4.167-5.027-7.438-4.954c-2.372,0.067-55.665,1.952-82.012,33.695c-3.862-0.967-7.976-0.963-12.23-0.956    c-8.744,0.027-20.738,0.051-38.829-7.604c-12.723-5.383-25.628-7.789-38.365-7.352c-7.097-10.933-19.42-17.786-32.632-17.786    c-21.43,0-38.865,17.435-38.865,38.865c0,4.327,0.746,8.631,2.149,12.702c-1.937,1.997-3.849,4.07-5.728,6.238    c-18.998,21.923-37.598,21.736-59.124,21.539c-12.916-0.124-26.289-0.252-40.628,4.198C40.02,144.589,2.637,207.646,1.065,210.324    c-1.419,2.417-1.419,5.411-0.002,7.828c1.278,2.179,32.055,53.459,97.657,60.652c3.519,0.387,6.897,0.569,10.155,0.569    c11.385,0,21.26-2.242,30.297-5.867c2.224,0.93,4.477,1.763,6.755,2.499l-22.251,16.586c-3.06,2.281-5.049,5.624-5.603,9.412    c-0.554,3.789,0.4,7.56,2.68,10.62l13.232,17.751c2.28,3.061,5.622,5.049,9.411,5.603c0.704,0.103,1.407,0.154,2.106,0.154    c3.061,0,6.025-0.976,8.515-2.833l101.129-75.381c0.097-0.072,0.184-0.153,0.276-0.229c9.962-0.124,19.007,2.683,28.367,6.289    l-22.413,123.259c-1.412,7.765,3.758,15.233,11.523,16.645l21.785,3.962c0.861,0.157,1.718,0.233,2.564,0.233    c1.209,0,2.39-0.161,3.529-0.453c0.007,1.061,0.047,2.128,0.125,3.199c2.514,34.871,41.95,59.103,43.628,60.117    c1.237,0.748,2.621,1.116,4.001,1.116c1.751,0,3.494-0.594,4.912-1.758c1.515-1.245,37.066-30.882,34.552-65.753    c-2.514-34.871-41.95-59.103-43.628-60.117c-2.806-1.695-6.377-1.44-8.913,0.642c-0.747,0.614-9.754,8.126-18.401,19.754    l15.817-86.98c0.471,0.011,0.942,0.025,1.417,0.025c19.507-0.002,42.089-9.674,60.604-19.969    c5.458,6.117,11.078,10.305,19.046,14.309c10.466,5.258,21.824,7.205,32.908,7.205c30.771-0.001,59.435-15.011,61.055-15.874    C510.797,261.996,512.404,258.794,511.913,255.552z M479.482,152.38c-3.554,6.691-10.748,18.885-20.979,29.735    c-10.041,10.65-20.54,17.467-31.245,20.323c-7.241-17.564-21.203-41.363-47.339-59.51c9.436-8.729,19.23-14.155,29.2-16.154    C437.683,121.053,468.398,143.302,479.482,152.38z M420.468,64.712c2.714,8.88,7.403,27.47,5.967,46.094    c-6.671-0.721-13.511-0.569-20.355,0.802c-13.193,2.643-25.846,9.69-37.707,20.952c2.793-16.022-1.332-30.583-11.691-41.433    C374.364,71.239,407.299,66.023,420.468,64.712z M331.477,97.034c5.378-0.014,8.497,0.034,9.999,1.184    c14.903,11.393,13.025,27.719,10.579,36.438c-4.092,14.584-15.599,30.044-32.994,42.178c5.088-4.213,8.336-10.575,8.336-17.681    c0-7.964-4.081-14.991-10.258-19.108c9.36-2.896,16.178-11.63,16.178-21.929c0-9.905-6.309-18.364-15.119-21.572    C323.408,97.041,327.806,97.037,331.477,97.034z M317.847,118.115c0,4.124-3.356,7.48-7.48,7.48s-7.48-3.356-7.48-7.48    s3.356-7.48,7.48-7.48S317.847,113.991,317.847,118.115z M311.927,159.152c0,4.124-3.356,7.48-7.48,7.48    c-4.124,0-7.48-3.356-7.48-7.48s3.356-7.48,7.48-7.48S311.927,155.028,311.927,159.152z M221.612,64.292    c5.263,0,10.286,1.814,14.326,4.941c-13.074,3.326-25.779,9.717-37.704,19.085c-0.005-0.21-0.019-0.419-0.019-0.63    C198.215,74.787,208.711,64.292,221.612,64.292z M136.373,257.909c-0.186,0.074-0.37,0.152-0.55,0.239    c-10.337,4.555-21.514,6.805-35.418,5.28c-47.975-5.262-75.458-38.201-83.498-49.391C28.887,194.893,58.05,155.191,84,147.138    c12.027-3.733,23.619-3.623,35.897-3.504c23.239,0.223,47.277,0.452,70.962-26.876c28.238-32.582,62.236-42.722,95.722-28.553    c8.551,3.619,15.986,5.739,22.459,7c-12.038,0.69-21.621,10.699-21.621,22.907c0,7.964,4.081,14.991,10.258,19.108    c-9.36,2.896-16.178,11.63-16.178,21.929c0,12.655,10.294,22.949,22.949,22.949c3.84,0,7.46-0.953,10.645-2.628    c-14.952,9.512-33.774,16.589-55.645,18.908c-44.182,4.686-69.728,23.402-92.268,39.916    C156.437,246.166,146.82,253.209,136.373,257.909z M145.698,320.204l-11.852-15.9l32.647-24.336    c2.119,0.148,4.253,0.231,6.403,0.231c11.176,0,22.755-2.02,34.563-6.032L145.698,320.204z M341.073,360.874    c9.468,6.874,29.999,24.066,31.493,44.78c1.493,20.716-16.363,40.677-24.743,48.834c-9.468-6.874-29.998-24.066-31.492-44.78    C314.838,388.993,332.694,369.031,341.073,360.874z M296.315,392.416l-19.513-3.549l21.651-119.071    c6.058,2.336,12.326,4.501,19.065,6.012L296.315,392.416z M331.398,262.295c-12.559-0.914-23.313-5.248-34.699-9.836    c-0.42-0.169-0.84-0.338-1.261-0.507c-0.009-0.004-0.019-0.008-0.029-0.011c-21.162-8.517-43.203-16.819-74.586-0.354    c-18.58,9.748-36.599,14.076-53.236,12.922c-1.367-0.553-2.87-0.705-4.328-0.433c-1.607-0.207-3.199-0.466-4.777-0.779    c6.039-3.88,11.896-8.166,17.838-12.52c21.987-16.108,44.722-32.765,84.758-37.012c52.952-5.616,87.895-34.969,101.521-63.504    c39.536,22.76,52.363,61.245,55.669,74.198C405.124,234.103,361.17,264.471,331.398,262.295z M420.883,258.382    c-5.178-2.601-8.871-5.121-12.356-8.573c13.141-8.273,22.209-15.342,23.145-16.078c2.203-1.733,3.295-4.52,2.858-7.287    c-0.089-0.564-0.668-4.016-2.181-9.365c11.9-3.403,23.337-10.447,34.107-21c18.382,16.214,26.385,44.354,29.056,56.241    C482.437,258.158,447,271.507,420.883,258.382z" fill="#FFFFFF"/>
	</g>
</g>
<g>
	<g>
		<path d="M243.261,371.721c11.457-7.218,19.092-19.975,19.092-34.489c0-22.465-18.277-40.742-40.742-40.742    c-22.465,0-40.742,18.277-40.742,40.742c0,19.237,13.405,35.391,31.363,39.64c-13.043,8.674-28.581,22.63-33.109,41.782    c-8.044,34.023,22.326,68.951,23.622,70.422c1.499,1.7,3.628,2.618,5.803,2.618c0.971,0,1.954-0.184,2.894-0.562    c1.818-0.734,44.615-18.365,52.658-52.388C270.799,410.407,250.865,381.461,243.261,371.721z M196.339,337.232    c0-13.935,11.338-25.273,25.273-25.273c13.935,0,25.273,11.338,25.273,25.273c0,13.935-11.338,25.273-25.273,25.273    C207.676,362.506,196.339,351.168,196.339,337.232z M249.045,435.185c-4.781,20.219-27.811,33.92-38.242,39.189    c-6.981-9.365-21.426-31.861-16.626-52.161c4.781-20.219,27.811-33.92,38.242-39.189    C239.4,392.389,253.845,414.885,249.045,435.185z" fill="#FFFFFF"/>
	</g>
</g>
<g>
	<g>
		<path d="M271.389,127.44c-1.531-3.988-6.006-5.978-9.992-4.449c-0.572,0.22-58.327,22.435-157.523,64.559    c-3.932,1.67-5.766,6.21-4.096,10.142c1.251,2.945,4.112,4.713,7.122,4.713c1.009,0,2.035-0.198,3.021-0.618    c98.916-42.005,156.45-64.137,157.019-64.356C270.928,135.902,272.92,131.428,271.389,127.44z" fill="#FFFFFF"/>
	</g>
</g>
<g>
	<g>
		<path d="M258.805,145.613c-12.655,0-22.949,10.295-22.949,22.948c0,12.655,10.294,22.949,22.949,22.949    c12.655,0,22.949-10.294,22.949-22.949C281.754,155.907,271.46,145.613,258.805,145.613z M258.805,176.041    c-4.124,0-7.48-3.356-7.48-7.48c0-4.124,3.356-7.479,7.48-7.479c4.124,0,7.48,3.355,7.48,7.479S262.929,176.041,258.805,176.041z" fill="#FFFFFF"/>
	</g>
</g>
<g>
</g>
<g>
</g>
<g>
</g>
<g>
</g>
<g>
</g>
<g>
</g>
<g>
</g>
<g>
</g>
<g>
</g>
<g>
</g>
<g>
</g>
<g>
</g>
<g>
</g>
<g>
</g>
<g>
</g>
</svg>
