<?xml version="1.0" encoding="iso-8859-1"?>
<!-- Generator: Adobe Illustrator 19.0.0, SVG Export Plug-In . SVG Version: 6.00 Build 0)  -->
<svg xmlns="http://www.w3.org/2000/svg" xmlns:xlink="http://www.w3.org/1999/xlink" version="1.1" id="Layer_1" x="0px" y="0px" viewBox="0 0 512 512" style="enable-background:new 0 0 512 512;" xml:space="preserve" width="512px" height="512px">
<g>
	<g>
		<path d="M437.078,75.039C388.742,26.671,324.463,0.021,256.083,0c-0.029,0-0.055,0-0.084,0    c-68.347,0-132.613,26.607-180.96,74.923C26.672,123.259,0.022,187.538,0.001,255.918c-0.021,68.38,26.586,132.675,74.922,181.043    C123.259,485.33,187.538,511.979,255.918,512c0.029,0,0.057,0,0.085,0c68.347,0,132.611-26.607,180.958-74.923    c48.367-48.336,75.017-112.615,75.039-180.995C512.023,187.702,485.414,123.407,437.078,75.039z M426.215,426.324    c-45.479,45.449-105.918,70.476-170.211,70.473c-0.023,0-0.057,0-0.08,0c-64.319-0.021-124.78-25.087-170.247-70.583    C40.211,380.72,15.183,320.242,15.204,255.922C15.246,123.172,123.257,15.203,256,15.203c0.024,0,0.054,0,0.078,0    c132.776,0.044,240.762,108.098,240.719,240.874C496.777,320.396,471.71,380.859,426.215,426.324z" fill="#FFFFFF"/>
	</g>
</g>
<g>
	<g>
		<path d="M256.068,44.309c-0.028,0-0.039,0-0.068,0c-116.687,0-211.653,94.925-211.69,211.624    c-0.016,51.013,18.107,97.873,48.26,134.472c0.102,0.134,0.214,0.263,0.326,0.391c8.477,10.24,17.899,19.671,28.13,28.159    c0.171,0.157,0.349,0.304,0.53,0.442c36.571,30.145,83.394,48.278,134.378,48.295c0.024,0,0.047,0,0.07,0    c56.518,0,109.659-22.001,149.638-61.955c39.995-39.971,62.033-93.124,62.051-149.669    C467.729,139.342,372.796,44.347,256.068,44.309z M99.36,374.478c-25.006-32.98-39.861-74.057-39.846-118.542    C59.547,147.613,147.684,59.512,256,59.512c0.02,0,0.044,0,0.063,0c46.515,0.015,89.292,16.287,122.975,43.414l-53.618,52.06    c-3.215-0.511-6.48-0.777-9.744-0.777H196.325c-34.242,0-62.1,27.857-62.1,62.1v6.542c0,4.551,3.701,8.253,8.252,8.253h0.714    c-0.228,1.168-0.355,2.372-0.355,3.605v5.543c0,5.278,2.192,10.046,5.705,13.466c-3.513,3.419-5.705,8.188-5.705,13.466v30.088    c0,1.246,0.129,2.462,0.361,3.641c-0.237-0.022-0.476-0.036-0.719-0.036c-4.551,0-8.252,3.701-8.252,8.253v19.901    c0,3.38,0.614,6.722,1.772,9.875L99.36,374.478z M158.038,297.271v-30.09c0-1.954,1.651-3.605,3.605-3.605h7.63    c3.759,5.935,11.873,15.913,25.096,18.651l-19.207,18.649h-13.52C159.689,300.876,158.038,299.225,158.038,297.271z     M159.622,315.966l-10.194,9.898V311.56c0.002-0.004,0.003-0.008,0.005-0.012C152.24,313.952,155.754,315.55,159.622,315.966z     M189.392,263.578h24.187l-4.194,4.071c-2.781,0.055-5.439,0.101-7.972,0.101C196.531,267.75,192.534,265.937,189.392,263.578z     M161.643,243.856c-1.954,0-3.605-1.651-3.605-3.605v-5.543c0-1.954,1.651-3.605,3.605-3.605h85.382l-13.135,12.753H161.643z     M149.43,215.901c0.22-25.672,21.172-46.488,46.896-46.488h114.238l-47.881,46.488H149.43z M109.04,386.268l281.504-273.324    c5.765,5.424,11.202,11.192,16.281,17.27L125.828,403.045C119.903,397.793,114.296,392.19,109.04,386.268z M350.358,231.104    c1.954,0,3.605,1.651,3.605,3.604v5.543c0,1.954-1.651,3.605-3.605,3.605h-38.752l13.135-12.752H350.358z M340.399,215.901    l18.425-17.89c2.411,5.638,3.694,11.703,3.748,17.89H340.399z M334.327,263.578c-0.922,1.154-1.988,2.331-3.212,3.478    c-9.059,8.485-22.182,11.083-39.003,7.717c-3.711-0.742-7.101-1.386-10.328-1.961l9.511-9.234H334.327z M289.131,289.681    c5.961,1.192,11.398,1.721,16.365,1.721c28.84,0,41.596-17.854,46.376-27.468c1.22,0.585,2.093,1.831,2.093,3.247v30.091    c0,1.954-1.651,3.605-3.605,3.605h-97.479l15.309-14.865C274.694,286.952,281.144,288.084,289.131,289.681z M350.359,316.079    c4.66,0,8.921-1.714,12.21-4.531c0.002,0.004,0.003,0.008,0.005,0.012v17.468c0,7.477-6.082,13.559-13.558,13.559H209.918    l27.303-26.509H350.359z M394.894,394.983c-37.11,37.086-86.429,57.507-138.891,57.505c-0.019,0-0.046,0-0.065,0    c-44.377-0.014-85.355-14.823-118.277-39.741l56.6-54.955h154.756c15.859,0,28.761-12.902,28.761-28.762v-19.901    c0-4.551-3.702-8.253-8.253-8.253c-0.242,0-0.481,0.014-0.719,0.036c0.232-1.179,0.361-2.395,0.361-3.641v-30.09    c0-5.278-2.192-10.046-5.705-13.466c3.513-3.419,5.705-8.188,5.705-13.466v-5.543c0-1.234-0.128-2.437-0.355-3.605h0.713    c4.551,0,8.253-3.701,8.253-8.253v-6.542c0-10.324-2.572-20.413-7.471-29.445l45.875-44.541    c22.865,32.129,36.319,71.396,36.306,113.746C452.471,308.548,432.018,357.884,394.894,394.983z" fill="#FFFFFF"/>
	</g>
</g>
<g>
</g>
<g>
</g>
<g>
</g>
<g>
</g>
<g>
</g>
<g>
</g>
<g>
</g>
<g>
</g>
<g>
</g>
<g>
</g>
<g>
</g>
<g>
</g>
<g>
</g>
<g>
</g>
<g>
</g>
</svg>
