<?xml version="1.0" encoding="iso-8859-1"?>
<!-- Generator: Adobe Illustrator 19.0.0, SVG Export Plug-In . SVG Version: 6.00 Build 0)  -->
<svg xmlns="http://www.w3.org/2000/svg" xmlns:xlink="http://www.w3.org/1999/xlink" version="1.1" id="Layer_1" x="0px" y="0px" viewBox="0 0 512.001 512.001" style="enable-background:new 0 0 512.001 512.001;" xml:space="preserve" width="512px" height="512px">
<g>
	<g>
		<path d="M502.991,181.672l-13.021-51.781c-0.712-2.832-2.987-5.004-5.849-5.582c-2.856-0.578-5.802,0.535-7.561,2.868    l-42.898,56.908l-16.074,20.257l-81.421-42.775c-0.033-0.018-0.07-0.03-0.104-0.048c-0.127-0.065-0.259-0.12-0.389-0.177    c-0.131-0.058-0.262-0.117-0.396-0.167c-0.132-0.049-0.267-0.088-0.401-0.129c-0.138-0.042-0.276-0.088-0.417-0.122    c-0.134-0.033-0.271-0.057-0.406-0.083c-0.145-0.027-0.289-0.057-0.435-0.076c-0.134-0.017-0.271-0.025-0.406-0.035    c-0.151-0.011-0.301-0.023-0.453-0.026c-0.039-0.001-0.079-0.007-0.118-0.007h-7.937l-16.198-95.584    c-0.119-0.707-0.34-1.37-0.632-1.987l0.08-0.913c0-0.004,0-0.008,0.001-0.012l1.119-12.73    c1.115-12.673-3.175-25.323-11.768-34.705C288.711,5.381,276.486,0,263.763,0h-16.153c-12.724,0-24.95,5.381-33.544,14.764    c-8.593,9.382-12.883,22.032-11.769,34.705l1.46,16.602l-16.034,94.624h-7.408c-1.528-0.195-3.096,0.067-4.489,0.801    L94.41,204.338l-16.06-20.239L35.44,127.175c-1.757-2.332-4.698-3.446-7.561-2.867c-2.862,0.579-5.137,2.751-5.849,5.582    l-13.02,51.782c-0.576,2.292-0.052,4.722,1.42,6.571l26.324,33.086c0.004,0.005,0.008,0.008,0.011,0.013l24.161,30.449    c7.52,9.477,18.564,14.484,29.803,14.484c7.109,0,14.296-2.004,20.716-6.149l72.98-41.085l11.178,44.035    c2.349,9.252,2.766,18.723,1.243,28.148l-10.332,63.831l-58.916-18.808c-13.149-4.196-27.25,3.085-31.446,16.226l-7.272,22.782    c-4.629,14.498,3.4,30.059,17.899,34.687l23.387,7.466l-0.359,0.114c-3.989,1.274-6.191,5.541-4.917,9.53l25.433,79.669    c1.029,3.223,4.011,5.279,7.222,5.279c0.764,0,1.541-0.116,2.308-0.361l21.024-6.711c1.916-0.612,3.511-1.96,4.433-3.747    c0.922-1.788,1.097-3.868,0.484-5.784l-4.463-13.982l74.672-23.837l74.67,23.837l-4.463,13.982    c-0.612,1.916-0.438,3.997,0.484,5.784c0.922,1.787,2.517,3.135,4.433,3.747l21.024,6.711c0.767,0.245,1.544,0.361,2.308,0.361    c3.211,0,6.193-2.057,7.222-5.279l25.432-79.669c1.274-3.99-0.928-8.257-4.917-9.53l-0.359-0.114l22.948-7.326    c14.74-4.706,22.904-20.526,18.199-35.267l-7.011-21.962c-4.264-13.353-18.59-20.748-31.949-16.486l-58.263,18.599l-8.996-55.284    c-2.473-15.205-1.814-30.486,1.961-45.418l8.756-34.639l73.098,40.513c6.416,4.135,13.59,6.134,20.693,6.133    c11.237-0.001,22.283-5.008,29.803-14.484l24.163-30.453c0.002-0.003,0.005-0.006,0.008-0.009l26.324-33.086    C503.043,186.393,503.569,183.963,502.991,181.672z M24.632,181.733l8.24-32.768l15.547,20.624l-21.662,14.815L24.632,181.733z     M103.792,247.027c-0.148,0.084-0.293,0.172-0.436,0.265c-9.995,6.548-23.125,4.426-30.551-4.93l-36.559-46.074l21.012-14.371    l29.178,36.772c2.266,2.857,6.247,3.695,9.471,1.998l78.453-41.283l6.195,24.406L103.792,247.027z M301.94,117.141l7.38,43.555    H285.27v-23.529C292.933,132.744,298.921,125.688,301.94,117.141z M256.001,194.42c-11.777,0-21.757-7.83-25.015-18.558h3.329    c4.189,0,7.583-3.395,7.583-7.583c0-0.39-0.038-0.77-0.095-1.145c0.057-0.374,0.095-0.754,0.095-1.145v-23.918    c0.986,0.078,1.979,0.126,2.983,0.126h21.612c1.217,0,2.423-0.06,3.612-0.174v23.966c0,0.39,0.038,0.77,0.095,1.145    c-0.057,0.374-0.095,0.754-0.095,1.145c0,4.188,3.394,7.583,7.583,7.583h3.329C277.758,186.59,267.778,194.42,256.001,194.42z     M260.318,373.878c-0.917-0.636-1.98-1.074-3.128-1.255C258.403,372.809,259.452,373.267,260.318,373.878z M266.491,127.031    H244.88c-11.363,0-20.922-8.487-22.276-19.759l-3.813-43.379c12.856-1.745,21.231-7.388,26.28-12.388    c7.587,6.775,22.097,15.62,47.082,17.246l-3.387,38.522C287.412,118.544,277.853,127.031,266.491,127.031z M225.252,25.008    c5.813-6.346,13.752-9.841,22.359-9.841h16.153c8.606,0,16.546,3.495,22.358,9.84c5.812,6.346,8.599,14.561,7.845,23.133    l-0.483,5.498c-31.499-1.912-41.51-16.563-42.277-17.763c-1.377-2.525-3.972-4.038-6.846-3.94    c-2.88,0.111-5.346,1.846-6.526,4.472c-0.47,0.886-5.683,10.075-20.372,12.362l-0.056-0.628    C216.653,39.569,219.44,31.354,225.252,25.008z M210.162,119.054c3.293,7.915,9.189,14.405,16.568,18.478v23.164h-23.625    L210.162,119.054z M195.931,202.73l-6.812-26.867h5.007c0.004,0,0.008,0.001,0.012,0.001c0.007,0,0.014-0.001,0.022-0.001h21.242    c3.109,16.677,16.264,29.856,32.93,32.999c-0.17,14.156-0.552,47.808-0.771,81.291c-0.168,25.718-0.208,46.311-0.119,61.207    c0.068,11.28,0.155,18.498,0.362,23.26l-46.683-14.903l10.695-66.071c1.859-11.486,1.35-23.028-1.513-34.302L195.931,202.73z     M162.463,494.884l-20.821-65.22l6.575-2.099l20.821,65.221L162.463,494.884z M176.718,466.967l-12.335-38.636l66.681,21.287    L176.718,466.967z M158.833,410.639c-0.779-0.411-1.629-0.68-2.511-0.802l-44.932-14.344c-3.165-1.01-5.746-3.191-7.269-6.143    c-1.524-2.951-1.806-6.319-0.796-9.483l7.272-22.782c0.801-2.507,2.53-4.553,4.869-5.759c1.418-0.732,2.958-1.102,4.508-1.102    c1.008,0,2.02,0.157,3.008,0.471l226.352,72.258l-14.05,44.015L158.833,410.639z M349.538,494.884l-6.575-2.099l20.821-65.221    l6.575,2.099L349.538,494.884z M321.144,372.361c0.599-0.116,1.167-0.3,1.701-0.543l65.793-21.003    c5.383-1.723,11.168,1.264,12.888,6.65l7.011,21.961c2.162,6.773-1.589,14.043-8.363,16.206l-43.271,13.813l-75.964-24.251    L321.144,372.361z M315.192,206.36c0,0.001,0,0.002,0,0.003l-11.169,44.185c-4.285,16.955-5.034,34.306-2.225,51.571l9.358,57.511    l-48.149,15.37c-0.907-19.05-0.24-106.801,0.491-166.108c16.746-3.085,29.982-16.295,33.101-33.03h21.667    c0.007,0,0.014,0.001,0.022,0.001c0.004,0,0.008-0.001,0.012-0.001h4.602L315.192,206.36z M463.486,211.747l-0.109,0.138    c-0.001,0.001-0.002,0.003-0.003,0.004l-24.178,30.473c-7.425,9.356-20.559,11.478-30.551,4.93    c-0.156-0.102-0.316-0.199-0.48-0.29l-76.838-42.585l6.306-24.948l78.462,41.221c3.227,1.695,7.202,0.854,9.467-2l29.178-36.772    l21.012,14.371L463.486,211.747z M485.244,184.405l-21.662-14.815l15.547-20.625l8.24,32.769L485.244,184.405z" fill="#FFFFFF"/>
	</g>
</g>
<g>
</g>
<g>
</g>
<g>
</g>
<g>
</g>
<g>
</g>
<g>
</g>
<g>
</g>
<g>
</g>
<g>
</g>
<g>
</g>
<g>
</g>
<g>
</g>
<g>
</g>
<g>
</g>
<g>
</g>
</svg>
