<?xml version="1.0" encoding="iso-8859-1"?>
<!-- Generator: Adobe Illustrator 19.0.0, SVG Export Plug-In . SVG Version: 6.00 Build 0)  -->
<svg xmlns="http://www.w3.org/2000/svg" xmlns:xlink="http://www.w3.org/1999/xlink" version="1.1" id="Layer_1" x="0px" y="0px" viewBox="0 0 512 512" style="enable-background:new 0 0 512 512;" xml:space="preserve" width="512px" height="512px">
<g>
	<g>
		<path d="M464.561,384.354c-0.174-1.551-0.619-3.418-1.418-5.948c-0.827-3.065-1.803-6.111-2.903-9.058    c-15.097-46.906-30.484-89.682-45.732-127.142C358.637,104.96,319.383,75.274,312.953,71.14    c-34.519-32.058-79.401-49.701-126.49-49.701C83.647,21.439,0,104.868,0,207.415c0,36.998,11.078,72.916,32.036,103.87    c20.213,29.853,48.125,53.137,80.719,67.336l0.005-0.012c0.512,0.22,1.065,0.391,1.659,0.505c2.828,1.161,5.746,2.211,8.578,3.23    l0.171,0.061c98.053,38.618,144.132,71.312,163.075,87.62c3.672,4.47,7.589,9.074,11.894,12.948    c0.519,1.084,1.296,2.054,2.301,2.811c18.824,14.186,41.677,21.998,64.35,21.998c56.177,0,101.88-45.91,101.88-102.341    C466.668,398.349,465.94,391.068,464.561,384.354z M364.788,492.465c-18.572,0-37.336-6.175-53.117-17.434    c-0.311-0.566-0.728-1.135-1.291-1.699c-0.178-0.177-0.362-0.345-0.557-0.503c-4.182-3.433-8.297-8.316-12.153-13.021    c-0.276-0.335-0.577-0.647-0.906-0.931c-19.38-16.81-66.989-50.953-168.094-90.763c-0.07-0.028-0.142-0.055-0.212-0.08    l-0.277-0.101c-2.983-1.072-6.066-2.182-8.818-3.35c-0.116-0.049-0.234-0.095-0.352-0.139c-0.441-0.161-0.85-0.268-1.216-0.336    C55.503,336.468,15.317,275.094,15.317,207.415c0-94.102,76.776-170.659,171.147-170.659c43.497,0,84.942,16.407,116.702,46.199    c0.536,0.503,1.138,0.92,1.783,1.245c3.673,2.481,41.02,30.263,95.374,163.783c15.123,37.15,30.395,79.62,45.392,126.227    c0.038,0.116,0.078,0.233,0.12,0.346c0.972,2.591,1.833,5.276,2.557,7.98c0.026,0.097,0.054,0.192,0.084,0.288    c0.005,0.016,0.037,0.115,0.042,0.131c0.695,2.191,0.81,3,0.822,3.098c0.024,0.344,0.073,0.685,0.144,1.022    c1.206,5.729,1.869,12.252,1.869,18.366C451.351,453.426,412.52,492.465,364.788,492.465z" fill="#e6852e"/>
	</g>
</g>
<g>
	<g>
		<path d="M276.041,131.522c-20.888-24.478-51.24-39.346-83.274-40.794c-32.331-1.45-62.974,10.278-86.274,33.056    c-20.173,19.721-32.444,46.257-34.552,74.724c-2.111,28.506,6.154,56.534,23.274,78.92c21.827,28.544,54.915,45.228,90.78,45.774    c0.225,0.004,0.447,0.005,0.671,0.005c16.294,0,30.659-9.085,37.599-23.834c6.982-14.838,4.695-31.818-5.968-44.313l-3.668-4.298    c-5.692-6.669-16.956-15.687-25.953-19.236c-2.481-0.978-4.467-2.327-5.904-4.011c-3.231-3.787-4.542-8.892-3.596-14.008    c0.981-5.31,4.257-9.832,8.987-12.409c3.95-2.151,8.852-2.513,13.449-0.989c7.934,2.629,10.436,9.111,11.137,14.086    c1.307,9.267,5.551,18.327,12.27,26.202l4.746,5.562c10.554,12.369,26.865,17.35,42.563,12.999    c15.597-4.32,26.94-16.891,29.604-32.805C307.647,191.993,298.21,157.502,276.041,131.522z M286.823,223.625    c-1.694,10.128-8.643,17.819-18.585,20.574c-9.902,2.742-20.178-0.393-26.822-8.18l-4.746-5.562    c-4.828-5.658-7.854-12.019-8.755-18.4c-1.822-12.91-9.653-22.562-21.484-26.485c-8.607-2.853-17.937-2.096-25.596,2.078    c-8.802,4.794-14.896,13.205-16.721,23.075c-1.788,9.675,0.766,19.419,7.007,26.734c3.082,3.612,7.098,6.409,11.936,8.318    c5.765,2.273,15.075,9.249,19.921,14.928l3.668,4.298c6.807,7.978,8.213,18.388,3.761,27.85    c-3.48,7.394-11.682,15.219-24.178,15.036c-31.146-0.475-59.884-14.967-78.846-39.763C76.5,227.74,80.722,170.396,117.2,134.736    c19.111-18.683,43.889-28.814,70.218-28.814c1.546,0,3.103,0.035,4.659,0.105c27.813,1.257,54.17,14.173,72.315,35.435    C283.615,163.992,291.791,193.939,286.823,223.625z" fill="#e6852e"/>
	</g>
</g>
<g>
	<g>
		<path d="M383.912,326.625c-31.758-27.665-80.103-24.333-107.767,7.424c-35.707,40.992,7.642,78.755,21.888,91.164    c9.488,8.266,31.882,27.774,56.337,27.774c12.26,0,25.043-4.909,36.967-18.596c0,0,0,0,0-0.001    C419.002,402.632,415.671,354.288,383.912,326.625z M379.788,424.33c-17.977,20.639-39.419,17.449-71.694-10.665    c-32.275-28.115-38.376-48.917-20.4-69.554c12.058-13.842,29.029-20.929,46.087-20.929c14.231,0,28.524,4.933,40.071,14.993    c12.299,10.714,19.69,25.576,20.811,41.848C395.785,396.295,390.501,412.03,379.788,424.33z" fill="#e6852e"/>
	</g>
</g>
<g>
	<g>
		<path d="M512,233.589c0-13.235-6.306-25.019-16.065-32.524l-1.345-79.865c-0.074-4.383-1.855-8.481-5.019-11.54    c-3.164-3.059-7.314-4.734-11.7-4.628l-18.105,0.304c-4.747,0.081-8.984,2.187-11.934,5.466l-7.405-23.576    c-1.313-4.182-4.184-7.605-8.084-9.641c-3.9-2.036-8.352-2.434-12.531-1.12l-17.275,5.425c-4.182,1.313-7.606,4.185-9.641,8.084    c-2.036,3.901-2.434,8.353-1.089,12.63l39.579,120.347c-0.926,3.435-1.427,7.005-1.427,10.637    c0,13.235,6.306,25.018,16.065,32.524l0.945,56.096c0.073,4.383,1.855,8.481,5.018,11.54c3.095,2.993,7.14,4.63,11.417,4.63    c0.095,0,0.19,0,0.284-0.002l18.105-0.304c9.065-0.153,16.316-7.653,16.165-16.72l-0.945-56.087    C506.159,257.734,512,246.331,512,233.589z M460.025,120.651l18.105-0.304c0.377,0.029,0.638,0.173,0.794,0.324    s0.345,0.411,0.351,0.785l1.216,72.238c-3.055-0.729-6.238-1.125-9.513-1.125c-3.707,0-7.347,0.491-10.848,1.449l-0.762-45.262    c0-0.06-0.002-0.121-0.003-0.181l-0.45-26.774C458.905,121.197,459.424,120.661,460.025,120.651z M441.597,204.974L406.388,97.917    c-0.112-0.357-0.016-0.662,0.085-0.855c0.102-0.193,0.296-0.447,0.654-0.56l17.277-5.425c0.354-0.112,0.66-0.016,0.853,0.085    c0.193,0.101,0.447,0.296,0.56,0.654l18.254,58.118l0.874,51.97C443.769,202.872,442.647,203.893,441.597,204.974z     M481.535,322.756l-18.105,0.304c-0.369,0.028-0.638-0.173-0.794-0.324c-0.156-0.151-0.345-0.411-0.351-0.785l-0.816-48.468    c3.055,0.728,6.237,1.125,9.512,1.125c3.756,0,7.391-0.518,10.849-1.467l0.815,48.466    C482.654,322.21,482.136,322.746,481.535,322.756z M470.979,259.293c-14.173,0-25.703-11.53-25.703-25.703    c0-8.321,4.06-16.167,10.861-20.988c4.352-3.085,9.484-4.716,14.843-4.716c14.173,0,25.704,11.531,25.704,25.704    C496.683,247.763,485.152,259.293,470.979,259.293z" fill="#e6852e"/>
	</g>
</g>
<g>
	<g>
		<path d="M364.629,4.218c-22.619,0-41.021,18.401-41.021,41.02s18.401,41.02,41.021,41.02c22.617,0,41.02-18.401,41.02-41.02    S387.246,4.218,364.629,4.218z M364.629,70.942c-14.173,0-25.704-11.53-25.704-25.703s11.531-25.703,25.704-25.703    c14.173,0,25.703,11.53,25.703,25.703S378.802,70.942,364.629,70.942z" fill="#e6852e"/>
	</g>
</g>
<g>
</g>
<g>
</g>
<g>
</g>
<g>
</g>
<g>
</g>
<g>
</g>
<g>
</g>
<g>
</g>
<g>
</g>
<g>
</g>
<g>
</g>
<g>
</g>
<g>
</g>
<g>
</g>
<g>
</g>
</svg>
