<?xml version="1.0" encoding="iso-8859-1"?>
<!-- Generator: Adobe Illustrator 19.0.0, SVG Export Plug-In . SVG Version: 6.00 Build 0)  -->
<svg xmlns="http://www.w3.org/2000/svg" xmlns:xlink="http://www.w3.org/1999/xlink" version="1.1" id="Layer_1" x="0px" y="0px" viewBox="0 0 512 512" style="enable-background:new 0 0 512 512;" xml:space="preserve" width="512px" height="512px">
<g>
	<g>
		<path d="M398.219,249.165c-17.322-35.645-33.684-69.312-33.684-109.042c0-46.016,9.263-65.24,17.434-82.2    C388.64,44.077,394.941,31,394.941,7.686c0-4.198-3.402-7.601-7.601-7.601H121.289c-4.198,0-7.601,3.403-7.601,7.601    c0,23.313,6.301,36.392,12.972,50.237c8.172,16.96,17.434,36.184,17.434,82.2c0,39.729-16.361,73.397-33.684,109.041    c-17.822,36.672-36.25,74.592-36.25,120.354c0,89.466,51.929,138.348,54.14,140.386c1.404,1.293,3.242,2.012,5.152,2.012h241.726    c1.908,0,3.747-0.718,5.151-2.012c2.211-2.037,54.141-50.919,54.141-140.386C434.468,323.757,416.039,285.837,398.219,249.165z     M124.082,255.81c17.313-35.622,35.214-72.459,35.214-115.687c0-49.487-10.502-71.284-18.941-88.799    c-5.535-11.488-10.065-20.891-11.194-36.037h250.305c-1.128,15.146-5.659,24.549-11.194,36.037    c-8.438,17.514-18.941,39.312-18.941,88.799c0,43.228,17.901,80.064,35.213,115.687c1.241,2.552,2.483,5.112,3.723,7.679H120.359    C121.599,260.922,122.841,258.363,124.082,255.81z M248.231,496.713H136.603c-9.233-9.685-47.24-54.018-47.24-127.195    c0-32.163,10.225-60.884,22.635-88.256L217.756,387.02c8.564,8.564,19.317,13.631,30.475,15.209V496.713z M228.506,376.271    l-97.578-97.577h249.809l-97.578,97.577C268.09,391.338,243.573,391.337,228.506,376.271z M372.022,496.713H263.433v-94.484    c11.157-1.578,21.912-6.646,30.475-15.209l103.665-103.666c11.98,26.744,21.691,54.819,21.691,86.164    c0.001,43.08-13.347,75.867-24.546,95.786C385.425,481.837,376.022,492.519,372.022,496.713z" fill="#FFFFFF"/>
	</g>
</g>
<g>
	<g>
		<path d="M111.035,171.489L67.707,128.16c-2.173-2.174-5.444-2.824-8.284-1.648c-2.841,1.177-4.693,3.949-4.693,7.023v25.845H7.601    c-4.198,0-7.601,3.403-7.601,7.601v23.311c0,4.198,3.403,7.601,7.601,7.601h50.085v19.341c0,3.075,1.852,5.846,4.693,7.023    c0.941,0.389,1.928,0.579,2.908,0.579c1.978,0,3.922-0.772,5.377-2.227l40.372-40.372    C114.003,179.27,114.003,174.457,111.035,171.489z M72.89,198.884v-8.592c0-4.198-3.403-7.601-7.601-7.601H15.203v-8.108h47.129    c4.198,0,7.602-3.403,7.602-7.601v-15.094l24.977,24.977L72.89,198.884z" fill="#FFFFFF"/>
	</g>
</g>
<g>
	<g>
		<path d="M504.399,152.708h-50.085v-19.341c0-3.075-1.852-5.846-4.693-7.023c-2.842-1.178-6.11-0.526-8.285,1.648l-40.372,40.372    c-2.969,2.969-2.969,7.782,0,10.749l43.328,43.328c1.455,1.454,3.399,2.227,5.378,2.227c0.979,0,1.966-0.19,2.907-0.579    c2.841-1.177,4.693-3.949,4.693-7.023v-25.845h47.129c4.199,0,7.601-3.403,7.601-7.602v-23.311    C512,156.111,508.598,152.708,504.399,152.708z M449.668,176.019c-4.199,0-7.601,3.403-7.601,7.601v15.095l-24.977-24.977    l22.021-22.021v8.592c0,4.198,3.402,7.601,7.601,7.601h50.085v8.108H449.668z" fill="#FFFFFF"/>
	</g>
</g>
<g>
	<g>
		<path d="M256.088,174.935c-4.198,0-7.601,3.403-7.601,7.601v16.076c0,4.199,3.403,7.601,7.602,7.601    c4.199,0,7.601-3.403,7.601-7.601v-16.076C263.689,178.338,260.287,174.935,256.088,174.935z" fill="#FFFFFF"/>
	</g>
</g>
<g>
</g>
<g>
</g>
<g>
</g>
<g>
</g>
<g>
</g>
<g>
</g>
<g>
</g>
<g>
</g>
<g>
</g>
<g>
</g>
<g>
</g>
<g>
</g>
<g>
</g>
<g>
</g>
<g>
</g>
</svg>
