<?xml version="1.0" encoding="iso-8859-1"?>
<!-- Generator: Adobe Illustrator 19.0.0, SVG Export Plug-In . SVG Version: 6.00 Build 0)  -->
<svg xmlns="http://www.w3.org/2000/svg" xmlns:xlink="http://www.w3.org/1999/xlink" version="1.1" id="Layer_1" x="0px" y="0px" viewBox="0 0 512 512" style="enable-background:new 0 0 512 512;" xml:space="preserve" width="512px" height="512px">
<g>
	<g>
		<path d="M435.023,169.882c1.49,1.49,3.444,2.236,5.397,2.236s3.907-0.745,5.397-2.236l24.797-24.797    c1.432-1.431,2.236-3.373,2.236-5.397s-0.804-3.966-2.236-5.397l-39.909-39.908c-1.431-1.432-3.373-2.236-5.397-2.236    s-3.966,0.804-5.397,2.236l-24.796,24.797c-2.981,2.981-2.981,7.815,0,10.795l3.005,3.005l-11.04,11.039    c-29.574-25.855-66.441-43.561-107.068-49.587v-29.15h9.313c4.216,0,7.633-3.418,7.633-7.633V7.634    c0-4.216-3.418-7.634-7.633-7.634h-80.495c-4.216,0-7.633,3.418-7.633,7.634v50.014c0,4.216,3.418,7.633,7.633,7.633h9.313V94.43    C117.003,109.432,39.15,196.828,39.15,302.072C39.15,417.827,133.323,512,249.077,512c115.754,0,209.927-94.173,209.927-209.928    c0-45.718-14.699-88.061-39.607-122.573l12.622-12.622L435.023,169.882z M425.308,110.575l29.113,29.113l-14.001,14.001    l-3.005-3.005l-23.105-23.105l-3.005-3.005L425.308,110.575z M216.461,50.014V15.267h0.001h65.228v34.747h-9.313h-46.603H216.461z     M264.744,65.281v26.865h-31.336V65.281H264.744z M443.736,302.072c0,107.337-87.324,194.661-194.66,194.661    c-107.336,0-194.661-87.324-194.661-194.661c0-107.335,87.324-194.66,194.661-194.66    C356.412,107.413,443.736,194.737,443.736,302.072z M411.13,166.176l-12.31-12.31l10.094-10.094l12.309,12.309L411.13,166.176z" fill="#8b7597"/>
	</g>
</g>
<g>
	<g>
		<path d="M249.076,123.388c-49.412,0-94.202,20.164-126.58,52.692c-0.524,0.316-1.023,0.69-1.475,1.142    c-0.499,0.499-0.906,1.051-1.238,1.636c-30.588,32.082-49.392,75.493-49.392,123.215c0,97.541,78.564,177.065,175.736,178.648    c0.107,0.004,0.211,0.016,0.319,0.016c0.064,0,0.126-0.008,0.19-0.01c0.813,0.011,1.624,0.032,2.441,0.032    c98.527,0,178.684-80.158,178.684-178.685S347.603,123.388,249.076,123.388z M368.302,413.708l-13.649-13.649    c-2.981-2.981-7.815-2.981-10.795,0c-2.981,2.981-2.981,7.815,0,10.795l13.499,13.499    c-27.689,24.547-63.738,39.858-103.278,41.053v-21.408c0-4.216-3.418-7.633-7.633-7.633c-4.216,0-7.634,3.418-7.634,7.633v21.161    c-38.79-2.416-73.952-18.422-100.777-43.307l14.408-14.408c2.981-2.981,2.981-7.814,0-10.795c-2.98-2.982-7.814-2.981-10.795,0    l-14.314,14.313c-24.194-27.022-39.553-62.11-41.47-100.682h20.475c4.216,0,7.634-3.418,7.634-7.634    c0-4.216-3.418-7.633-7.634-7.633H85.82c1.655-38.733,16.855-74.014,40.975-101.22l13.497,13.497    c1.49,1.49,3.444,2.236,5.397,2.236c1.953,0,3.907-0.745,5.397-2.236c2.981-2.981,2.981-7.815,0-10.795l-13.646-13.646    c26.897-25.201,62.294-41.426,101.37-43.86v18.324c0,4.216,3.418,7.634,7.633,7.634c4.216,0,7.634-3.418,7.634-7.634v-18.572    c39.831,1.204,76.118,16.73,103.886,41.592l-13.525,13.525c-2.981,2.981-2.981,7.815,0,10.795c1.49,1.49,3.444,2.236,5.397,2.236    c1.953,0,3.907-0.745,5.397-2.236l13.618-13.618c25.568,27.56,41.766,63.924,43.477,103.981h-19.295    c-4.216,0-7.633,3.418-7.633,7.633c0,4.216,3.42,7.63,7.635,7.63h19.252C410.305,350.173,393.945,386.338,368.302,413.708z" fill="#8b7597"/>
	</g>
</g>
<g>
	<g>
		<path d="M344.825,216.752c-2.009-1.982-4.949-2.696-7.644-1.854l-30.652,9.576c-1.192,0.372-2.275,1.032-3.152,1.92l-28.03,28.36    v-42.82c0-1.458-0.417-2.883-1.202-4.112l-20.405-31.913c-1.403-2.194-3.827-3.522-6.432-3.522s-5.028,1.327-6.431,3.522    l-20.405,31.913c-0.785,1.229-1.202,2.654-1.202,4.112v97.576c0,0.641,0.03,1.276,0.072,1.907l-30.199,30.553    c-2.964,2.998-2.935,7.832,0.063,10.795l21.434,21.185c1.488,1.471,3.427,2.205,5.366,2.205c1.968,0,3.937-0.757,5.429-2.268    l38.159-38.607c0.308-0.311,0.576-0.647,0.819-0.994c5.382-2.858,9.726-7.418,12.312-12.959c0.785-0.371,1.523-0.875,2.169-1.529    l60.774-61.488c0.878-0.888,1.525-1.979,1.884-3.176l9.218-30.761C347.581,221.668,346.833,218.737,344.825,216.752z     M215.943,357.727l-10.575-10.453l20.046-20.281c3.16,3.95,7.362,7.033,12.188,8.82L215.943,357.727z M260.08,309.509    c0,7.042-5.729,12.771-12.771,12.771s-12.771-5.729-12.771-12.771v-95.344l12.771-19.974l12.771,19.974V309.509z M323.473,248.932    l-48.127,48.693v-21.153l37.552-37.993l15.123-4.726L323.473,248.932z" fill="#8b7597"/>
	</g>
</g>
<g>
</g>
<g>
</g>
<g>
</g>
<g>
</g>
<g>
</g>
<g>
</g>
<g>
</g>
<g>
</g>
<g>
</g>
<g>
</g>
<g>
</g>
<g>
</g>
<g>
</g>
<g>
</g>
<g>
</g>
</svg>
