<?xml version="1.0" encoding="iso-8859-1"?>
<!-- Generator: Adobe Illustrator 19.0.0, SVG Export Plug-In . SVG Version: 6.00 Build 0)  -->
<svg xmlns="http://www.w3.org/2000/svg" xmlns:xlink="http://www.w3.org/1999/xlink" version="1.1" id="Layer_1" x="0px" y="0px" viewBox="0 0 512.001 512.001" style="enable-background:new 0 0 512.001 512.001;" xml:space="preserve" width="512px" height="512px">
<g>
	<g>
		<path d="M504.433,219.102h-35.864v-37.747c0-11.405-9.278-20.684-20.684-20.684h-24.31c-1.924,0-3.781,0.284-5.549,0.778v-7.614    c0-11.405-9.278-20.684-20.684-20.684h-40.158c-11.405,0-20.684,9.278-20.684,20.684v65.267H175.499v-65.267    c0-11.405-9.278-20.684-20.684-20.684h-40.158c-11.405,0-20.684,9.278-20.684,20.684v7.614c-1.769-0.494-3.625-0.778-5.549-0.778    H64.116c-11.405,0-20.684,9.278-20.684,20.684v37.747H7.567c-4.18,0-7.567,3.388-7.567,7.567v58.663    c0,4.179,3.387,7.567,7.567,7.567h35.865v37.747c0,11.405,9.278,20.684,20.684,20.684h24.309c1.924,0,3.781-0.285,5.549-0.778    v7.614c0,11.405,9.278,20.684,20.684,20.684h40.158c11.405,0,20.684-9.279,20.684-20.684v-65.267h161.002v65.267    c0,11.405,9.279,20.684,20.684,20.684h40.158c11.405,0,20.684-9.278,20.684-20.684v-7.614c1.769,0.494,3.625,0.778,5.549,0.778    h24.31c11.405,0,20.684-9.278,20.684-20.684v-37.747h35.864c4.18,0,7.567-3.388,7.567-7.567v-58.663    C512,222.49,508.613,219.102,504.433,219.102z M43.432,277.765H15.135v-43.529h28.297V277.765z M93.974,330.647    c0,3.059-2.489,5.549-5.549,5.549H64.116c-3.059,0-5.549-2.489-5.549-5.549v-45.315v-58.663v-45.315    c0-3.06,2.49-5.549,5.549-5.549h24.309c3.06,0,5.549,2.489,5.549,5.549V330.647z M160.364,226.67v58.663v72.833    c0,3.06-2.49,5.549-5.549,5.549h-40.158c-3.059,0-5.549-2.489-5.549-5.549v-27.52V181.354v-27.519c0-3.06,2.49-5.549,5.549-5.549    h40.158c3.059,0,5.549,2.489,5.549,5.549V226.67z M336.5,277.765H175.499v-43.529H336.5V277.765z M402.892,181.353v149.293v27.521    c0,3.06-2.49,5.549-5.549,5.549h-40.158c-3.059,0-5.549-2.489-5.549-5.549v-72.834v-58.663v-72.834c0-3.06,2.49-5.549,5.549-5.549    h40.158c3.059,0,5.549,2.489,5.549,5.549V181.353z M453.435,226.669v58.663v45.315c0,3.06-2.49,5.549-5.549,5.549h-24.31    c-3.059,0-5.549-2.489-5.549-5.549V181.354c0-3.06,2.49-5.549,5.549-5.549h24.31c3.059,0,5.549,2.489,5.549,5.549V226.669z     M496.865,277.765h-28.296v-43.529h28.296V277.765z" fill="#FFFFFF"/>
	</g>
</g>
<g>
</g>
<g>
</g>
<g>
</g>
<g>
</g>
<g>
</g>
<g>
</g>
<g>
</g>
<g>
</g>
<g>
</g>
<g>
</g>
<g>
</g>
<g>
</g>
<g>
</g>
<g>
</g>
<g>
</g>
</svg>
