<?xml version="1.0" standalone="no"?>
<!DOCTYPE svg PUBLIC "-//W3C//DTD SVG 1.1//EN" "http://www.w3.org/Graphics/SVG/1.1/DTD/svg11.dtd" >
<svg xmlns="http://www.w3.org/2000/svg">
<metadata>
This is a custom SVG font generated by IcoMoon.
<iconset grid="32"></iconset>
</metadata>
<defs>
<font id="icomoon" horiz-adv-x="1024" >
<font-face units-per-em="1024" ascent="992" descent="-32" />
<missing-glyph horiz-adv-x="1024" />
<glyph unicode="&#xe1dd;" d="M 160.00,32.00L 160.00,800.00 l 133.344,128.00l 405.344,0.00 L 832.00,800.00l0.00-768.00 L 160.00,32.00 z M 800.00,288.00l0.00,32.00 l0.00,192.00 l0.00,32.00 L 800.00,768.00 L 192.00,768.00 l0.00-224.00 l0.00-32.00 l0.00-192.00 l0.00-32.00 l0.00-224.00 l 608.00,0.00 L 800.00,288.00 z M 768.00,544.00L 224.00,544.00 
	L 224.00,736.00 l 544.00,0.00 L 768.00,544.00 z M 576.00,672.00l-160.00,0.00 l0.00-32.00 l 160.00,0.00 L 576.00,672.00 z M 768.00,320.00L 224.00,320.00 l0.00,192.00 l 544.00,0.00 L 768.00,320.00 z M 576.00,448.00l-160.00,0.00 l0.00-32.00 l 160.00,0.00 L 576.00,448.00 z M 768.00,96.00L 224.00,96.00 l0.00,192.00 l 544.00,0.00 L 768.00,96.00 z M 576.00,224.00l-160.00,0.00 l0.00-32.00 l 160.00,0.00 L 576.00,224.00 z"  />
<glyph unicode="&#xe1de;" d="M 160.00,0.00L 160.00,800.00 l 133.344,128.00l 405.344,0.00 L 832.00,800.00l0.00-800.00 L 160.00,0.00 z M 192.00,32.00l 608.00,0.00 L 800.00,768.00 L 192.00,768.00 L 192.00,32.00 z M 224.00,384.00l 544.00,0.00 l0.00-320.00 L 224.00,64.00 L 224.00,384.00 z M 416.00,256.00l0.00-32.00 l 32.00,0.00 
	l 96.00,0.00 l 32.00,0.00 l0.00,32.00 l0.00,64.00 l-32.00,0.00 l0.00-64.00 l-96.00,0.00 l0.00,64.00 l-32.00,0.00 L 416.00,256.00 z M 224.00,736.00l 544.00,0.00 l0.00-320.00 L 224.00,416.00 L 224.00,736.00 z M 416.00,576.00l 32.00,0.00 l 96.00,0.00 l 32.00,0.00 l0.00,32.00 l0.00,64.00 l-32.00,0.00 l0.00-64.00 l-96.00,0.00 l0.00,64.00 l-32.00,0.00 L 416.00,576.00 z"  />
<glyph unicode="&#xe1e2;" d="M 670.016,863.008L 224.00,863.008 l0.00-766.016 l 320.00,0.00 l0.00,64.00 L 288.00,160.992 L 288.00,799.008 l 320.00,0.00 l0.00-96.00 l 128.00,0.00 l0.00-352.00 l 64.00,0.00 L 800.00,736.992 L 670.016,863.008z
			 M 736.00,287.008l-64.00,0.00 l0.00-64.00 l-64.00,0.00 l0.00-64.00 l 64.00,0.00 l0.00-62.016 l 64.00,0.00 l0.00,64.00 l 64.00,0.00 l0.00,62.016 l-64.00,0.00 L 736.00,287.008 z"  />
<glyph unicode="&#xe1e3;" d="M 670.016,863.008L 224.00,863.008 l0.00-766.016 l 320.00,0.00 l0.00,64.00 L 288.00,160.992 L 288.00,799.008 l 320.00,0.00 l0.00-96.00 l 128.00,0.00 l0.00-352.00 l 64.00,0.00 L 800.00,736.992 L 670.016,863.008z
			 M 608.00,191.008l 192.00,1.984l0.00,62.016 l-192.00,0.00 L 608.00,191.008 z"  />
<glyph unicode="&#xe1e4;" d="M 352.00,512.00l 32.00,0.00 l0.00,32.00 l-32.00,0.00 L 352.00,512.00 z M 352.00,416.00l 32.00,0.00 l0.00,32.00 l-32.00,0.00 L 352.00,416.00 z M 352.00,608.00l 32.00,0.00 l0.00,32.00 l-32.00,0.00 L 352.00,608.00 z M 352.00,320.00l 32.00,0.00 l0.00,32.00 l-32.00,0.00 L 352.00,320.00 z
			 M 352.00,224.00l 32.00,0.00 l0.00,32.00 l-32.00,0.00 L 352.00,224.00 z M 416.00,416.00l 256.00,0.00 l0.00,32.00 l-256.00,0.00 L 416.00,416.00 z M 416.00,608.00l 256.00,0.00 l0.00,32.00 l-256.00,0.00 L 416.00,608.00 z M 670.016,864.00L 224.00,864.00 l0.00-768.00 l 576.00,0.00 L 800.00,736.00 L 670.016,864.00z M 736.00,161.984L 288.00,161.984 L 288.00,800.00 l 320.00,0.00 l0.00-94.016 l 128.00,0.00 L 736.00,161.984 z
			 M 416.00,320.00l 256.00,0.00 l0.00,32.00 l-256.00,0.00 L 416.00,320.00 z M 416.00,512.00l 256.00,0.00 l0.00,32.00 l-256.00,0.00 L 416.00,512.00 z M 416.00,224.00l 256.00,0.00 l0.00,32.00 l-256.00,0.00 L 416.00,224.00 z"  />
<glyph unicode="&#xe1e5;" d="M 543.488,478.496l-256.00,0.00 l0.00-28.992 l 256.00,0.00 L 543.488,478.496 z M 543.488,382.496l-256.00,0.00 l0.00-31.008 l 256.00,0.00 L 543.488,382.496 z
			 M 384.512,863.488l0.00-96.512 L 287.488,766.976 l0.00-96.512 L 192.992,670.464 l0.00-606.016 L 640.00,64.448 l0.00,96.992 l 94.496,0.00 l0.00,94.016 l 96.512,0.00 l0.00,608.00 L 384.512,863.456 z M 608.992,95.488L 224.00,95.488 L 224.00,641.504 l 384.992,0.00 L 608.992,95.488 z
			 M 703.488,190.496L 640.00,190.496 l0.00,480.00 L 318.496,670.496 L 318.496,736.00 l 384.992,0.00 L 703.488,190.496 z M 800.00,286.496l-65.504,0.00 L 734.496,767.008 l-319.008,0.00 L 415.488,832.512 L 800.00,832.512 L 800.00,286.496 z M 543.488,191.008l-256.00,0.00 L 287.488,160.00 l 256.00,0.00 L 543.488,191.008 z
			 M 543.488,287.488l-256.00,0.00 l0.00-31.008 l 256.00,0.00 L 543.488,287.488 z M 543.968,575.488l-256.00,0.00 l0.00-32.00 l 256.00,0.00 L 543.968,575.488 z"  />
<glyph unicode="&#xe1e6;" d="M 703.968,864.00l-384.00,0.00 C 284.64,864.00, 256.00,835.328, 256.00,800.00l0.00-640.00 c0.00-35.328, 28.64-64.00, 63.968-64.00l 384.00,0.00 
			C 739.328,96.00, 768.00,124.672, 768.00,160.00L 768.00,800.00 C 768.00,835.328, 739.328,864.00, 703.968,864.00z M 416.00,832.00l 160.00,0.00 l 1.984-32.00L 416.00,800.00 L 416.00,832.00 z M 511.328,144.00c-17.664,0.00-32.00,14.304-32.00,32.00s 14.336,32.00, 32.00,32.00
			c 17.696,0.00, 32.00-14.304, 32.00-32.00S 528.992,144.00, 511.328,144.00z M 703.968,256.00l-384.00,0.00 l 0.672,512.00l 383.328,0.00 L 703.968,256.00 z"  />
<glyph unicode="&#xe1e7;" d="M 736.032,864.00l-480.00,0.00 C 220.672,864.00, 192.00,835.328, 192.00,800.00l0.00-640.00 c0.00-35.328, 28.672-64.00, 64.032-64.00l 480.00,0.00 
			C 771.36,96.00, 800.00,124.672, 800.00,160.00L 800.00,800.00 C 800.00,835.328, 771.36,864.00, 736.032,864.00z M 496.00,128.00c-17.664,0.00-31.968,14.304-31.968,32.00s 14.304,32.00, 31.968,32.00
			c 17.696,0.00, 32.032-14.304, 32.032-32.00S 513.696,128.00, 496.00,128.00z M 735.712,225.984L 254.88,225.984 L 254.88,799.168 l 480.832,0.00 L 735.712,225.984 z"  />
<glyph unicode="&#xe1e8;" d="M 896.00,864.00L 128.00,864.00 C 92.64,864.00, 64.00,835.328, 64.00,800.00l0.00-640.00 c0.00-35.328, 28.64-64.00, 64.00-64.00l 768.00,0.00 c 35.328,0.00, 64.00,28.672, 64.00,64.00L 960.00,800.00 
			C 960.00,835.328, 931.328,864.00, 896.00,864.00z M 369.984,816.00c 17.664,0.00, 31.968-14.336, 31.968-32.00s-14.304-32.00-31.968-32.00c-17.696,0.00-32.00,14.336-32.00,32.00S 352.32,816.00, 369.984,816.00z
			 M 272.00,816.00c 17.664,0.00, 32.00-14.336, 32.00-32.00s-14.336-32.00-32.00-32.00c-17.696,0.00-32.00,14.336-32.00,32.00S 254.304,816.00, 272.00,816.00z M 175.968,816.00c 17.696,0.00, 32.00-14.336, 32.00-32.00
			s-14.304-32.00-32.00-32.00C 158.304,752.00, 144.00,766.336, 144.00,784.00S 158.304,816.00, 175.968,816.00z M 896.00,160.00L 128.00,160.00 L 128.00,703.328 l 768.00,0.00 L 896.00,160.00 z M 896.00,767.328L 448.00,767.328 l0.00,32.00 l 448.00,0.00 L 896.00,767.328 z"  />
<glyph unicode="&#xe1e9;" d="M 544.00,193.984l-96.00,0.00 L 448.00,144.00 L 352.00,128.00l0.00-32.00 l 286.016,0.00 l0.00,30.016 L 544.00,144.00L 544.00,193.984 z M 864.00,864.00L 128.00,864.00 
			C 92.64,864.00, 64.00,835.36, 64.00,800.00l0.00-448.00 C 64.00,316.672, 92.64,288.00, 128.00,288.00l 736.00,0.00 c 35.36,0.00, 64.00,28.672, 64.00,64.00L 928.00,800.00 C 928.00,835.36, 899.36,864.00, 864.00,864.00z M 492.00,336.00
			c-17.664,0.00-32.00,14.336-32.00,32.00c0.00,17.696, 14.336,32.00, 32.00,32.00c 17.696,0.00, 32.00-14.304, 32.00-32.00C 524.00,350.336, 509.664,336.00, 492.00,336.00z M 864.00,448.00L 128.00,448.00 L 128.00,800.00 l 736.00,0.00 L 864.00,448.00 z"  />
<glyph unicode="&#xe1f0;" d="M 128.00,800.00l0.00-704.00 l 704.00,0.00 L 832.00,800.00 L 128.00,800.00 z M 256.00,160.00L 192.00,160.00 l0.00,64.00 l 64.00,0.00 L 256.00,160.00 z M 256.00,256.00L 192.00,256.00 l0.00,64.00 l 64.00,0.00 L 256.00,256.00 z M 256.00,352.00L 192.00,352.00 l0.00,64.00 l 64.00,0.00 L 256.00,352.00 z M 256.00,480.00L 192.00,480.00 l0.00,64.00 
			l 64.00,0.00 L 256.00,480.00 z M 256.00,576.00L 192.00,576.00 l0.00,64.00 l 64.00,0.00 L 256.00,576.00 z M 256.00,672.00L 192.00,672.00 L 192.00,736.00 l 64.00,0.00 L 256.00,672.00 z M 640.00,160.00L 320.00,160.00 l0.00,256.00 l 320.00,0.00 L 640.00,160.00 z M 640.00,480.00L 320.00,480.00 L 320.00,736.00 l 320.00,0.00 L 640.00,480.00 z M 768.00,160.00l-64.00,0.00 l0.00,64.00 l 64.00,0.00 L 768.00,160.00 z M 768.00,256.00l-64.00,0.00 l0.00,64.00 l 64.00,0.00 L 768.00,256.00 z M 768.00,352.00l-64.00,0.00 
			l0.00,64.00 l 64.00,0.00 L 768.00,352.00 z M 768.00,480.00l-64.00,0.00 l0.00,64.00 l 64.00,0.00 L 768.00,480.00 z M 768.00,576.00l-64.00,0.00 l0.00,64.00 l 64.00,0.00 L 768.00,576.00 z M 768.00,672.00l-64.00,0.00 L 704.00,736.00 l 64.00,0.00 L 768.00,672.00 z"  />
<glyph unicode="&#xe1fd;" d="M 691.20,736.00l-352.00,0.00 L 128.00,448.00l0.00-160.00 c0.00-35.328, 28.672-64.00, 64.00-64.00l 640.00,0.00 c 35.328,0.00, 64.00,28.672, 64.00,64.00l0.00,160.00 L 691.20,736.00z
			 M 718.88,447.264l-65.664-96.064l-274.816,0.64l-70.464,95.808l-130.752,0.768L 358.40,703.584L 672.00,703.584 l 179.20-255.20L 718.88,447.264z"  />
<glyph unicode="&#xe1fe;" d="M 691.20,736.00l-352.00,0.00 L 128.00,448.00l0.00-160.00 c0.00-35.328, 28.672-64.00, 64.00-64.00l 640.00,0.00 c 35.328,0.00, 64.00,28.672, 64.00,64.00l0.00,160.00 L 691.20,736.00z
			 M 718.88,447.264l-65.664-96.064l-274.816,0.64l-70.464,95.808l-130.752,0.768l 181.184,255.20L 672.00,703.616 l 179.20-255.20L 718.88,447.264z M 556.00,640.00
			c0.00,17.664-10.336,32.00-28.00,32.00c-17.696,0.00-30.016-14.336-30.016-32.00l0.00-126.016 L 420.00,512.00l 108.00-121.984L 633.984,512.00l-78.016,1.984L 555.968,640.00 z"  />
<glyph unicode="&#xe1ff;" d="M 691.20,736.00l-352.00,0.00 L 128.00,448.00l0.00-160.00 c0.00-35.328, 28.672-64.00, 64.00-64.00l 640.00,0.00 c 35.328,0.00, 64.00,28.672, 64.00,64.00l0.00,160.00 L 691.20,736.00z
			 M 718.88,447.296l-65.664-96.096l-274.848,0.64l-70.432,95.84l-130.752,0.736l 181.184,255.20L 672.00,703.616 l 179.20-255.20L 718.88,447.296z M 420.00,544.00
			l 78.016-1.984L 498.016,416.00 c0.00-17.696, 12.32-32.00, 30.016-32.00c 17.664,0.00, 28.00,14.304, 28.00,32.00l0.00,126.016 L 633.984,544.00L 528.00,665.984L 420.00,544.00z"  />
<glyph unicode="&#xe200;" d="M 691.20,736.00l-352.00,0.00 L 128.00,416.00l0.00-160.00 c0.00-35.328, 28.672-64.00, 64.00-64.00l 640.00,0.00 c 35.328,0.00, 64.00,28.672, 64.00,64.00l0.00,160.00 L 691.20,736.00z
			 M 718.88,415.264l-65.664-128.064l-274.848,0.64l-70.432,127.84l-130.752,0.736l 181.184,287.20L 672.00,703.616 l 179.20-287.20L 718.88,415.264z M 384.00,320.00l 256.00,0.00 l0.00,32.00 l-256.00,0.00 L 384.00,320.00 z
			 M 378.656,672.096L 237.344,448.00l 557.312,0.00 l-144.00,224.096L 378.656,672.096 z M 352.00,384.00l 320.00,0.00 l0.00,32.00 L 352.00,416.00 L 352.00,384.00 z"  />
<glyph unicode="&#xe20b;" d="M 831.84,381.824l-42.368,0.00 c-6.88-24.928-16.736-48.576-29.376-70.496l 39.168-39.136
	c 25.056-25.056, 25.056-65.696,0.00-90.752l-22.688-22.688c-25.056-25.056-65.696-25.056-90.752,0.00L 646.40,198.144c-21.856-12.448-45.408-22.144-70.208-28.896
	l0.00-41.088 c0.00-35.424-28.704-64.16-64.16-64.16l-32.064,0.00 c-35.424,0.00-64.192,28.704-64.192,64.16l0.00,41.088 c-24.768,6.752-48.352,16.48-70.208,28.896
	l-39.392-39.392c-25.024-25.056-65.664-25.056-90.72,0.00L 192.736,181.44c-25.056,25.056-25.056,65.696,0.00,90.752l 39.168,39.136
	c-12.64,21.952-22.496,45.568-29.408,70.496L 160.16,381.824 C 124.704,381.824, 96.00,410.528, 96.00,445.952l0.00,32.096 c0.00,35.424, 28.704,64.16, 64.16,64.16l 41.856,0.00 
	C 208.64,566.88, 218.112,590.368, 230.40,612.16l-37.664,37.632c-25.056,25.056-25.056,65.696,0.00,90.752l 22.688,22.656c 25.056,25.056, 65.696,25.056, 90.72,0.00
	l 36.896-36.896c 22.592,13.152, 46.976,23.392, 72.704,30.40L 415.744,799.84 C 415.776,835.296, 444.544,864.00, 479.968,864.00l 32.064,0.00 c 35.424,0.00, 64.16-28.704, 64.16-64.16
	l0.00-43.104 c 25.792-7.04, 50.144-17.28, 72.704-30.432l 36.896,36.896c 25.056,25.056, 65.696,25.056, 90.752,0.00l 22.688-22.656
	c 25.056-25.056, 25.056-65.696,0.00-90.752L 761.60,612.16c 12.288-21.792, 21.76-45.28, 28.416-69.984l 41.856,0.00 c 35.424,0.00, 64.16-28.736, 64.16-64.16l0.00-32.096 
	C 896.00,410.528, 867.296,381.824, 831.84,381.824z M 496.00,637.44c-97.44,0.00-176.448-79.008-176.448-176.448s 79.008-176.448, 176.448-176.448
	s 176.448,79.008, 176.448,176.448S 593.44,637.44, 496.00,637.44z M 496.00,382.816c-44.288,0.00-80.224,35.872-80.224,80.192c0.00,44.288, 35.936,80.192, 80.224,80.192
	s 80.192-35.904, 80.192-80.192C 576.192,418.688, 540.288,382.816, 496.00,382.816z"  />
<glyph unicode="&#xe20c;" d="M 680.576,286.752l 22.688,22.688c 25.056,25.056, 25.056,65.696,0.00,90.752l-39.168,39.136
			c 12.608,21.952, 22.496,45.568, 29.376,70.496l 42.368,0.00 c 35.424,0.00, 64.16,28.736, 64.16,64.16l0.00,32.064 c0.00,35.424-28.704,64.16-64.16,64.16l-41.856,0.00 
			C 687.328,694.88, 677.888,718.368, 665.60,740.16l 37.664,37.632c 25.056,25.056, 25.056,65.696,0.00,90.752l-22.688,22.656
			c-25.056,25.056-65.696,25.056-90.752,0.00l-36.896-36.896c-22.56,13.152-46.944,23.392-72.704,30.432L 480.224,927.84 C 480.192,963.296, 451.456,992.00, 416.032,992.00
			l-32.064,0.00 c-35.424,0.00-64.192-28.704-64.192-64.16l0.00-43.104 c-25.76-7.04-50.112-17.28-72.704-30.432L 210.144,891.232
			c-25.024,25.056-65.664,25.056-90.72,0.00L 96.736,868.576c-25.056-25.056-25.056-65.696,0.00-90.752L 134.368,740.16c-12.256-21.792-21.76-45.28-28.384-69.984
			L 64.16,670.176 C 28.704,670.208,0.00,641.472,0.00,606.016l0.00-32.064 c0.00-35.424, 28.704-64.16, 64.16-64.16l 42.336,0.00 c 6.912-24.928, 16.768-48.544, 29.408-70.496
			l-39.168-39.136c-25.056-25.056-25.056-65.696,0.00-90.752l 22.688-22.688c 25.056-25.056, 65.696-25.056, 90.72,0.00l 39.392,39.392
			c 21.888-12.448, 45.408-22.144, 70.208-28.896l0.00-41.088 c0.00-35.392, 28.736-64.16, 64.192-64.16l 32.064,0.00 c 35.424,0.00, 64.16,28.736, 64.16,64.16l0.00,41.088 
			c 24.80,6.752, 48.384,16.48, 70.208,28.896l 39.392-39.392C 614.88,261.696, 655.488,261.696, 680.576,286.752z M 400.00,412.576
			c-97.44,0.00-176.448,78.976-176.448,176.448c0.00,97.44, 79.008,176.448, 176.448,176.448s 176.448-79.008, 176.448-176.448
			C 576.448,491.552, 497.44,412.576, 400.00,412.576z M 400.00,671.20c-44.32,0.00-80.224-35.904-80.224-80.192s 35.904-80.192, 80.224-80.192
			c 44.288,0.00, 80.192,35.904, 80.192,80.192S 444.288,671.20, 400.00,671.20z M 801.984,68.416c-21.504,0.00-38.912-17.408-38.912-38.912
			c0.00-21.472, 17.408-38.88, 38.912-38.88c 21.472,0.00, 38.912,17.408, 38.912,38.88C 840.896,51.008, 823.456,68.416, 801.984,68.416z M 964.864,67.936
			l-20.288,0.00 c-3.232,11.968-7.84,23.36-13.792,33.952l 18.24,18.24c 12.16,12.16, 12.16,31.872,0.00,44.00l-11.008,11.008c-12.16,12.16-31.84,12.16-44.00,0.00
			l-17.92-17.888c-10.944,6.368-22.784,11.328-35.264,14.752l0.00,20.864 c0.00,17.184-13.952,31.136-31.136,31.136l-15.552,0.00 
			c-17.184,0.00-31.136-13.952-31.136-31.136l0.00-20.864 c-12.512-3.424-24.32-8.384-35.264-14.752l-17.92,17.888c-12.16,12.16-31.872,12.16-44.00,0.00
			l-11.008-11.008c-12.16-12.128-12.16-31.84,0.00-44.00l 18.24-18.24c-5.984-10.56-10.56-21.984-13.792-33.952l-20.288,0.00 
			c-17.184,0.00-31.136-13.952-31.136-31.136l0.00-15.552 c0.00-17.184, 13.952-31.136, 31.136-31.136l 20.544,0.00 c 3.328-12.064, 8.128-23.52, 14.24-34.176
			l-18.976-18.976c-12.16-12.16-12.16-31.84,0.00-44.032l 11.008-11.008c 12.128-12.128, 31.84-12.128, 44.00,0.00l 19.104,19.136
			c 10.624-6.016, 22.016-10.752, 34.048-14.016l0.00-19.936 c0.00-17.184, 13.952-31.136, 31.136-31.136l 15.552,0.00 c 17.184,0.00, 31.136,13.952, 31.136,31.136l0.00,19.936 
			c 12.032,3.264, 23.424,7.968, 34.016,14.016l 19.136-19.136c 12.16-12.128, 31.84-12.128, 44.00,0.00l 11.008,11.008c 12.16,12.192, 12.16,31.872,0.00,44.032
			l-18.976,18.976c 6.08,10.656, 10.912,22.112, 14.24,34.176l 20.544,0.00 c 17.184,0.00, 31.136,13.952, 31.136,31.136L 995.872,36.80 
			C 996.00,54.016, 982.048,67.936, 964.864,67.936z M 801.984-57.024c-47.264,0.00-85.568,38.304-85.568,85.60c0.00,47.264, 38.304,85.568, 85.568,85.568
			s 85.568-38.304, 85.568-85.568C 887.552-18.72, 849.248-57.024, 801.984-57.024z"  />
<glyph unicode="&#xe20d;" d="M 850.336,528.00L 912.00,528.00 l0.00-96.00 l-61.664,0.00 c-4.192-30.592-11.968-60.032-23.488-87.584l 53.408-30.848
	l-48.00-83.136l-54.336,31.36c-18.656-23.552-40.32-44.544-64.352-62.656l 32.00-55.392l-83.136-48.00l-32.672,56.544
	c-27.168-10.592-55.84-17.984-85.792-21.536L 543.968,64.00 l-96.00,0.00 l0.00,68.576 c-29.184,4.512-57.312,12.192-83.648,23.392l-34.784-60.224l-83.136,48.00l 35.616,61.696
	c-22.304,17.888-42.208,38.496-59.584,61.216l-62.752-36.224l-48.00,83.136l 63.328,36.576c-10.272,25.952-17.472,53.376-21.376,81.888L 80.00,432.032 l0.00,96.00 l 73.664,0.00 
	c 3.904,28.544, 11.104,55.968, 21.376,81.888l-63.328,36.576l 48.00,83.136l 62.752-36.224c 17.376,22.72, 37.28,43.328, 59.584,61.248L 246.432,816.256
	l 83.136,48.00l 34.784-60.224c 26.336,11.20, 54.464,18.912, 83.648,23.392L 448.00,896.00 l 96.00,0.00 l0.00-66.72 c 29.952-3.552, 58.624-10.944, 85.792-21.536l 32.672,56.544l 83.136-48.00
	l-32.00-55.424c 24.032-18.112, 45.696-39.104, 64.352-62.656l 54.336,31.36l 48.00-83.136l-53.408-30.848C 838.368,588.032, 846.144,558.592, 850.336,528.00z
	 M 495.712,688.288c-114.88,0.00-208.00-93.12-208.00-208.00s 93.12-208.00, 208.00-208.00s 208.00,93.12, 208.00,208.00S 610.592,688.288, 495.712,688.288z M 496.00,400.00
	c-44.192,0.00-80.00,35.808-80.00,80.00s 35.808,80.00, 80.00,80.00S 576.00,524.192, 576.00,480.00S 540.192,400.00, 496.00,400.00z"  />
<glyph unicode="&#xe20e;" d="M 977.76,184.992L 577.152,870.944c-33.408,33.408-87.616,33.408-121.024,0.00L 55.488,184.992
			c-33.408-33.376-33.408-87.552,0.00-120.992l 922.24,0.00 C 1011.20,97.44, 1011.20,151.616, 977.76,184.992z M 479.744,624.704c0.00,26.528, 21.504,48.00, 48.00,48.00
			s 48.00-21.472, 48.00-48.00l0.00-224.00 c0.00-26.496-21.504-48.00-48.00-48.00s-48.00,21.504-48.00,48.00L 479.744,624.704 z M 528.032,192.448c-26.496,0.00-48.00,21.44-48.00,48.00
			c0.00,26.496, 21.504,48.00, 48.00,48.00s 48.00-21.504, 48.00-48.00C 576.032,213.888, 554.528,192.448, 528.032,192.448z"  />
<glyph unicode="&#xe213;" d="M 626.272,644.576l-100.608-151.424l-73.12,73.696l-73.152-118.304l-54.848,54.304L 265.152,384.00
			l 466.304,0.00 L 626.272,644.576z M 128.00,832.00l0.00-736.00 l 736.00,0.00 L 864.00,832.00 L 128.00,832.00 z M 800.00,320.00L 192.00,320.00 L 192.00,768.00 l 608.00,0.00 L 800.00,320.00 z M 335.712,573.728c 26.528,0.00, 48.00,21.472, 48.00,48.00s-21.472,48.00-48.00,48.00
			c-26.496,0.00-48.00-21.472-48.00-48.00S 309.216,573.728, 335.712,573.728z"  />
<glyph unicode="&#xe214;" d="M 887.456,363.68l-42.112-157.248l-1.184-0.32l-46.016-171.744l-297.472,79.68l-3.552-0.928
	l-313.216,83.904l-0.544,2.048L 100.00,221.44l 15.776,58.912l 1.024-0.288L 271.328,856.768L 270.304,857.056l 16.288,60.704l 547.36-146.688l 0.512,1.792
	l 150.752-40.384L 886.912,365.76L 887.456,363.68z M 908.224,688.064L 331.488,842.592l-113.856-424.96l 576.672-154.496L 908.224,688.064z M 391.488,563.456
	l 38.208-65.44l 99.424,93.60l 50.656-88.512l 133.92,118.048l 33.504-273.888L 304.896,465.856L 391.488,563.456z M 420.064,627.84
	c-25.12,6.752-40.064,32.608-33.312,57.728c 6.72,25.152, 32.576,40.096, 57.728,33.344c 25.12-6.752, 40.064-32.608, 33.312-57.728
	C 471.072,636.032, 445.216,621.088, 420.064,627.84z M 692.48,848.672l-13.248-3.552l-121.44,32.544l 179.136,48.00l 27.712-103.392l-70.08,18.784L 692.48,848.672
	z M 115.744,694.112l 39.744-148.32l-32.544-121.408L 38.784,738.56L 220.16,787.168l-18.784-70.08L 115.744,694.112z M 225.856,40.448L 193.28,161.984l 243.104-65.152
	L 225.856,40.448z"  />
<glyph unicode="&#xe215;" d="M 851.328,45.216l-83.968,23.04l-0.192,232.256l 80.32-22.592l 115.808,432.288L 376.672,867.392
	l-38.656-144.192L 271.84,723.20 l 59.616,222.464l 710.176-190.272L 851.328,45.216z M 737.248-32.00L0.00-32.00 L0.00,703.264 l 737.248,0.00 L 737.248-32.00 z M 673.312,639.328L 63.936,639.328 l0.00-447.52 l 609.376,0.00 
	L 673.312,639.328 z M 251.168,320.224l 73.056,118.144l 73.056-73.632l 100.448,151.264l 105.056-260.288L 136.992,255.712 l 59.36,118.72L 251.168,320.224z M 207.488,445.248
	c-26.496,0.00-47.968,21.44-47.968,47.936s 21.472,47.936, 47.968,47.936s 47.936-21.44, 47.936-47.936S 233.984,445.248, 207.488,445.248z" horiz-adv-x="1040"  />
<glyph unicode="&#xe21d;" d="M 871.328,519.20c-43.968,121.824-151.20,215.328-284.512,245.088
	c 34.144,49.024, 90.752,81.248, 155.04,81.248c 104.448,0.00, 189.088-84.672, 189.088-189.12C 930.944,602.208, 907.84,553.664, 871.328,519.20z M 507.648,838.432
	l0.00-118.912 c 181.44-7.392, 326.368-156.416, 326.368-339.648c0.00-76.544-25.568-146.944-68.16-203.744l 78.848-136.608l-65.504-37.856l-67.488,116.928
	c-59.072-49.376-135.072-79.168-218.048-79.168c-82.528,0.00-158.176,29.408-217.088,78.24L 207.296-2.24l-65.504,37.856l 80.512,139.392
	c-43.136,57.024-68.992,127.84-68.992,204.864c0.00,182.016, 142.976,330.208, 322.688,339.456L 476.00,838.432 c-18.336,6.56-31.648,23.68-31.648,44.32
	c0.00,26.24, 21.28,47.488, 47.488,47.488c 26.24,0.00, 47.52-21.28, 47.52-47.488C 539.328,862.112, 526.016,844.992, 507.648,838.432z M 228.896,379.872
	c0.00-146.24, 118.528-264.736, 264.736-264.736c 146.176,0.00, 264.736,118.496, 264.736,264.736c0.00,146.176-118.56,264.704-264.736,264.704
	C 347.424,644.608, 228.896,526.048, 228.896,379.872z M 572.992,322.624l-95.008,0.00 c-17.504,0.00-31.68,14.176-31.68,31.68l0.00,126.688 
	c0.00,17.504, 14.176,31.68, 31.68,31.68c 17.472,0.00, 31.648-14.176, 31.648-31.68l0.00-95.008 l 63.328,0.00 c 17.504,0.00, 31.68-14.176, 31.68-31.68
	S 590.496,322.624, 572.992,322.624z M 120.704,519.20c-36.544,34.496-59.648,83.008-59.648,137.216c0.00,104.448, 84.672,189.12, 189.12,189.12
	c 64.256,0.00, 120.832-32.224, 155.04-81.248C 271.904,734.528, 164.672,641.024, 120.704,519.20z"  />
<glyph unicode="&#xe21f;" d="M 512.00,880.00c-229.792,0.00-416.00-186.24-416.00-416.00s 186.208-416.00, 416.00-416.00c 229.728,0.00, 416.00,186.24, 416.00,416.00
			S 741.76,880.00, 512.00,880.00z M 508.64,127.136c-185.568,0.00-336.00,150.432-336.00,336.00c0.00,185.568, 150.432,336.00, 336.00,336.00c 185.536,0.00, 336.00-150.432, 336.00-336.00
			C 844.64,277.568, 694.176,127.136, 508.64,127.136z M 605.76,443.808l-95.36,0.00 l0.00,161.024 c0.00,17.472-14.176,31.68-31.648,31.68
			c-17.504,0.00-31.68-14.176-31.68-31.68l0.00-192.672 c0.00-17.504, 14.176-31.648, 31.68-31.648l 127.008,0.00 c 17.504,0.00, 31.68,14.144, 31.68,31.648
			C 637.44,429.632, 623.264,443.808, 605.76,443.808z"  />
<glyph unicode="&#xe222;" d="M 927.936,719.008l-68.288,68.288c-12.608,12.576-32.96,12.576-45.536,0.00L 404.672,377.856
	L 209.92,574.016c-12.576,12.576-32.928,12.576-45.536,0.00l-68.288-68.288c-12.576-12.608-12.576-32.96,0.00-45.536l 285.568-287.488
	c 12.576-12.576, 32.96-12.576, 45.536,0.00L 927.936,673.472C 940.512,686.016, 940.512,706.432, 927.936,719.008z"  />
<glyph unicode="&#xe223;" d="M 626.784,479.968l 195.072-195.072c 12.672-12.672, 12.672-33.248,0.00-45.92l-68.832-68.832
	c-12.672-12.672-33.216-12.672-45.92,0.00L 512.00,365.216l-195.104-195.072c-12.672-12.672-33.216-12.672-45.888,0.00l-68.864,68.832
	c-12.672,12.672-12.672,33.216,0.00,45.92l 195.104,195.072L 202.144,675.072c-12.672,12.672-12.672,33.248,0.00,45.92L 271.04,789.824
	c 12.672,12.672, 33.216,12.672, 45.888,0.00L 512.00,594.72l 195.104,195.104c 12.672,12.672, 33.216,12.672, 45.92,0.00l 68.832-68.864
	c 12.672-12.672, 12.672-33.216,0.00-45.92L 626.784,479.968z"  />
<glyph unicode="&#xe224;" d="M 549.184,853.088C 211.20,853.088,0.00,480.00,0.00,480.00s 209.184-373.088, 549.184-373.088
			C 867.20,106.912, 1108.576,480.00, 1108.576,480.00S 869.184,853.088, 549.184,853.088z M 552.192,311.968c-92.608,0.00-167.616,75.04-167.616,167.616
			s 75.04,167.648, 167.616,167.648s 167.648-75.072, 167.648-167.648S 644.768,311.968, 552.192,311.968z M 553.216,563.392c-46.08,0.00-83.424-37.376-83.424-83.424
			c0.00-46.08, 37.344-83.424, 83.424-83.424s 83.424,37.344, 83.424,83.424C 636.672,526.016, 599.328,563.392, 553.216,563.392z" horiz-adv-x="1120"  />
<glyph unicode="&#xe226;" d="M 768.00,128.00l-96.00,0.00 c-17.696,0.00-32.00,14.304-32.00,32.00l0.00,64.00 c0.00,17.696, 14.304,32.00, 32.00,32.00l 64.00,0.00 l0.00,192.00 l-224.00,0.00 l0.00-192.00 l 32.00,0.00 
	c 17.664,0.00, 32.00-14.304, 32.00-32.00l0.00-64.00 c0.00-17.696-14.336-32.00-32.00-32.00l-96.00,0.00 c-17.696,0.00-32.00,14.304-32.00,32.00l0.00,64.00 c0.00,17.696, 14.304,32.00, 32.00,32.00l 32.00,0.00 l0.00,192.00 L 256.00,448.00 l0.00-192.00 l 64.00,0.00 c 17.664,0.00, 32.00-14.304, 32.00-32.00l0.00-64.00 
	c0.00-17.696-14.336-32.00-32.00-32.00L 224.00,128.00 c-17.696,0.00-32.00,14.304-32.00,32.00l0.00,64.00 c0.00,17.696, 14.304,32.00, 32.00,32.00l0.00,192.00 l0.00,32.00 l 32.00,0.00 l 224.00,0.00 L 480.00,704.00 l-32.00,0.00 c-17.696,0.00-32.00,14.336-32.00,32.00L 416.00,800.00 c0.00,17.664, 14.304,32.00, 32.00,32.00l 96.00,0.00 
	c 17.664,0.00, 32.00-14.336, 32.00-32.00l0.00-64.00 c0.00-17.664-14.336-32.00-32.00-32.00l-32.00,0.00 l0.00-224.00 l 224.00,0.00 l 32.00,0.00 l0.00-32.00 l0.00-192.00 c 17.664,0.00, 32.00-14.304, 32.00-32.00l0.00-64.00 C 800.00,142.304, 785.664,128.00, 768.00,128.00z"  />
<glyph unicode="&#xe227;" d="M 767.104,129.12l-95.68,0.00 c-17.60,0.00-31.904,14.24-31.904,31.872l0.00,63.808 
	c0.00,17.568, 14.304,31.872, 31.904,31.872l 63.776,0.00 l0.00,159.488 l-223.264,0.00 l0.00-159.488 l 31.872,0.00 c 17.632,0.00, 31.904-14.304, 31.904-31.872l0.00-63.808 
	c0.00-17.632-14.272-31.872-31.904-31.872l-95.68,0.00 c-17.60,0.00-31.872,14.24-31.872,31.872l0.00,63.808 c0.00,17.568, 14.272,31.872, 31.872,31.872l 31.936,0.00 l0.00,159.488 
	L 256.768,416.16 l0.00-159.488 l 63.776,0.00 c 17.632,0.00, 31.904-14.304, 31.904-31.872l0.00-63.808 c0.00-17.632-14.272-31.872-31.904-31.872L 224.896,129.12 c-17.632,0.00-31.904,14.24-31.904,31.872
	l0.00,63.808 c0.00,17.568, 14.272,31.872, 31.904,31.872l0.00,159.488 l0.00,31.872 l 31.872,0.00 l 223.296,0.00 l0.00,127.584 l-95.68,0.00 c-17.632,0.00-31.904,14.272-31.904,31.904L 352.48,767.008 
	c0.00,17.60, 14.272,31.904, 31.904,31.904l 223.264,0.00 c 17.632,0.00, 31.872-14.272, 31.872-31.904l0.00-159.456 c0.00-17.60-14.24-31.904-31.872-31.904l-95.68,0.00 l0.00-127.584 l 223.264,0.00 
	l 31.904,0.00 l0.00-31.872 l0.00-159.488 c 17.60,0.00, 31.904-14.304, 31.904-31.872l0.00-63.808 C 799.008,143.36, 784.672,129.12, 767.104,129.12z M 224.896,224.80l0.00-63.808 l 95.648,0.00 
	l0.00,63.808 L 224.896,224.80 z M 607.616,607.52L 607.616,767.008 l-223.264,0.00 l0.00-159.456 L 607.616,607.552 z M 448.128,224.80l0.00-63.808 l 95.68,0.00 l0.00,63.808 L 448.128,224.80 z M 767.104,224.80l-95.68,0.00 l0.00-63.808 
	l 95.68,0.00 L 767.104,224.80 z"  />
<glyph unicode="&#xe228;" d="M 891.936,96.00c0.00,0.00, 176.64-0.192, 201.44,172.64c 11.808,188.992-170.752,226.24-170.752,226.24
	s 20.768,279.776-235.552,311.68c-219.68,22.432-286.528-181.728-286.528-181.728s-66.176,63.616-155.936,11.648c-80.352-49.60-66.144-140.416-66.144-140.416
	S0.00,461.376,0.00,279.488C 4.00,97.824, 193.824,96.00, 193.824,96.00" horiz-adv-x="1120"  />
<glyph unicode="&#xe229;" d="M 941.632,494.88c0.00,0.00, 20.768,279.776-235.552,311.68c-219.68,22.432-286.56-181.728-286.56-181.728
	s-66.144,63.616-155.904,11.648c-80.352-49.60-66.144-140.416-66.144-140.416s-178.432-34.688-178.432-216.576C 23.008,97.824, 212.768,96.00, 212.768,96.00L 512.00,96.00 l0.00,192.00 l-96.00,0.00 
	l 160.00,160.00l 160.00-160.00l-96.00,0.00 l0.00-192.00 l 270.944,0.00 c0.00,0.00, 176.64-0.192, 201.44,172.64C 1124.192,457.632, 941.632,494.88, 941.632,494.88z" horiz-adv-x="1120"  />
<glyph unicode="&#xe22a;" d="M 479.68,450.72c0.00,0.00, 1.312,416.288, 0.32,416.288c-216.928,0.00-384.00-189.088-384.00-409.984
			c0.00-220.896, 179.104-393.984, 400.00-393.984c 220.864,0.00, 400.00,165.088, 400.00,385.984C 896.00,450.88, 479.68,450.72, 479.68,450.72z M 928.00,483.008
			c0.00,220.928-197.088,414.016-417.984,414.016c 3.072,0.00,0.00-414.016,0.00-414.016S 928.00,481.792, 928.00,483.008z"  />
<glyph unicode="&#xe22b;" d="M 543.936,513.856c0.00,0.00, 3.072,383.552,0.00,383.552c 220.672,0.00, 383.552-162.88, 383.552-383.552
	C 927.488,512.64, 543.936,513.856, 543.936,513.856z M 895.552,435.136c0.00-229.472-186.048-415.52-415.52-415.52
	c-229.504,0.00-415.52,186.048-415.52,415.52c0.00,229.504, 186.016,415.52, 415.52,415.52c 10.784,0.00, 21.376-0.768, 31.968-1.60l0.00-367.168 l 381.056,0.00 
	C 894.656,467.168, 895.552,450.272, 895.552,435.136z M 861.60,447.936L 480.032,447.936 L 480.032,818.688 c-211.84,0.00-383.552-171.744-383.552-383.584
	s 171.712-383.52, 383.552-383.52s 383.552,171.68, 383.552,383.52C 863.584,476.384, 861.60,447.936, 861.60,447.936z"  />
<glyph unicode="&#xe22c;" d="M 127.584,864.00L 96.00,864.00 l0.00-768.00 l 832.00,0.00 l0.00,30.816 l-799.872,1.60L 127.584,864.00z M 352.00,832.00c0.00,17.696-14.336,32.00-32.00,32.00L 224.00,864.00 
			C 206.304,864.00, 192.00,849.696, 192.00,832.00l0.00-640.00 l 160.00,0.00 L 352.00,832.00 z M 544.00,640.00c0.00,17.696-14.336,32.00-32.00,32.00l-96.00,0.00 c-17.696,0.00-32.00-14.304-32.00-32.00l0.00-448.00 l 160.00,0.00 L 544.00,640.00 z M 736.00,448.00c0.00,17.696-14.336,32.00-32.00,32.00l-96.00,0.00 
			c-17.696,0.00-32.00-14.304-32.00-32.00l0.00-256.00 l 160.00,0.00 L 736.00,448.00 z M 896.00,288.00l-96.00,0.00 c-17.696,0.00-32.00-14.304-32.00-32.00l0.00-64.00 l 160.00,0.00 l0.00,64.00 C 928.00,273.696, 913.664,288.00, 896.00,288.00z"  />
<glyph unicode="&#xe22d;" d="M 127.584,864.00L 96.00,864.00 l0.00-768.00 l 832.00,0.00 l0.00,30.816 l-799.872,1.60L 127.584,864.00z M 544.00,832.00c0.00,17.696-14.336,32.00-32.00,32.00l-96.00,0.00 
			c-17.696,0.00-32.00-14.304-32.00-32.00l0.00-640.00 l 160.00,0.00 L 544.00,832.00 z M 352.00,640.00c0.00,17.664-14.336,32.00-32.00,32.00L 224.00,672.00 c-17.696,0.00-32.00-14.336-32.00-32.00l0.00-448.00 l 160.00,0.00 L 352.00,640.00 z M 736.00,448.00c0.00,17.696-14.336,32.00-32.00,32.00l-96.00,0.00 
			c-17.696,0.00-32.00-14.304-32.00-32.00l0.00-256.00 l 160.00,0.00 L 736.00,448.00 z M 896.00,288.00l-96.00,0.00 c-17.696,0.00-32.00-14.304-32.00-32.00l0.00-64.00 l 160.00,0.00 l0.00,64.00 C 928.00,273.696, 913.664,288.00, 896.00,288.00z"  />
<glyph unicode="&#xe22e;" d="M 864.00,319.008L 224.00,319.008 l0.00-160.00 l 640.00,0.00 c 17.664,0.00, 32.00,14.304, 32.00,32.00l0.00,96.00 C 896.00,304.672, 881.664,319.008, 864.00,319.008z
			 M 704.00,383.008l0.00,96.00 c0.00,17.664-14.336,32.00-32.00,32.00L 224.00,511.008 l0.00-160.00 l 448.00,0.00 C 689.664,351.008, 704.00,365.312, 704.00,383.008z M 512.00,575.008l0.00,96.00 c0.00,17.664-14.336,32.00-32.00,32.00L 224.00,703.008 l0.00-160.00 l 256.00,0.00 
			C 497.664,543.008, 512.00,557.344, 512.00,575.008z M 320.00,767.008l0.00,96.00 c0.00,17.696-14.336,32.00-32.00,32.00L 224.00,895.008 l0.00-160.00 l 64.00,0.00 C 305.664,735.008, 320.00,749.344, 320.00,767.008z M 160.00,895.008L 128.00,895.008 l0.00-830.016 
			l 768.00,0.00 l0.00,32.00 L 160.00,96.992 L 160.00,895.008 z"  />
<glyph unicode="&#xe22f;" d="M 864.00,511.008L 224.00,511.008 l0.00-160.00 l 640.00,0.00 c 17.664,0.00, 32.00,14.304, 32.00,32.00l0.00,96.00 C 896.00,496.672, 881.664,511.008, 864.00,511.008z
			 M 704.00,191.008l0.00,96.00 c0.00,17.696-14.336,32.00-32.00,32.00L 224.00,319.008 l0.00-160.00 l 448.00,0.00 C 689.664,159.008, 704.00,173.312, 704.00,191.008z M 512.00,575.008l0.00,96.00 c0.00,17.664-14.336,32.00-32.00,32.00L 224.00,703.008 l0.00-160.00 l 256.00,0.00 
			C 497.664,543.008, 512.00,557.344, 512.00,575.008z M 320.00,767.008l0.00,96.00 c0.00,17.696-14.336,32.00-32.00,32.00L 224.00,895.008 l0.00-160.00 l 64.00,0.00 C 305.664,735.008, 320.00,749.344, 320.00,767.008z M 160.00,895.008L 128.00,895.008 l0.00-830.016 
			l 768.00,0.00 l0.00,32.00 L 160.00,96.992 L 160.00,895.008 z"  />
<glyph unicode="&#xe230;" d="M 357.216,622.272c0.00,84.96, 69.312,153.824, 154.784,153.824s 154.784-68.864, 154.784-153.824
	S 597.472,468.48, 512.00,468.48S 357.216,537.344, 357.216,622.272z M 248.864,603.072c0.00-64.352, 78.528-200.00, 78.528-200.00L 512.00,95.424l 174.016,307.616
	c0.00,0.00, 89.12,136.64, 89.12,200.00c0.00,144.416-117.824,261.472-263.136,261.472S 248.864,747.488, 248.864,603.072z"  />
<glyph unicode="&#xe231;" d="M 941.632,494.88c0.00,0.00, 20.736,279.776-235.552,311.68c-219.712,22.432-286.56-181.728-286.56-181.728
	s-66.144,63.616-155.936,11.648c-80.32-49.60-66.144-140.416-66.144-140.416s-178.432-34.656-178.432-216.576C 23.008,97.824, 212.768,96.00, 212.768,96.00L 576.00,96.00 l-160.00,160.00l 96.00,0.00 
	l0.00,192.00 l 128.00,0.00 l0.00-192.00 l 96.00,0.00 l-160.00-160.00l 334.944,0.00 c0.00,0.00, 176.64-0.192, 201.44,172.64C 1124.192,457.632, 941.632,494.88, 941.632,494.88z" horiz-adv-x="1120"  />
<glyph unicode="&#xe233;" d="M 269.792,699.04l 670.656,0.00 c 69.056,0.00, 69.056,71.616, 2.688,71.616L 479.584,770.656 
			c-26.56,0.00-39.808,39.808-39.808,39.808S 421.184,868.864, 384.00,868.864L 38.752,868.864 c-50.432,0.00-37.184-58.40-37.184-58.40s 77.024-655.04, 82.336-694.88
			S 130.40,64.00, 130.40,64.00l 90.272,579.296C 227.328,685.76, 256.512,697.696, 269.792,699.04z M 1077.056,673.856L 291.04,673.856 c-23.456,0.00-42.496-19.008-42.496-42.464
			l-82.304-524.80c0.00-23.488, 19.04-42.496, 42.496-42.496l 786.016,0.00 c 23.424,0.00, 42.496,19.008, 42.496,42.496l 82.304,524.80
			C 1119.552,654.848, 1100.576,673.856, 1077.056,673.856z" horiz-adv-x="1118"  />
<glyph unicode="&#xe235;" d="M 864.416,183.104l0.00-58.40 L 159.584,124.704 l0.00,58.40 c0.00,0.00-15.072,32.288, 66.72,109.728
	C 308.032,370.24, 297.28,570.336, 297.28,705.856s 190.336,138.40, 190.336,138.40l 6.528,0.00 c0.00-0.064,0.00,0.928,0.00,22.016c0.00,13.536-45.44,62.56-45.44,62.56
	l-0.672,29.664l 128.32,0.00 l-0.864-30.784c0.00,0.00-49.248-48.992-49.248-63.424c0.00-13.952,0.00-18.624,0.00-20.00l 10.144,0.00 c0.00,0.00, 190.336-2.88, 190.336-138.40
	S 715.968,370.24, 797.728,292.80S 864.416,183.104, 864.416,183.104z M 592.384,93.76c0.00-44.32-35.904-92.256-80.192-92.256S 432.00,49.44, 432.00,93.76
	C 432.00,92.768, 592.384,94.784, 592.384,93.76z"  />
<glyph unicode="&#xe236;" d="M 889.344,183.104l 0.032-58.40L 221.536,124.704 L 751.36,654.56
	c-0.96-130.528-0.672-293.632, 71.296-361.76C 904.416,215.36, 889.344,183.104, 889.344,183.104z M 133.568,128.64L 814.048,809.088l 22.656-22.688
	L 156.256,105.952L 133.568,128.64z M 251.264,292.80c 81.76,77.44, 71.008,277.504, 71.008,413.056s 190.336,138.40, 190.336,138.40l 6.496,0.00 
	c0.00-0.064,0.00,0.928,0.00,22.016c0.00,13.536-45.44,62.56-45.44,62.56l-0.672,29.664l 128.32,0.00 l-0.896-30.784c0.00,0.00-49.216-48.992-49.216-63.424
	c0.00-13.952,0.00-18.624,0.00-20.00l 10.144,0.00 c0.00,0.00, 121.632-2.048, 170.336-72.16L 222.592,263.008C 230.56,272.128, 239.744,281.92, 251.264,292.80z M 617.344,93.76
	c0.00-44.32-35.904-92.256-80.192-92.256c-44.32,0.00-80.224,47.936-80.224,92.256C 456.928,92.768, 617.344,94.784, 617.344,93.76z"  />
<glyph unicode="&#xe237;" d="M 490.592,359.68c-0.832,0.576-97.088,162.40-97.408,164.48c-19.904,43.488-35.968,87.968-2.496,107.712l-138.912,234.24
			C 215.776,839.20, 113.952,693.152, 304.544,362.176c 200.768-348.80, 391.84-334.304, 430.144-310.688l-135.36,228.64
			C 567.328,261.312, 540.384,292.32, 490.592,359.68z M 827.584,140.256l 0.032,0.192c0.00,0.00-105.696,178.112-105.76,178.176
			c-8.384,14.112-26.40,18.56-40.448,10.368l-64.768-38.304l 135.744-229.312c0.00,0.00, 64.768,38.112, 64.736,38.24l 0.128,0.00 
			C 832.128,108.448, 835.552,126.688, 827.584,140.256z M 473.152,680.448L 473.152,680.576 c 14.88,8.80, 18.368,27.04, 10.40,40.48l 0.064,0.192
			c0.00,0.00-108.736,183.328-108.80,183.36c-8.352,14.176-26.432,18.56-40.416,10.368L 269.632,876.672l 138.752-234.368C 408.384,642.304, 473.12,680.352, 473.152,680.448
			z"  />
<glyph unicode="&#xe238;" d="M 832.00-32.00L 160.00-32.00 C 124.64-32.00, 96.00-3.328, 96.00,32.00L 96.00,800.00 C 96.00,835.36, 124.64,864.00, 160.00,864.00l0.00-768.00 c0.00-35.328, 28.672-64.00, 64.00-64.00L 352.00,32.00 
	C 387.36,32.00, 416.00,60.672, 416.00,96.00L 416.00,864.00 l 416.00,0.00 c 35.36,0.00, 64.00-28.672, 64.00-64.00l0.00-768.00 C 896.00-3.328, 867.36-32.00, 832.00-32.00z M 672.00,64.00l 64.00,0.00 l0.00,64.00 l-64.00,0.00 L 672.00,64.00 z M 672.00,160.00l 64.00,0.00 l0.00,64.00 l-64.00,0.00 L 672.00,160.00 z M 672.00,256.00
	l 64.00,0.00 l0.00,64.00 l-64.00,0.00 L 672.00,256.00 z M 672.00,352.00l 64.00,0.00 l0.00,64.00 l-64.00,0.00 L 672.00,352.00 z M 576.00,64.00l 64.00,0.00 l0.00,64.00 l-64.00,0.00 L 576.00,64.00 z M 576.00,160.00l 64.00,0.00 l0.00,64.00 l-64.00,0.00 L 576.00,160.00 z M 576.00,256.00l 64.00,0.00 l0.00,64.00 l-64.00,0.00 L 576.00,256.00 z M 576.00,352.00l 64.00,0.00 l0.00,64.00 l-64.00,0.00 L 576.00,352.00 z M 832.00,768.00
	c0.00,17.696-14.304,32.00-32.00,32.00l-288.00,0.00 c-17.664,0.00-32.00-14.304-32.00-32.00l0.00-128.00 c0.00-17.664, 14.336-32.00, 32.00-32.00l 288.00,0.00 c 17.696,0.00, 32.00,14.336, 32.00,32.00L 832.00,768.00 z M 832.00,416.00l-64.00,0.00 l0.00-64.00 l 64.00,0.00 L 832.00,416.00 z M 832.00,320.00l-64.00,0.00 l0.00-64.00 l 64.00,0.00 L 832.00,320.00 z
	 M 832.00,224.00l-64.00,0.00 l0.00-64.00 l 64.00,0.00 L 832.00,224.00 z M 832.00,128.00l-64.00,0.00 l0.00-64.00 l 64.00,0.00 L 832.00,128.00 z M 352.00,64.00L 224.00,64.00 c-17.664,0.00-32.00,14.304-32.00,32.00L 192.00,896.00 c0.00,17.696, 14.336,32.00, 32.00,32.00l 62.016,0.00 L 286.016,992.00 L 320.00,992.00 l0.00-64.00 l 32.00,0.00 C 369.664,928.00, 384.00,913.696, 384.00,896.00
	l0.00-800.00 C 384.00,78.304, 369.664,64.00, 352.00,64.00z"  />
<glyph unicode="&#xe239;" d="M 896.00,64.00l0.00,32.00 l-32.00,0.00 l0.00,32.00 l-32.00,0.00 L 832.00,544.00 l 32.00,0.00 l0.00,32.00 l 32.00,0.00 l0.00,32.00 l 32.00,0.00 l0.00-544.00 L 896.00,64.00 z M 864.00,576.00l-32.00,0.00 l0.00-32.00 L 192.00,544.00 l0.00,32.00 L 160.00,576.00 l0.00,32.00 L 128.00,608.00 l0.00,32.00 l 768.00,0.00 l0.00-32.00 l-32.00,0.00 L 864.00,576.00 z
	 M 160.00,576.00l0.00-32.00 l 32.00,0.00 l0.00-416.00 L 160.00,128.00 l0.00-32.00 L 128.00,96.00 l0.00-32.00 L 96.00,64.00 L 96.00,608.00 l 32.00,0.00 l0.00-32.00 L 160.00,576.00 z M 160.00,96.00l 32.00,0.00 l0.00,32.00 l 640.00,0.00 l0.00-32.00 l 32.00,0.00 l0.00-32.00 l 32.00,0.00 l0.00-32.00 L 128.00,32.00 l0.00,32.00 l 32.00,0.00 L 160.00,96.00 z M 411.392,256.576l 73.152,118.304l 73.152-73.728l 100.576,151.392
	L 763.424,192.00L 297.12,192.00 l 59.424,118.88L 411.392,256.576z M 367.712,383.712c-26.528,0.00-48.00,21.504-48.00,48.00s 21.472,48.00, 48.00,48.00
	c 26.496,0.00, 48.00-21.504, 48.00-48.00S 394.208,383.712, 367.712,383.712z M 800.00,640.00l-234.304,174.40C 554.688,805.536, 540.896,800.00, 525.696,800.00
	c-21.152,0.00-39.808,10.40-51.424,26.272L 224.00,640.00L 192.00,640.00 l 271.776,208.576C 462.56,853.536, 461.728,858.656, 461.728,864.00c0.00,35.328, 28.64,64.00, 63.968,64.00
	c 35.36,0.00, 64.00-28.672, 64.00-64.00c0.00-11.488-3.296-22.144-8.608-31.488L 832.00,640.00L 800.00,640.00 z"  />
<glyph unicode="&#xe23a;" d="M 896.00,0.00L 128.00,0.00 c-53.024,0.00-96.00,43.008-96.00,96.00L 32.00,544.00 c0.00,53.024, 42.976,96.00, 96.00,96.00l 768.00,0.00 c 52.992,0.00, 96.00-42.976, 96.00-96.00l0.00-448.00 
	C 992.00,43.008, 948.992,0.00, 896.00,0.00z M 256.00,414.688c-53.024,0.00-96.00-50.144-96.00-112.00c0.00-61.888, 42.976-112.00, 96.00-112.00c 52.992,0.00, 96.00,50.112, 96.00,112.00
	C 352.00,364.544, 308.992,414.688, 256.00,414.688z M 504.96,387.264c-3.68,7.584-8.608,13.504-14.656,17.696c-6.08,4.224-13.632,7.072-22.624,8.576
	c-6.40,1.184-15.68,1.76-27.84,1.76l-57.056,0.00 l0.00-221.248 l 32.256,0.00 l0.00,64.512 l 26.944,0.00 c 25.92,0.00, 43.776,11.392, 53.728,22.176
	c 9.888,10.816, 14.848,57.984, 14.848,73.568C 510.528,363.328, 508.672,379.68, 504.96,387.264z M 672.768,225.76l-97.856,0.00 l0.00,64.256 l 94.592,0.00 l0.00,29.76 l-94.592,0.00 
	l0.00,65.76 l 97.60,0.00 l0.00,29.76 l-127.84,0.00 l0.00-221.248 l 128.096,0.00 L 672.768,225.76 z M 862.528,415.264L 833.28,415.264 l0.00-169.92 l-96.384,169.92l-32.864,0.00 l0.00-221.248 l 31.264,0.00 l0.00,161.952 l 96.384-161.952l 30.88,0.00 
	L 862.56,415.264 z M 442.336,290.24L 415.04,290.24 l0.00,95.264 l 26.816,0.00 c 10.976,0.00, 18.496-0.544, 22.592-1.632c 6.304-1.76, 11.424-5.312, 15.296-10.752
	c 3.872-5.44, 5.824-12.00, 5.824-19.616c0.00-10.56-3.296-48.704-9.888-54.528C 469.088,293.152, 457.984,290.24, 442.336,290.24z M 256.00,220.00
	c-35.328,0.00-64.00,35.808-64.00,80.00s 28.672,80.00, 64.00,80.00s 64.00-35.808, 64.00-80.00S 291.328,220.00, 256.00,220.00z M 800.00,640.00l-234.304,174.40C 554.688,805.536, 540.896,800.00, 525.696,800.00
	c-21.184,0.00-39.808,10.40-51.424,26.272L 224.00,640.00L 192.00,640.00 l 271.776,208.576C 462.56,853.536, 461.696,858.656, 461.696,864.00c0.00,35.328, 28.672,64.00, 64.00,64.00c 35.36,0.00, 64.00-28.672, 64.00-64.00
	c0.00-11.488-3.296-22.144-8.608-31.488L 832.00,640.00L 800.00,640.00 z"  />
<glyph unicode="&#xe23b;" d="M 896.00,0.00L 128.00,0.00 c-53.024,0.00-96.00,43.008-96.00,96.00L 32.00,544.00 c0.00,53.024, 42.976,96.00, 96.00,96.00l 64.00,0.00 l 271.776,208.576
	C 462.56,853.536, 461.728,858.656, 461.728,864.00c0.00,35.328, 28.672,64.00, 64.00,64.00s 63.968-28.672, 63.968-64.00c0.00-11.488-3.264-22.144-8.608-31.488L 832.00,640.00l 64.00,0.00 
	c 52.992,0.00, 96.00-42.976, 96.00-96.00l0.00-448.00 C 992.00,43.008, 948.992,0.00, 896.00,0.00z M 546.272,205.344l 128.992,0.00 l0.00,24.256 l-101.76,0.00 l0.00,182.016 l-27.264,0.00 L 546.24,205.344 z M 361.696,205.344
	l 22.592,62.496l 86.656,0.00 l 23.744-62.496l 31.104,0.00 l-84.096,206.24l-29.568,0.00 l-79.296-206.24L 361.696,205.344 z M 170.944,387.392
	c-5.888-9.088-8.832-18.848-8.832-29.248c0.00-9.504, 2.40-18.048, 7.232-25.728s 12.16-14.048, 21.984-19.264c 7.552-4.032, 20.768-8.32, 39.648-12.864
	s 31.072-7.904, 36.608-10.048c 8.608-3.328, 14.784-7.328, 18.592-12.16s 5.728-10.432, 5.728-16.896c0.00-6.336-1.952-12.256-5.824-17.664
	s-9.792-9.664-17.76-12.768c-7.936-3.136-17.088-4.672-27.456-4.672c-11.68,0.00-22.176,2.016-31.52,6.144
	c-9.376,4.064-16.256,9.44-20.672,16.096s-7.296,15.168-8.512,25.504l-25.76-2.24c 0.384-13.792, 4.16-26.112, 11.328-37.024
	c 7.168-10.944, 17.024-19.136, 29.60-24.576c 12.608-5.44, 28.192-8.16, 46.816-8.16c 14.656,0.00, 27.872,2.688, 39.616,8.096
	c 11.744,5.376, 20.736,12.864, 27.008,22.592c 6.272,9.696, 9.408,20.00, 9.408,30.976c0.00,11.04-2.88,20.768-8.608,29.248
	c-5.728,8.512-14.592,15.488-26.624,20.992c-8.288,3.744-23.456,8.128-45.536,13.12c-22.112,5.024-35.776,9.952-40.992,14.752
	c-5.344,4.736-8.00,10.848-8.00,18.24c0.00,8.576, 3.776,15.84, 11.296,21.888c 7.52,6.048, 19.488,9.088, 35.936,9.088
	c 15.808,0.00, 27.744-3.328, 35.808-9.92c 8.096-6.624, 12.80-16.416, 14.208-29.344l 26.24,1.984c-0.48,12.096-3.84,22.912-10.08,32.448
	c-6.272,9.536-15.232,16.768-26.88,21.696s-25.088,7.36-40.352,7.36c-13.856,0.00-26.432-2.336-37.76-7.04
	C 185.44,403.328, 176.832,396.48, 170.944,387.392z M 565.696,814.40C 554.688,805.536, 540.928,800.00, 525.728,800.00c-21.184,0.00-39.808,10.40-51.456,26.272L 224.00,640.00l 576.00,0.00 
	L 565.696,814.40z M 861.952,229.60l-126.496,0.00 L 735.456,299.84 l 113.984,0.00 l0.00,24.256 l-113.984,0.00 l0.00,63.264 l 121.76,0.00 l0.00,24.256 l-148.992,0.00 l0.00-206.24 l 153.76,0.00 L 861.984,229.60 z M 426.048,390.08
	c 3.328-11.296, 8.192-25.60, 14.624-42.976l 21.728-57.024l-70.368,0.00 l 22.88,60.384C 419.616,363.488, 423.328,376.704, 426.048,390.08z"  />
<glyph unicode="&#xe23c;" d="M 575.584,896.00l-160.00,0.00 l0.00-96.00 l 160.00,0.00 L 575.584,896.00 z M 575.584,512.00l0.00,64.00 l-160.00,0.00 l0.00-64.00 L 575.584,512.00 z M 415.584,32.00l 160.00,0.00 l0.00,256.00 l-160.00,0.00 L 415.584,32.00 z
			 M 799.584,608.00L 729.60,688.00L 799.584,768.00l-512.00,0.00 l-83.20-80.00l 83.20-80.00L 799.584,608.00 z M 735.584,480.00l-512.00,0.00 l 70.016-80.00L 223.584,320.00l 512.00,0.00 l 84.00,80.00L 735.584,480.00z"  />
<glyph unicode="&#xe23d;" d="M 639.52,94.40l 225.056,102.848L 864.576,865.60 l-225.056-102.816L 639.52,94.40 z M 384.48,197.248l 223.36-92.576
	L 607.84,773.056 l-223.36,92.544L 384.48,197.248 z M 127.392,762.784L 127.392,94.40 l 225.376,92.544L 352.768,855.328 L 127.392,762.784z"  />
<glyph unicode="&#xe23e;" d="M 256.00,160.00c0.00-52.992, 42.976-96.00, 96.00-96.00l 320.00,0.00 c 52.992,0.00, 96.00,43.008, 96.00,96.00l 64.00,512.00L 192.00,672.00 L 256.00,160.00z M 608.00,576.00l 64.00,0.00 l0.00-416.00 l-64.00,0.00 
			L 608.00,576.00 z M 480.00,576.00l 64.00,0.00 l0.00-416.00 l-64.00,0.00 L 480.00,576.00 z M 352.00,576.00l 64.00,0.00 l0.00-416.00 l-64.00,0.00 L 352.00,576.00 z M 816.00,800.00L 608.00,800.00 c0.00,0.00-14.336,64.00-32.00,64.00l-128.00,0.00 c-17.696,0.00-32.00-64.00-32.00-64.00L 208.00,800.00 C 181.472,800.00, 160.00,778.528, 160.00,752.00S 160.00,704.00, 160.00,704.00
			l 704.00,0.00 c0.00,0.00,0.00,21.472,0.00,48.00S 842.496,800.00, 816.00,800.00z"  />
<glyph unicode="&#xe23f;" d="M 31.104,574.176C 76.832,794.176, 265.76,959.20, 492.096,959.20
	c 226.368,0.00, 415.296-164.992, 460.992-384.992L 31.104,574.208 z M 530.208,784.32l-36.544,74.56l-37.568-74.56l-73.568,0.00 l 58.528-58.016l-15.552-78.40l 66.048,32.224
	l 74.496-31.68l-22.944,75.168l 60.64,60.736L 530.208,784.352 z M 224.288,74.272c-88.128,65.152-159.456,164.896-187.968,276.16l 187.968,0.00 L 224.288,74.272 z M 287.872,415.488
	L 255.328,415.488 l0.00,128.16 l 32.544,0.00 L 287.872,415.488 z M 320.416,543.648l 30.528,0.00 l0.00-128.16 l-30.528,0.00 L 320.416,543.648 z M 320.416,384.96L 287.872,384.96 l0.00,30.528 l 32.544,0.00 L 320.416,384.96 z M 446.016-14.496
	c-45.60,4.672-87.264,16.128-128.128,33.184L 317.888,350.432 l 128.128,0.00 L 446.016-14.496 z M 416.00,384.96l0.00,30.528 l 32.544,0.00 l0.00-30.528 L 416.00,384.96 z M 383.456,415.488l0.00,95.616 L 416.00,511.104 l0.00-95.616 
	L 383.456,415.488 z M 416.00,543.648l 32.544,0.00 l0.00-32.544 L 416.00,511.104 L 416.00,543.648 z M 479.104,511.136l0.00-95.616 l-30.56,0.00 l0.00,95.616 L 479.104,511.136 z M 607.232,543.648l0.00-32.544 l-30.528,0.00 l0.00-126.144 l-32.544,0.00 
	l0.00,126.144 l-32.544,0.00 l0.00,32.544 L 607.232,543.648 z M 671.776,20.96c-40.80-17.632-82.496-29.664-128.16-34.784L 543.616,350.432 l 128.16,0.00 L 671.776,20.96 z M 639.776,543.648l 95.552,0.00 
	l0.00-32.544 l-63.072,0.00 l0.00-32.544 l 63.072,0.00 l0.00-32.576 l-63.072,0.00 l0.00-30.528 l 63.072,0.00 l0.00-30.528 l-95.552,0.00 L 639.776,543.648 z M 767.328,78.368l0.00,272.064 l 180.512,0.00 
	C 919.904,241.504, 852.736,143.424, 767.328,78.368z"  />
<glyph unicode="&#xe241;" d="M 618.624,382.688c0.00,0.00-53.248-68.00-121.28,0.00c-65.984,64.00-113.984,0.00-113.984,0.00l-158.944-313.28
			c-4.608-17.056, 5.536-34.592, 22.592-39.168l 527.904,0.00 c 17.056,4.576, 27.20,22.08, 22.624,39.168L 618.624,382.688z M 862.048,85.44l-255.328,429.696
			l0.00,0.80 l-0.448,251.808l 17.632,0.00 c 26.432,0.00, 47.936,21.472, 47.936,47.968c0.00,26.464-21.504,47.936-47.936,47.936l-255.84,0.00 
			c-26.464,0.00-47.936-21.472-47.936-47.936c0.00-26.496, 21.472-47.968, 47.936-47.968l 15.424,0.00 l-0.512-251.872L 161.92,85.44
			C 148.224,34.272, 178.592-18.304, 229.728-32.00L 794.24-32.00 C 845.44-18.304, 875.808,34.272, 862.048,85.44z M 785.696,0.064L 238.24,0.672
			c-34.08,9.152-54.304,44.224-45.184,78.272l 222.304,435.712l 0.672,285.056l-47.936,0.00 c-8.80,0.00-15.968,7.168-15.968,16.00
			c0.00,8.80, 7.168,15.968, 15.968,15.968l 255.84,0.00 c 8.80,0.00, 15.936-7.168, 15.936-15.968c0.00-8.832-7.136-16.00-15.936-16.00L 576.00,799.712 l 0.80-284.00
			l 254.048-437.312C 840.00,44.256, 819.744,9.184, 785.696,0.064z M 527.36,911.616c0.00-17.664, 14.336-32.00, 32.00-32.00s 32.00,14.336, 32.00,32.00s-14.304,32.00-32.00,32.00
			S 527.36,929.312, 527.36,911.616z M 559.36,991.616c 26.496,0.00, 48.00,21.472, 48.00,48.00s-21.504,48.00-48.00,48.00s-48.00-21.472-48.00-48.00
			S 532.864,991.616, 559.36,991.616z M 431.36,911.616c 17.696,0.00, 32.00,14.336, 32.00,32.00s-14.304,32.00-32.00,32.00s-32.00-14.336-32.00-32.00S 413.664,911.616, 431.36,911.616z"  />
<glyph unicode="&#xe25a;" d="M 128.00,0.00L 128.00,512.00 l 96.00,0.00 l0.00,160.00 c0.00,141.376, 114.592,256.00, 256.00,256.00l 32.00,0.00 c 141.376,0.00, 256.00-114.624, 256.00-256.00l0.00-160.00 l 96.00,0.00 l0.00-512.00 L 128.00,0.00 z
	 M 471.808,262.816L 448.00,96.00l 96.00,0.00 l-23.84,166.816c 23.328,9.536, 39.84,32.416, 39.84,59.20c0.00,35.328-28.672,64.00-64.00,64.00c-35.36,0.00-64.00-28.672-64.00-64.00
	C 432.00,295.232, 448.48,272.352, 471.808,262.816z M 672.00,656.00C 672.00,753.216, 593.184,832.00, 496.00,832.00C 398.784,832.00, 320.00,753.216, 320.00,656.00L 320.00,512.00 l 352.00,0.00 L 672.00,656.00 z"  />
<glyph unicode="&#xe25b;" d="M 928.00,512.00l0.00,144.00 C 928.00,753.216, 849.184,832.00, 752.00,832.00C 654.784,832.00, 576.00,753.216, 576.00,656.00l0.00-146.272 l 160.00,0.00 L 736.00,0.00 L0.00,0.00 L0.00,512.00 
	l 480.00,0.00 l0.00,160.00 c0.00,141.376, 114.592,256.00, 256.00,256.00l 32.00,0.00 c 141.376,0.00, 256.00-114.624, 256.00-256.00l0.00-160.00 L 928.00,512.00 z M 368.00,385.984c-35.36,0.00-64.00-28.672-64.00-64.00c0.00-26.784, 16.48-49.664, 39.808-59.20L 320.00,96.00l 96.00,0.00 
	l-23.84,166.816c 23.328,9.536, 39.84,32.416, 39.84,59.20C 432.00,357.344, 403.328,385.984, 368.00,385.984z"  />
<glyph unicode="&#xe25c;" d="M 512.00,0.00c-167.904,0.00-304.00,136.128-304.00,304.00c0.00,109.12, 57.664,204.512, 144.00,258.144L 352.00,752.00 C 352.00,849.216, 430.816,928.00, 528.00,928.00S 704.00,849.216, 704.00,752.00l0.00-212.384 
	c 68.32-55.744, 112.00-140.544, 112.00-235.616C 816.00,136.128, 679.904,0.00, 512.00,0.00z M 640.00,752.00C 640.00,813.856, 589.888,864.00, 528.00,864.00C 466.144,864.00, 416.00,813.856, 416.00,752.00l0.00-159.712 
	C 446.208,602.336, 478.40,608.00, 512.00,608.00c 45.824,0.00, 89.056-10.40, 128.00-28.544L 640.00,752.00 z M 512.00,560.00c-141.376,0.00-256.00-114.624-256.00-256.00s 114.624-256.00, 256.00-256.00s 256.00,114.624, 256.00,256.00
	S 653.376,560.00, 512.00,560.00z M 512.00,64.00c-132.576,0.00-240.00,107.424-240.00,240.00S 379.424,544.00, 512.00,544.00c 132.576,0.00, 240.00-107.424, 240.00-240.00S 644.576,64.00, 512.00,64.00z M 560.00,368.00
	c0.00,26.496-21.504,48.00-48.00,48.00s-48.00-21.504-48.00-48.00c0.00-22.752, 16.128-40.864, 37.344-45.888L 464.00,176.00l 97.984,0.00 l-42.048,145.632
	C 542.496,325.504, 560.00,344.32, 560.00,368.00z"  />
<glyph unicode="&#xe25d;" d="M 896.00,544.00L 896.00,752.00 C 896.00,813.856, 845.856,864.00, 784.00,864.00S 672.00,813.856, 672.00,752.00l0.00-189.856 c 86.304-53.632, 144.00-149.024, 144.00-258.144C 816.00,136.096, 679.904,0.00, 512.00,0.00
	s-304.00,136.096-304.00,303.968c0.00,167.904, 136.096,304.00, 304.00,304.00c 33.60,0.00, 65.792-5.664, 96.00-15.712L 608.00,752.00 C 608.00,849.184, 686.816,928.00, 784.00,928.00S 960.00,849.184, 960.00,752.00L 960.00,544.00 L 896.00,544.00 z
	 M 512.00,560.00c-141.376,0.00-256.00-114.624-256.00-256.00c0.00-141.376, 114.624-255.968, 256.00-255.968s 256.00,114.592, 256.00,255.968C 768.00,445.376, 653.376,560.00, 512.00,560.00z M 512.00,64.00
	c-132.576,0.00-240.00,107.424-240.00,239.968C 272.00,436.576, 379.424,544.00, 512.00,544.00s 240.00-107.424, 240.00-240.032C 752.00,171.424, 644.576,64.00, 512.00,64.00z M 560.00,367.968
	c0.00,26.528-21.504,48.00-48.00,48.00s-48.00-21.472-48.00-48.00c0.00-22.688, 16.128-40.864, 37.344-45.824L 464.00,176.00l 97.984,0.00 l-42.048,145.60
	C 542.496,325.536, 560.00,344.288, 560.00,367.968z"  />
<glyph unicode="&#xe25e;" d="M 932.992,33.248l-22.688-22.688c-25.12-25.088-65.76-25.088-90.816,0.00l-181.632,181.568
	c-20.992,21.056-23.328,52.608-8.992,77.184l-99.328,99.264c-53.408-39.616-119.296-63.328-190.88-63.328c-177.28,0.00-320.992,143.712-320.992,320.992
	c0.00,177.312, 143.712,321.024, 320.992,321.024c 177.312,0.00, 320.992-143.712, 320.992-321.024c0.00-82.528-31.36-157.536-82.56-214.40l 97.12-97.12
	c 24.576,14.304, 56.128,12.00, 77.12-9.056l 181.632-181.568C 958.048,98.976, 958.048,58.304, 932.992,33.248z M 578.816,627.552
	c0.00,132.96-107.808,240.736-240.768,240.736S 97.28,760.544, 97.28,627.552s 107.776-240.736, 240.736-240.736S 578.816,494.592, 578.816,627.552z"  />
<glyph unicode="&#xe25f;" d="M 932.992,33.248l-22.688-22.688c-25.12-25.088-65.76-25.088-90.816,0.00l-181.632,181.568
	c-20.992,21.056-23.328,52.608-8.992,77.184l-99.328,99.264c-53.408-39.616-119.296-63.328-190.88-63.328c-177.28,0.00-320.992,143.712-320.992,320.992
	c0.00,177.312, 143.712,321.024, 320.992,321.024c 177.312,0.00, 320.992-143.712, 320.992-321.024c0.00-82.528-31.36-157.536-82.56-214.40l 97.12-97.12
	c 24.576,14.304, 56.128,12.00, 77.12-9.056l 181.632-181.568C 958.048,98.976, 958.048,58.304, 932.992,33.248z M 578.816,627.552
	c0.00,132.96-107.808,240.736-240.768,240.736S 97.28,760.544, 97.28,627.552s 107.776-240.736, 240.736-240.736S 578.816,494.592, 578.816,627.552z M 352.064,545.312
	L 319.968,545.312 l0.00,62.176 L 255.776,607.488 l0.00,32.096 l 64.192,0.00 L 319.968,703.808 l 32.096,0.00 l0.00-64.224 l 64.224,0.00 l0.00-32.096 l-64.224,0.00 L 352.064,545.312 z"  />
<glyph unicode="&#xe260;" d="M 255.776,639.584L 416.288,639.584L 416.288,607.488L 255.776,607.488zM 932.992,124.064l-181.632,181.568c-20.992,21.056-52.576,23.36-77.12,9.056l-97.12,97.12c 51.20,56.864, 82.56,131.872, 82.56,214.40
		c0.00,177.312-143.68,321.024-320.992,321.024c-177.28,0.00-320.992-143.712-320.992-321.024c0.00-177.28, 143.712-320.992, 320.992-320.992
		c 71.584,0.00, 137.472,23.712, 190.88,63.328l 99.328-99.264c-14.304-24.608-12.00-56.128, 8.992-77.184l 181.632-181.568c 25.056-25.088, 65.696-25.088, 90.816,0.00
		l 22.688,22.688C 958.048,58.304, 958.048,98.976, 932.992,124.064z M 338.016,386.816c-132.96,0.00-240.736,107.776-240.736,240.736
		s 107.776,240.736, 240.736,240.736s 240.768-107.776, 240.768-240.736S 471.008,386.816, 338.016,386.816z"  />
<glyph unicode="&#xe261;" d="M 287.488,702.496L 287.488,799.008 l 608.00,0.00 l0.00-446.496 l-96.512,0.00 l 1.984-96.992l-98.496,0.00 l0.00-94.496 L 96.512,161.024 L 96.512,608.00 l 95.008,0.00 L 191.52,704.512 L 287.488,702.496z M 862.496,768.00l-544.00,0.00 l0.00-65.504 
	l 482.496,1.984l-1.984-320.992l 63.488,0.00 L 862.496,768.00 z M 768.00,671.488L 222.496,671.488 L 222.496,608.00 l 480.00,0.00 l0.00-319.488 L 768.00,288.512 L 768.00,671.488 z M 127.488,576.992L 127.488,192.00 l 544.00,0.00 L 671.488,576.992 L 127.488,576.992 z"  />
<glyph unicode="&#xe262;" d="M 96.00,160.00l 608.00,0.00 L 704.00,608.00 L 96.00,608.00 L 96.00,160.00 z M 190.016,640.00L 736.00,640.00 l0.00-384.00 l 64.00,0.00 L 800.00,704.00 L 192.00,704.00 L 190.016,640.00z M 288.00,800.00L 286.016,736.00L 832.00,736.00 l0.00-384.00 l 64.00,0.00 L 896.00,800.00 L 288.00,800.00 z"  />
<glyph unicode="&#xe263;" d="M 915.456,632.128L 512.00,908.352L 108.544,632.128L 512.00,355.936L 915.456,632.128z M 512.00,294.304
			L 155.872,529.12L 108.544,480.00L 512.00,203.808L 915.456,480.00l-47.968,50.176L 512.00,294.304z M 512.00,142.112L 155.872,376.928l-47.328-49.12L 512.00,51.616
			l 403.456,276.192l-47.968,50.176L 512.00,142.112z"  />
<glyph unicode="&#xe270;" d="M 418.24,825.536L 232.768,875.232C 215.712,879.808, 198.176,869.664, 193.60,852.608L 3.104,141.696
			c-4.576-17.088, 5.568-34.624, 22.656-39.232L 211.20,52.768c 17.056-4.576, 34.624,5.568, 39.20,22.624l 190.496,710.944
			C 445.44,803.392, 435.328,820.96, 418.24,825.536z M 248.96,193.824c-13.728-51.232-66.336-81.60-117.568-67.872s-81.60,66.336-67.872,117.568
			s 66.336,81.632, 117.568,67.872C 232.32,297.664, 262.688,245.024, 248.96,193.824z M 285.728,330.976l-185.44,49.696L 199.648,751.584l 185.472-49.728
			L 285.728,330.976z M 606.016,256.00c-26.528,0.00-48.00-21.504-48.00-48.00s 21.472-48.00, 48.00-48.00c 26.496,0.00, 48.00,21.504, 48.00,48.00S 632.512,256.00, 606.016,256.00z
			 M 345.952,679.264L 222.272,712.384L 214.016,681.472l 123.648-33.12L 345.952,679.264z M 321.056,586.528l 8.32,30.912L 205.728,650.56L 197.44,619.648
			L 321.056,586.528z M 168.16,263.104c-25.60,6.88-51.936-8.352-58.784-33.952c-6.88-25.632, 8.32-51.936, 33.952-58.784
			c 25.60-6.88, 51.936,8.32, 58.784,33.952C 208.96,229.92, 193.76,256.224, 168.16,263.104z M 958.016,704.00l-128.00,0.00 l0.00-32.00 l 128.00,0.00 L 958.016,704.00 z M 958.016,576.00l-128.00,0.00 l0.00-32.00 l 128.00,0.00 L 958.016,576.00 z M 958.016,640.00
			l-128.00,0.00 l0.00-32.00 l 128.00,0.00 L 958.016,640.00 z M 894.016,256.00c-26.528,0.00-48.00-21.504-48.00-48.00s 21.472-48.00, 48.00-48.00c 26.496,0.00, 48.00,21.504, 48.00,48.00S 920.512,256.00, 894.016,256.00z M 990.016,864.00
			l-192.00,0.00 c-17.696,0.00-32.00-14.304-32.00-32.00l0.00-736.00 c0.00-17.664, 14.304-32.00, 32.00-32.00l 192.00,0.00 c 17.664,0.00, 32.00,14.336, 32.00,32.00L 1022.016,832.00 C 1022.016,849.696, 1007.648,864.00, 990.016,864.00z M 894.016,112.00
			c-53.024,0.00-96.00,43.008-96.00,96.00c0.00,53.024, 42.976,96.00, 96.00,96.00c 52.992,0.00, 96.00-42.976, 96.00-96.00C 990.016,155.008, 947.008,112.00, 894.016,112.00z M 990.016,352.00l-192.00,0.00 L 798.016,736.00 l 192.00,0.00 L 990.016,352.00 z
			 M 670.016,704.00l-128.00,0.00 l0.00-32.00 l 128.00,0.00 L 670.016,704.00 z M 670.016,576.00l-128.00,0.00 l0.00-32.00 l 128.00,0.00 L 670.016,576.00 z M 702.016,864.00l-192.00,0.00 c-17.696,0.00-32.00-14.304-32.00-32.00l0.00-736.00 c0.00-17.664, 14.304-32.00, 32.00-32.00l 192.00,0.00 c 17.664,0.00, 32.00,14.336, 32.00,32.00L 734.016,832.00 
			C 734.016,849.696, 719.648,864.00, 702.016,864.00z M 606.016,113.984c-53.024,0.00-96.00,43.008-96.00,96.00c0.00,53.024, 42.976,96.00, 96.00,96.00c 52.992,0.00, 96.00-42.976, 96.00-96.00
			C 702.016,156.992, 659.008,113.984, 606.016,113.984z M 702.016,352.00l-192.00,0.00 L 510.016,736.00 l 192.00,0.00 L 702.016,352.00 z M 670.016,640.00l-128.00,0.00 l0.00-32.00 l 128.00,0.00 L 670.016,640.00 z M 180.864,557.856l 123.616-33.12l 8.32,30.912
			l-123.648,33.12L 180.864,557.856z"  />
<glyph unicode="&#xe271;" d="M 896.00,544.00c-17.696,0.00-32.00,0.00-32.00,0.00l0.00,32.00 c0.00,35.328-28.672,64.00-64.00,64.00L 160.00,640.00 c-35.328,0.00-64.00-28.672-64.00-64.00l0.00-224.00 
			c0.00-35.328, 28.672-64.00, 64.00-64.00l 640.00,0.00 c 35.328,0.00, 64.00,28.672, 64.00,64.00l0.00,32.00 c0.00,0.00, 14.304,0.00, 32.00,0.00c 17.664,0.00, 32.00,14.336, 32.00,32.00l0.00,96.00 C 928.00,529.696, 913.664,544.00, 896.00,544.00z M 832.00,352.00
			c0.00-17.664-14.336-32.00-32.00-32.00L 160.00,320.00 c-17.696,0.00-32.00,14.336-32.00,32.00l0.00,224.00 c0.00,17.696, 14.304,32.00, 32.00,32.00l 640.00,0.00 c 17.664,0.00, 32.00-14.304, 32.00-32.00L 832.00,352.00 z M 160.00,352.00l 192.00,0.00 l0.00,224.00 L 160.00,576.00 L 160.00,352.00 z M 384.00,352.00l 192.00,0.00 l0.00,224.00 l-192.00,0.00 
			L 384.00,352.00 z M 608.00,352.00l 192.00,0.00 l0.00,224.00 l-192.00,0.00 L 608.00,352.00 z"  />
<glyph unicode="&#xe272;" d="M 896.00,544.00c-17.696,0.00-32.00,0.00-32.00,0.00l0.00,32.00 c0.00,35.328-28.672,64.00-64.00,64.00L 160.00,640.00 c-35.36,0.00-64.00-28.672-64.00-64.00l0.00-224.00 
			c0.00-35.328, 28.64-64.00, 64.00-64.00l 640.00,0.00 c 35.328,0.00, 64.00,28.672, 64.00,64.00l0.00,32.00 c0.00,0.00, 14.304,0.00, 32.00,0.00c 17.664,0.00, 32.00,14.336, 32.00,32.00l0.00,96.00 C 928.00,529.696, 913.664,544.00, 896.00,544.00z M 832.00,352.00
			c0.00-17.664-14.336-32.00-32.00-32.00L 160.00,320.00 c-17.696,0.00-32.00,14.336-32.00,32.00l0.00,224.00 c0.00,17.696, 14.304,32.00, 32.00,32.00l 640.00,0.00 c 17.664,0.00, 32.00-14.304, 32.00-32.00L 832.00,352.00 z M 160.00,352.00l 192.00,0.00 l0.00,224.00 L 160.00,576.00 L 160.00,352.00 z M 384.00,352.00l 192.00,0.00 l0.00,224.00 l-192.00,0.00 
			L 384.00,352.00 z"  />
<glyph unicode="&#xe273;" d="M 896.00,544.00c-17.696,0.00-32.00,0.00-32.00,0.00l0.00,32.00 c0.00,35.328-28.672,64.00-64.00,64.00L 160.00,640.00 c-35.36,0.00-64.00-28.672-64.00-64.00l0.00-224.00 
			c0.00-35.328, 28.64-64.00, 64.00-64.00l 640.00,0.00 c 35.328,0.00, 64.00,28.672, 64.00,64.00l0.00,32.00 c0.00,0.00, 14.304,0.00, 32.00,0.00c 17.664,0.00, 32.00,14.336, 32.00,32.00l0.00,96.00 C 928.00,529.696, 913.664,544.00, 896.00,544.00z M 832.00,352.00
			c0.00-17.664-14.336-32.00-32.00-32.00L 160.00,320.00 c-17.696,0.00-32.00,14.336-32.00,32.00l0.00,224.00 c0.00,17.696, 14.304,32.00, 32.00,32.00l 640.00,0.00 c 17.664,0.00, 32.00-14.304, 32.00-32.00L 832.00,352.00 z M 160.00,352.00l 192.00,0.00 l0.00,224.00 L 160.00,576.00 L 160.00,352.00 z"  />
<glyph unicode="&#xe274;" d="M 896.00,384.00c-17.696,0.00-32.00,0.00-32.00,0.00l0.00-32.00 c0.00-35.328-28.64-64.00-64.00-64.00L 160.00,288.00 c-35.36,0.00-64.00,28.672-64.00,64.00l0.00,224.00 
	c0.00,35.328, 28.64,64.00, 64.00,64.00l 640.00,0.00 c 35.36,0.00, 64.00-28.672, 64.00-64.00l0.00-32.00 c0.00,0.00, 14.304,0.00, 32.00,0.00s 32.00-14.304, 32.00-32.00l0.00-96.00 C 928.00,398.336, 913.696,384.00, 896.00,384.00z M 832.00,576.00
	c0.00,17.696-14.304,32.00-32.00,32.00L 160.00,608.00 c-17.696,0.00-32.00-14.304-32.00-32.00l0.00-224.00 c0.00-17.664, 14.304-32.00, 32.00-32.00l 640.00,0.00 c 17.696,0.00, 32.00,14.336, 32.00,32.00L 832.00,576.00 z"  />
<glyph unicode="&#xe275;" d="M 608.352,64.352l-224.672,0.00 c-35.168,0.00-63.616,28.48-63.616,63.616L 320.064,736.416 
	c0.00,35.136, 28.48,63.616, 63.616,63.616l 33.824,0.00 c0.00,0.00,0.00-1.664,0.00,15.904s 12.256,47.712, 29.824,47.712l 95.424,0.00 c 17.568,0.00, 31.808-30.144, 31.808-47.712
	s0.00-15.904,0.00-15.904l 33.824,0.00 c 35.168,0.00, 63.616-28.512, 63.616-63.616l0.00-608.448 C 671.968,92.80, 643.488,64.352, 608.352,64.352z M 542.72,702.592l-31.808,0.00 L 510.912,734.40 
	l-29.824,0.00 l0.00-31.808 L 449.28,702.592 l0.00-31.808 l 31.808,0.00 l0.00-31.808 l 29.824,0.00 l0.00,31.808 l 31.808,0.00 L 542.72,702.592 z M 640.16,577.344l-288.32,0.00 l0.00-449.376 c0.00-17.60, 14.24-31.808, 31.808-31.808
	l 224.672,0.00 c 17.568,0.00, 31.808,14.208, 31.808,31.808L 640.128,577.344 z M 447.296,193.60l 97.44,0.00 l0.00-33.824 l-97.44,0.00 L 447.296,193.60 z"  />
<glyph unicode="&#xe276;" d="M 898.40,412.128l0.00-252.672 c0.00-17.664-9.984-31.968-31.936-31.968
	c-5.312,0.00-18.464,11.328-34.624,28.384L 831.84,834.08 c 16.16,17.056, 29.312,28.384, 34.624,28.384c 23.936,0.00, 31.936-14.304, 31.936-31.936l0.00-259.072 
	c 43.296-1.216, 83.616-36.32, 83.616-79.648C 982.016,448.448, 941.696,413.344, 898.40,412.128z M 384.48,350.528c 1.984,0.00,0.00,288.928,0.00,288.928
	c 219.424,0.00, 349.504,96.32, 418.048,162.368L 802.528,188.16 C 733.984,254.176, 603.904,350.528, 384.48,350.528z M 256.672,97.536l-63.904,253.664L 128.832,351.20 
	c0.00,0.00-19.008,43.136-27.648,95.872c-16.288,0.00-30.528,0.00-36.288,0.00c-17.632,0.00-31.936,14.304-31.936,31.968l0.00,31.936 c0.00,17.664, 14.304,31.968, 31.936,31.968
	c 5.76,0.00, 20.00,0.00, 36.288,0.00c 8.672,52.736, 27.648,95.84, 27.648,95.84l 223.68,0.00 l0.00-287.584 L 288.608,351.20 l 8.064-31.936l 31.904,0.00 l 15.968-63.936L 312.736,255.328 l 39.776-157.792
	L 256.672,97.536 z"  />
<glyph unicode="&#xe277;" d="M 912.00,128.00c-26.496,0.00-48.00,21.504-48.00,48.00l0.00,576.00 C 864.00,778.496, 885.504,800.00, 912.00,800.00
	S 960.00,778.496, 960.00,752.00l0.00-576.00 C 960.00,149.504, 938.496,128.00, 912.00,128.00z M 672.00,192.00c0.00-35.328-28.672-64.00-64.00-64.00l-288.00,0.00 c-35.328,0.00-64.00,28.672-64.00,64.00l0.00,126.688 l-127.712,28.416l0.00,231.328 
	l 704.768,155.296l0.00-543.488 L 672.00,226.048L 672.00,192.00 z M 640.00,233.184L 288.00,311.552L 288.00,192.00 c0.00-17.664, 14.336-32.00, 32.00-32.00l 288.00,0.00 c 17.696,0.00, 32.00,14.336, 32.00,32.00L 640.00,233.184 z M 64.00,320.00
	c-17.664,0.00-32.00,14.336-32.00,32.00l0.00,224.00 c0.00,17.696, 14.336,32.00, 32.00,32.00s 32.00-14.304, 32.00-32.00l0.00-224.00 C 96.00,334.336, 81.664,320.00, 64.00,320.00z"  />
<glyph unicode="&#xe278;" d="M 88.672,305.632c-37.504-37.504-37.504-98.272,0.00-135.776l 113.152-113.12
			c 37.472-37.504, 98.24-37.504, 135.744,0.00l 158.40,158.368L 247.104,464.00L 88.672,305.632z M 269.728,486.624l 248.896-248.896l 203.616,203.648l-248.864,248.896
			L 269.728,486.624z M 384.00,448.00l-32.00,0.00 l0.00,32.00 l 32.00,0.00 L 384.00,448.00 z M 448.00,384.00l-32.00,0.00 l0.00,32.00 l 32.00,0.00 L 448.00,384.00 z M 448.00,448.00l-32.00,0.00 l0.00,32.00 l 32.00,0.00 L 448.00,448.00 z M 448.00,512.00l-32.00,0.00 l0.00,32.00 l 32.00,0.00 L 448.00,512.00 z M 608.00,480.00l 32.00,0.00 l0.00-32.00 l-32.00,0.00 L 608.00,480.00 z M 544.00,544.00l 32.00,0.00 l0.00-32.00 l-32.00,0.00 L 544.00,544.00 
			z M 544.00,480.00l 32.00,0.00 l0.00-32.00 l-32.00,0.00 L 544.00,480.00 z M 544.00,416.00l 32.00,0.00 l0.00-32.00 l-32.00,0.00 L 544.00,416.00 z M 480.00,608.00l 32.00,0.00 l0.00-32.00 l-32.00,0.00 L 480.00,608.00 z M 480.00,544.00l 32.00,0.00 l0.00-32.00 l-32.00,0.00 L 480.00,544.00 z M 480.00,480.00l 32.00,0.00 l0.00-32.00 l-32.00,0.00 L 480.00,480.00 z M 480.00,416.00l 32.00,0.00 l0.00-32.00 l-32.00,0.00 L 480.00,416.00 z M 480.00,352.00l 32.00,0.00 l0.00-32.00 l-32.00,0.00 
			L 480.00,352.00 z M 903.328,758.144l-113.152,113.12c-37.504,37.504-98.272,37.504-135.776,0.00L 496.00,712.896l 248.864-248.896l 158.432,158.40
			C 940.768,659.872, 940.768,720.672, 903.328,758.144z"  />
<glyph unicode="&#xe279;" d="M 179.232,396.128c-62.464-62.496-62.464-163.808,0.00-226.304L 201.888,147.20
			c 62.464-62.432, 163.776-62.432, 226.272,0.00l 180.992,181.056l-248.896,248.896L 179.232,396.128z M 405.504,169.824c-49.984-49.984-131.04-49.984-180.992,0.00
			l-22.624,22.624c-49.984,49.984-49.984,131.072,0.00,181.056l 158.368,158.368l 203.648-203.616L 405.504,169.824z M 812.80,758.144l-22.624,22.624
			c-62.464,62.496-163.776,62.496-226.272,0.00l-181.024-180.992l 248.896-248.896l 181.024,180.992C 875.296,594.368, 875.296,695.68, 812.80,758.144z"  />
<glyph unicode="&#xe27a;" d="M 773.12,697.376c 12.096-12.064, 12.096-31.648,0.00-43.744
	c-12.096-12.064-21.92-21.888-21.92-21.888l 21.92-21.888c 24.16-24.16, 24.16-63.328,0.00-87.52L 444.96,194.24c-24.192-24.192-63.36-24.192-87.52,0.00
	l-21.888,21.888l-87.488-87.552l 43.744-43.744c 12.096-12.064, 12.096-31.616,0.00-43.744c-12.096-12.064-31.68-12.064-43.744,0.00l-175.04,175.072
	c-12.064,12.064-12.064,31.616,0.00,43.744c 12.096,12.064, 31.68,12.064, 43.744,0.00l 43.744-43.744l 87.52,87.488l-21.888,21.888
	c-24.192,24.128-24.192,63.328,0.00,87.488L 554.336,741.152c 24.192,24.192, 63.328,24.192, 87.488,0.00l 21.888-21.888c0.00,0.00, 9.824,9.824, 21.888,21.888
	c 12.096,12.096, 31.68,12.096, 43.744,0.00l 10.944-10.944l 175.04,175.04l0.00-43.744 l-153.152-153.152L 773.12,697.376z M 619.968,719.264
	c-12.064,12.096-31.648,12.096-43.744,0.00l-65.632-65.632l 43.744-43.744l-21.888-21.888l-43.744,43.744l-65.632-65.632l 43.744-43.776l-21.888-21.888
	l-43.776,43.776l-21.888-21.888l 87.52-87.488l-21.888-21.888l-87.52,87.488L 291.808,434.88l 87.488-87.488l-21.888-21.888l-87.488,87.488l-21.888-21.888
	c-12.096-12.064-12.096-31.68,0.00-43.744l 131.264-131.264c 12.096-12.128, 31.68-12.128, 43.776,0.00l 328.128,328.128c 12.128,12.064, 12.128,31.648,0.00,43.744
	L 619.968,719.264z M 532.48,675.52l 21.888,21.888l 87.488-87.488l-21.888-21.888L 532.48,675.52z M 532.48,500.512l-87.488,87.52l 21.888,21.888l 87.488-87.52
	L 532.48,500.512z M 313.696,456.736l 21.888,21.888l 43.744-43.744l-21.888-21.888L 313.696,456.736z M 958.144,691.648c0.00-23.20-18.816-41.984-41.984-41.984
	c-23.232,0.00-42.016,18.816-42.016,41.984c0.00,23.232, 42.016,86.656, 42.016,86.656S 958.144,714.848, 958.144,691.648z"  />
<glyph unicode="&#xe27b;" d="M 606.688,418.784l0.00,29.344 l 98.016,0.00 l0.00-29.344 L 606.688,418.784 z M 606.688,512.80l 98.016,0.00 l0.00-31.328 l-98.016,0.00 
	L 606.688,512.80 z M 606.688,575.52l 98.016,0.00 l0.00-31.36 l-98.016,0.00 L 606.688,575.52 z M 606.688,640.224l 98.016,0.00 l0.00-31.328 l-98.016,1.984L 606.688,640.224 z M 606.688,706.912l 98.016,0.00 l0.00-33.344 
	l-98.016,0.00 L 606.688,706.912 z M 606.688,769.60l 98.016,0.00 L 704.704,738.24 l-98.016,0.00 L 606.688,769.60 z M 663.456,219.104c0.00-103.872-84.224-188.096-188.096-188.096s-188.096,84.224-188.096,188.096
	c0.00,71.232, 37.60,133.152, 95.968,165.088L 383.232,802.976 c0.00,51.936, 44.096,94.016, 96.032,94.016s 94.048-42.08, 94.048-94.016l0.00-423.52 
	C 627.328,346.368, 663.456,287.04, 663.456,219.104z M 541.984,360.48L 541.984,802.976 c0.00,34.624-28.064,62.688-62.688,62.688s-62.688-28.064-62.688-62.688l0.00-438.752 
	c-57.408-23.296-97.984-79.36-97.984-145.12c0.00-86.56, 70.176-156.736, 156.736-156.736c 86.56,0.00, 156.704,70.176, 156.704,156.736
	C 632.096,281.76, 595.104,335.36, 541.984,360.48z M 475.36,93.696c-69.28,0.00-125.408,56.16-125.408,125.408c0.00,59.808, 41.952,109.632, 97.984,122.176
	l0.00,298.944 l 62.72,0.00 l0.00-301.376 c 51.936-15.328, 90.112-62.848, 90.112-119.744C 600.768,149.856, 544.64,93.696, 475.36,93.696z"  />
<glyph unicode="&#xe27c;" d="M 516.16,935.008c-171.872,0.00-262.08-135.552-262.08-258.88c0.00-138.368, 128.768-225.376, 128.768-451.648
			l 130.40,0.00 c0.00,0.00, 122.464-0.576, 126.176-0.576c 3.712,227.936, 130.496,317.60, 130.496,453.312C 769.952,793.024, 688.032,935.008, 516.16,935.008z M 623.168,191.008
			l-224.00,0.00 c-8.832,0.00-16.00-7.168-16.00-16.00s 7.168-16.00, 16.00-16.00l 224.00,0.00 c 8.80,0.00, 16.00,7.168, 16.00,16.00S 631.968,191.008, 623.168,191.008z M 623.168,127.008l-224.00,0.00 
			c-8.832,0.00-16.00-7.168-16.00-16.00s 7.168-16.00, 16.00-16.00l 224.00,0.00 c 8.80,0.00, 16.00,7.168, 16.00,16.00S 631.968,127.008, 623.168,127.008zM 415.168,63.008c0.00,0.00,0.00-14.304,0.00-32.00c0.00-17.664, 14.304-32.00, 32.00-32.00l 128.448,0.00 c 17.696,0.00, 32.00,14.336, 32.00,32.00
	c0.00,17.696,0.00,32.00,0.00,32.00L 415.168,63.008 z"  />
<glyph unicode="&#xe27d;" d="M 681.76,691.04c 17.056,4.608, 27.20,22.112, 22.624,39.20
		c-4.576,17.088-22.112,27.232-39.20,22.624l-322.912-99.36c-17.088-4.576-27.20-22.112-22.656-39.20c 4.576-17.056, 22.112-27.232, 39.20-22.624
		l 26.656,8.192L 416.00,544.256l-32.00,0.00 c-35.328,0.00-64.00-28.672-64.00-64.00l0.00-133.344 l 64.00-90.656l 256.00,0.00 l 64.00,90.656l0.00,133.344 c0.00,35.328-28.672,64.00-64.00,64.00l-32.00,0.00 l 64.48,143.936L 681.76,691.04z
		 M 544.00,544.256l-64.00,0.00 l-39.776,72.448l 158.016,48.64L 544.00,544.256zM 665.184,848.832L 342.272,749.472c-17.088-4.576-27.20-22.112-22.656-39.20
		c 4.576-17.056, 22.112-27.232, 39.20-22.624l 322.912,99.36c 17.056,4.608, 27.20,22.112, 22.624,39.20S 682.24,853.44, 665.184,848.832zM 358.816,783.648l 322.912,99.36c 17.056,4.608, 27.20,22.112, 22.624,39.20
		c-4.576,17.088-22.112,27.232-39.20,22.624L 342.272,845.472c-17.088-4.576-27.20-22.112-22.656-39.20C 324.192,789.216, 341.76,779.072, 358.816,783.648zM 624.00,224.256l-224.00,0.00 c-8.832,0.00-16.00-7.168-16.00-16.00s 7.168-16.00, 16.00-16.00l 224.00,0.00 
		c 8.80,0.00, 16.00,7.168, 16.00,16.00S 632.80,224.256, 624.00,224.256zM 624.00,160.256l-224.00,0.00 c-8.832,0.00-16.00-7.168-16.00-16.00s 7.168-16.00, 16.00-16.00l 224.00,0.00 
		c 8.80,0.00, 16.00,7.168, 16.00,16.00S 632.80,160.256, 624.00,160.256zM 624.00,96.256l-224.00,0.00 c-8.832,0.00-16.00-7.168-16.00-16.00s 7.168-16.00, 16.00-16.00l 224.00,0.00 
		c 8.80,0.00, 16.00,7.168, 16.00,16.00S 632.80,96.256, 624.00,96.256zM 464.00,32.256c-3.232-26.304, 21.504-48.00, 48.00-48.00s 48.00,21.504, 48.00,48.00
		C 560.00,30.88, 464.00,28.864, 464.00,32.256zM 360.672,878.208l 213.76,66.976c 16.864,5.28, 26.24,23.264, 20.96,40.096
		c-5.28,16.864-23.232,26.272-40.096,20.992l-213.76-66.976c-16.864-5.28-26.24-23.264-20.96-40.128C 325.856,882.336, 343.808,872.928, 360.672,878.208z"  />
<glyph unicode="&#xe27e;" d="M 567.904,543.456c-40.00-17.984-128.704,26.08-128.704,26.08
			c-103.936,62.304, 39.04-194.336, 39.04-194.336s 2.976-80.096, 20.96-90.08C 649.184,495.136, 607.904,561.472, 567.904,543.456z M 513.92,344.32
			c-12.128,0.00-63.104,152.928-57.088,184.928c 40.032-4.00, 77.088-19.104, 99.104-7.104C 617.92,550.24, 527.904,344.32, 513.92,344.32z M 638.464,225.696
			c 3.68,233.76, 129.472,323.712, 129.472,462.912c0.00,118.784-81.28,270.40-251.84,270.40c-170.528,0.00-260.032-145.056-260.032-271.488
			c0.00-141.952, 127.776-231.168, 127.776-463.296l 129.376,0.00 C 513.216,224.224, 634.752,225.696, 638.464,225.696z M 409.888,255.36
			c0.00,216.672-123.776,299.936-123.776,432.416c0.00,118.016, 80.32,241.792, 229.536,241.792s 222.336-129.92, 222.336-240.768c0.00-129.92-122.048-215.744-125.312-433.92
			c-3.264,0.00-99.552,0.512-99.552,0.512L 409.888,255.392 z M 624.16,191.552l-224.00,0.00 c-8.832,0.00-16.00-7.168-16.00-16.00s 7.168-16.00, 16.00-16.00l 224.00,0.00 
			c 8.80,0.00, 16.00,7.168, 16.00,16.00S 632.96,191.552, 624.16,191.552z M 624.16,127.552l-224.00,0.00 c-8.832,0.00-16.00-7.168-16.00-16.00s 7.168-16.00, 16.00-16.00l 224.00,0.00 
			c 8.80,0.00, 16.00,7.168, 16.00,16.00S 632.96,127.552, 624.16,127.552z M 415.904,62.624c0.00,0.00,0.00-10.688,0.00-28.80s 14.208-32.80, 31.744-32.80l 128.992,0.00 
			c 17.568,0.00, 31.744,14.688, 31.744,32.80s-1.984,28.80-1.984,28.80L 415.904,62.624 z"  />
<glyph unicode="&#xe27f;" d="M 494.464,895.808L 66.88,711.584l 428.00-182.784L 927.296,712.00L 494.464,895.808z M 512.00,505.792
			l0.00-441.60 l 415.84,197.408L 927.84,682.432 L 512.00,505.792z M 64.16,261.60l 417.248-197.408l0.00,441.60 L 64.16,682.432L 64.16,261.60 z"  />
<glyph unicode="&#xe280;" d="M 55.52,421.376l 385.728-194.592l 68.864,194.592L 124.416,605.632L 55.52,421.376z
			 M 518.752,421.376l 65.44-192.864l 399.488,194.592l-77.504,182.528L 518.752,421.376z M-7.904,761.216l 132.608-154.976L 510.40,802.528l-125.696,160.16
			L-7.904,761.216z M 1031.904,757.792L 647.872,962.688l-130.88-160.16l 389.184-196.288L 1031.904,757.792z M 101.60,372.704l-1.312-186.848l 406.816-188.576
			L 507.104,348.64 l-58.112-151.552L 101.60,372.704z M 521.312,348.64l0.00-351.328 l 405.568,188.576l0.00,185.568 l-351.68-174.72L 521.312,348.64z"  />
<glyph unicode="&#xe281;" d="M 64.16,261.60l 417.248-197.408l0.00,441.60 L 64.16,682.432L 64.16,261.60 z M 192.192,518.688
			l 160.832-74.784l-0.928-58.944l-160.80,74.752L 192.192,518.688z M 512.00,505.792l0.00-441.60 l 415.808,197.408L 927.808,682.432 L 512.00,505.792z M 494.496,895.808L 66.88,711.584
			l 428.00-182.784L 927.328,712.00L 494.496,895.808z"  />
<glyph unicode="&#xe282;" d="M 67.296,606.336l 428.736-532.128l-171.936,532.128L 67.296,606.336 z M 370.688,606.336l 151.84-533.216l 130.656,533.216L 370.688,606.336 z M 545.632,74.208
			l 412.736,532.128l-254.816,0.00 L 545.632,74.208z M 959.328,641.152l-123.744,211.584l-123.808-211.584L 959.328,641.152 z M 796.672,864.864L 549.12,864.864 l 123.744-218.848
			L 796.672,864.864z M 634.816,641.152l-123.744,211.584l-123.776-211.584L 634.816,641.152 z M 474.848,864.864L 227.328,864.864 l 123.776-218.848L 474.848,864.864z M 188.448,852.736
			l-123.744-211.584l 247.52,0.00 L 188.448,852.736z"  />
<glyph unicode="&#xe283;" d="M 572.512,678.24l-121.28,0.00 c0.00,0.00-197.44-154.592-197.44-387.456s 207.552-235.104, 207.552-235.104
			s 54.016-4.00, 100.00,0.00c0.00-1.984, 208.80,27.68, 208.80,235.296C 770.176,498.528, 572.512,678.24, 572.512,678.24z M 451.232,693.44l 121.504,0.00 L 572.736,739.008 l-121.504,0.00 
			L 451.232,693.44 z M 570.88,754.176l 61.696,151.904c0.00,0.00-38.944-32.288-61.696-32.288c-22.816,0.00-58.88,31.328-58.88,31.328s-38.912-31.328-61.696-31.328
			s-59.808,30.368-59.808,30.368l 62.656-150.016L 570.88,754.144 z"  />
<glyph unicode="&#xe284;" d="M 448.544,694.336l 125.888,0.00 L 574.432,741.568 l-125.888,0.00 L 448.544,694.336 z M 573.504,678.624l-124.96,0.00 
			c0.00,0.00-205.60-202.656-205.60-401.344c0.00-210.528, 215.424-227.264, 215.424-227.264s 64.256-10.656, 104.224,0.00c0.00,0.00, 218.432,25.60, 218.432,226.24
			C 781.056,476.96, 573.504,678.624, 573.504,678.624z M 582.752,252.064c-5.056-10.24-11.872-18.816-20.576-25.664
			c-8.672-6.88-18.816-12.032-30.368-15.488c-1.472-0.448-3.072-0.608-4.576-0.992l0.00-34.944 l-31.456,0.00 l0.00,30.848 
			c-0.384-0.032-0.768-0.096-1.152-0.096c-8.928,0.00-17.216,0.704-24.896,2.144c-7.648,1.472-14.40,3.232-20.288,5.248
			c-5.888,2.048-10.784,4.192-14.688,6.432c-3.936,2.24-6.784,4.224-8.512,5.952c-1.76,1.728-2.976,4.224-3.712,7.488
			c-0.704,3.296-1.088,7.968-1.088,14.112c0.00,4.128, 0.128,7.584, 0.416,10.40s 0.672,5.056, 1.312,6.816
			c 0.608,1.76, 1.376,2.976, 2.368,3.712c 0.992,0.704, 2.176,1.088, 3.488,1.088c 1.888,0.00, 4.512-1.088, 7.904-3.296
			c 3.392-2.208, 7.744-4.64, 13.088-7.296c 5.344-2.688, 11.68-5.088, 19.104-7.328c 7.392-2.176, 15.968-3.296, 25.696-3.296
			c 6.40,0.00, 12.128,0.768, 17.184,2.304s 9.376,3.68, 12.896,6.496c 3.552,2.816, 6.24,6.272, 8.096,10.40c 1.888,4.16, 2.816,8.736, 2.816,13.856
			c0.00,5.856-1.632,10.88-4.80,15.104c-3.20,4.192-7.392,7.904-12.512,11.20c-5.12,3.264-10.944,6.304-17.472,9.184s-13.28,5.92-20.192,9.088
			c-6.944,3.20-13.664,6.816-20.192,10.912c-6.528,4.064-12.384,8.896-17.504,14.56s-9.28,12.384-12.512,20.096
			c-3.20,7.712-4.768,16.992-4.768,27.776c0.00,12.416, 2.304,23.296, 6.88,32.672c 4.608,9.376, 10.816,17.184, 18.592,23.36
			c 7.808,6.176, 16.992,10.816, 27.584,13.888c 5.44,1.568, 11.072,2.72, 16.832,3.456l0.00,33.12 l 31.456,0.00 l0.00-33.088 c 1.28-0.16, 2.528-0.096, 3.776-0.288
			c 6.112-0.928, 11.872-2.176, 17.184-3.776c 5.312-1.568, 10.048-3.36, 14.176-5.344s 6.88-3.616, 8.192-4.96
			c 1.376-1.312, 2.24-2.432, 2.752-3.36c 0.448-0.928, 0.80-2.176, 1.184-3.712c 0.32-1.536, 0.576-3.456, 0.672-5.824
			c 0.128-2.304, 0.192-5.216, 0.192-8.672c0.00-3.872-0.128-7.168-0.32-9.856c-0.192-2.656-0.512-4.864-0.992-6.592
			c-0.448-1.76-1.12-3.008-1.984-3.808s-1.984-1.184-3.488-1.184c-1.44,0.00-3.808,0.896-7.008,2.752
			c-3.20,1.888-7.136,3.872-11.744,6.048c-4.672,2.176-10.048,4.16-16.192,5.984c-6.176,1.792-12.896,2.656-20.192,2.656
			c-5.76,0.00-10.752-0.672-15.008-2.08c-4.288-1.376-7.84-3.328-10.72-5.76c-2.848-2.464-4.992-5.44-6.368-8.864
			c-1.408-3.424-2.08-7.104-2.08-10.944c0.00-5.76, 1.568-10.72, 4.672-14.912s 7.328-7.936, 12.608-11.20
			c 5.248-3.296, 11.232-6.336, 17.92-9.184c 6.656-2.88, 13.44-5.92, 20.384-9.088c 6.944-3.232, 13.696-6.848, 20.384-10.912
			s 12.64-8.928, 17.824-14.592s 9.376-12.32, 12.576-19.968c 3.20-7.68, 4.80-16.672, 4.80-27.104C 590.368,274.24, 587.808,262.336, 582.752,252.064z
			 M 572.512,757.312l 63.936,157.408c0.00,0.00-40.32-33.472-63.936-33.472s-61.024,32.48-61.024,32.48s-40.32-32.48-63.936-32.48
			c-23.584,0.00-61.984,31.488-61.984,31.488l 64.928-155.424L 572.512,757.312 z"  />
<glyph unicode="&#xe285;" d="M 256.00,608.00l 128.00,0.00 L 384.00,736.00 L 256.00,736.00 L 256.00,608.00 z M 448.00,608.00l 128.00,0.00 L 576.00,736.00 l-128.00,0.00 L 448.00,608.00 z M 640.00,736.00l0.00-128.00 l 128.00,0.00 L 768.00,736.00 L 640.00,736.00 z M 256.00,416.00l 128.00,0.00 l0.00,128.00 L 256.00,544.00 L 256.00,416.00 z M 448.00,416.00l 128.00,0.00 
			l0.00,128.00 l-128.00,0.00 L 448.00,416.00 z M 640.00,416.00l 128.00,0.00 l0.00,128.00 l-128.00,0.00 L 640.00,416.00 z M 256.00,224.00l 128.00,0.00 l0.00,128.00 L 256.00,352.00 L 256.00,224.00 z M 448.00,224.00l 128.00,0.00 l0.00,128.00 l-128.00,0.00 L 448.00,224.00 z M 640.00,224.00l 128.00,0.00 l0.00,128.00 l-128.00,0.00 L 640.00,224.00 z"  />
<glyph unicode="&#xe286;" d="M 256.00,512.00l 224.00,0.00 L 480.00,736.00 L 256.00,736.00 L 256.00,512.00 z M 544.00,736.00l0.00-224.00 l 224.00,0.00 L 768.00,736.00 L 544.00,736.00 z M 544.00,224.00l 224.00,0.00 l0.00,224.00 l-224.00,0.00 L 544.00,224.00 z M 256.00,224.00l 224.00,0.00 l0.00,224.00 L 256.00,448.00 L 256.00,224.00 z"  />
<glyph unicode="&#xe287;" d="M 256.00,736.00l0.00-128.00 l 512.00,0.00 L 768.00,736.00 L 256.00,736.00 z M 256.00,416.00l 512.00,0.00 l0.00,128.00 L 256.00,544.00 L 256.00,416.00 z M 256.00,224.00l 512.00,0.00 l0.00,128.00 L 256.00,352.00 L 256.00,224.00 z"  />
<glyph unicode="&#xe288;" d="M 256.00,608.00l 128.00,0.00 L 384.00,736.00 L 256.00,736.00 L 256.00,608.00 z M 256.00,416.00l 128.00,0.00 l0.00,128.00 L 256.00,544.00 L 256.00,416.00 z M 256.00,224.00l 128.00,0.00 l0.00,128.00 L 256.00,352.00 L 256.00,224.00 z M 448.00,736.00l0.00-128.00 l 320.00,0.00 L 768.00,736.00 L 448.00,736.00 z M 448.00,416.00l 320.00,0.00 
			l0.00,128.00 L 448.00,544.00 L 448.00,416.00 z M 448.00,224.00l 320.00,0.00 l0.00,128.00 L 448.00,352.00 L 448.00,224.00 z"  />
<glyph unicode="&#xe289;" d="M0.00,256.352L0.00,671.648 l 63.648,0.00 l0.00-191.072 l 63.04,0.00 l0.00,191.072 l 66.336,0.00 l0.00-63.68 L 255.36,607.968 l0.00,63.68 l 64.384,0.00 l0.00-127.36 l 63.68,0.00 
	l0.00,127.36 l 64.992,0.00 l0.00-62.336 l 62.368,0.00 l0.00,62.336 l 66.336,0.00 l0.00-127.36 l 62.336,0.00 l0.00,127.36 l 65.024,0.00 l0.00-191.072 l 60.992,0.00 l0.00,191.072 l 67.04,0.00 l0.00-62.336 l 63.04,0.00 l0.00,62.336 l 65.696,0.00 l0.00-127.36 l 60.352,0.00 l0.00,127.36 
	l 67.04,0.00 l0.00-62.336 l 61.664,0.00 l0.00,62.336 L 1216.00,671.648 l0.00-127.36 l 63.04,0.00 l0.00,127.36 l 65.024,0.00 l0.00-415.328 L0.00,256.32 z"  />
<glyph unicode="&#xe28a;" d="M 736.736,63.808l0.00,64.928 L 704.32,128.736 l0.00-64.928 l-32.448,0.00 l0.00,64.928 L 639.36,128.736 l0.00-64.928 l-30.432,0.00 l0.00,97.376 
	l-32.448,0.00 l0.00-97.376 l-32.448,0.00 l0.00,64.928 l-32.448,0.00 l0.00-64.928 l-30.432,0.00 l0.00,64.928 l-32.448,0.00 l0.00-64.928 l-32.48,0.00 l0.00,97.376 l-32.448,0.00 l0.00-97.376 l-32.448,0.00 l0.00,64.928 L 320.96,128.736 l0.00-64.928 L 288.512,63.808 
	l0.00,64.928 L 256.032,128.736 l0.00-64.928 L 223.616,63.808 l0.00,97.376 L 193.184,161.184 l0.00-97.376 L 95.84,63.808 L 95.84,864.16 l 800.352-800.352L 736.736,63.808 z M 223.616,557.312l0.00-363.68 l 363.648,0.00 L 223.616,557.312z"  />
<glyph unicode="&#xe28b;" d="M 96.00,864.00l0.00-800.00 l 800.00,0.00 L 896.00,864.00 L 96.00,864.00 z M 352.00,96.00L 128.00,96.00 L 128.00,832.00 l 224.00,0.00 L 352.00,96.00 z M 864.00,96.00L 384.00,96.00 L 384.00,832.00 l 480.00,0.00 L 864.00,96.00 z"  />
<glyph unicode="&#xe28c;" d="M 96.00,864.00l0.00-800.00 l 800.00,0.00 L 896.00,864.00 L 96.00,864.00 z M 608.00,96.00L 128.00,96.00 L 128.00,832.00 l 480.00,0.00 L 608.00,96.00 z M 864.00,96.00l-224.00,0.00 L 640.00,832.00 l 224.00,0.00 L 864.00,96.00 z"  />
<glyph unicode="&#xe28d;" d="M 96.00,864.00l0.00-800.00 l 800.00,0.00 L 896.00,864.00 L 96.00,864.00 z M 480.00,96.00L 128.00,96.00 L 128.00,832.00 l 352.00,0.00 L 480.00,96.00 z M 864.00,96.00L 512.00,96.00 L 512.00,832.00 l 352.00,0.00 L 864.00,96.00 z"  />
<glyph unicode="&#xe28e;" d="M 96.00,864.00l0.00-800.00 l 800.00,0.00 L 896.00,864.00 L 96.00,864.00 z M 352.00,96.00L 128.00,96.00 L 128.00,832.00 l 224.00,0.00 L 352.00,96.00 z M 608.00,96.00l-224.00,0.00 L 384.00,832.00 l 224.00,0.00 L 608.00,96.00 z M 864.00,96.00l-224.00,0.00 L 640.00,832.00 l 224.00,0.00 L 864.00,96.00 z"  />
<glyph unicode="&#xe28f;" d="M 96.00,864.00l0.00-800.00 l 800.00,0.00 L 896.00,864.00 L 96.00,864.00 z M 864.00,96.00L 128.00,96.00 l0.00,224.00 l 736.00,0.00 L 864.00,96.00 z M 864.00,352.00L 128.00,352.00 l0.00,224.00 l 736.00,0.00 L 864.00,352.00 z M 864.00,608.00L 128.00,608.00 L 128.00,832.00 l 736.00,0.00 L 864.00,608.00 z"  />
<glyph unicode="&#xe290;" d="M 96.00,864.00l0.00-800.00 l 800.00,0.00 L 896.00,864.00 L 96.00,864.00 z M 480.00,96.00L 128.00,96.00 L 128.00,448.00 l 352.00,0.00 L 480.00,96.00 z M 480.00,480.00L 128.00,480.00 L 128.00,832.00 l 352.00,0.00 L 480.00,480.00 z M 864.00,96.00L 512.00,96.00 L 512.00,448.00 l 352.00,0.00 L 864.00,96.00 z
			 M 864.00,480.00L 512.00,480.00 L 512.00,832.00 l 352.00,0.00 L 864.00,480.00 z"  />
<glyph unicode="&#xe291;" d="M 96.00,864.00l0.00-800.00 l 800.00,0.00 L 896.00,864.00 L 96.00,864.00 z M 352.00,96.00L 128.00,96.00 l0.00,224.00 l 224.00,0.00 L 352.00,96.00 z M 352.00,352.00L 128.00,352.00 l0.00,224.00 l 224.00,0.00 L 352.00,352.00 z M 352.00,608.00L 128.00,608.00 L 128.00,832.00 l 224.00,0.00 L 352.00,608.00 z M 608.00,96.00
			l-224.00,0.00 l0.00,224.00 l 224.00,0.00 L 608.00,96.00 z M 608.00,352.00l-224.00,0.00 l0.00,224.00 l 224.00,0.00 L 608.00,352.00 z M 608.00,608.00l-224.00,0.00 L 384.00,832.00 l 224.00,0.00 L 608.00,608.00 z M 864.00,96.00l-224.00,0.00 l0.00,224.00 l 224.00,0.00 L 864.00,96.00 z M 864.00,352.00l-224.00,0.00 l0.00,224.00 l 224.00,0.00 L 864.00,352.00 z M 864.00,608.00l-224.00,0.00 L 640.00,832.00 l 224.00,0.00 L 864.00,608.00 z"  />
<glyph unicode="&#xe292;" d="M 96.00,864.00l0.00-800.00 l 800.00,0.00 L 896.00,864.00 L 96.00,864.00 z M 864.00,96.00L 128.00,96.00 L 128.00,640.00 l 736.00,0.00 L 864.00,96.00 z M 864.00,672.00L 128.00,672.00 L 128.00,832.00 l 736.00,0.00 L 864.00,672.00 z"  />
<glyph unicode="&#xe293;" d="M 96.00,864.00l0.00-800.00 l 800.00,0.00 L 896.00,864.00 L 96.00,864.00 z M 352.00,96.00L 128.00,96.00 L 128.00,640.00 l 224.00,0.00 L 352.00,96.00 z M 864.00,96.00L 384.00,96.00 L 384.00,640.00 l 480.00,0.00 L 864.00,96.00 z M 864.00,672.00L 128.00,672.00 L 128.00,832.00 l 736.00,0.00 L 864.00,672.00 z"  />
<glyph unicode="&#xe294;" d="M 96.00,864.00l0.00-800.00 l 800.00,0.00 L 896.00,864.00 L 96.00,864.00 z M 608.00,96.00L 128.00,96.00 L 128.00,640.00 l 480.00,0.00 L 608.00,96.00 z M 864.00,96.00l-224.00,0.00 L 640.00,640.00 l 224.00,0.00 L 864.00,96.00 z M 864.00,672.00L 128.00,672.00 L 128.00,832.00 l 736.00,0.00 L 864.00,672.00 z"  />
<glyph unicode="&#xe295;" d="M 96.00,864.00l0.00-800.00 l 800.00,0.00 L 896.00,864.00 L 96.00,864.00 z M 352.00,96.00L 128.00,96.00 L 128.00,832.00 l 224.00,0.00 L 352.00,96.00 z M 864.00,96.00L 384.00,96.00 L 384.00,448.00 l 480.00,0.00 L 864.00,96.00 z M 864.00,480.00L 384.00,480.00 L 384.00,832.00 l 480.00,0.00 L 864.00,480.00 z"  />
<glyph unicode="&#xe296;" d="M 96.00,864.00l0.00-800.00 l 800.00,0.00 L 896.00,864.00 L 96.00,864.00 z M 352.00,96.00L 128.00,96.00 L 128.00,640.00 l 224.00,0.00 L 352.00,96.00 z M 864.00,96.00L 384.00,96.00 l0.00,256.00 l 480.00,0.00 L 864.00,96.00 z M 864.00,384.00L 384.00,384.00 l0.00,256.00 l 480.00,0.00 L 864.00,384.00 z
			 M 864.00,672.00L 128.00,672.00 L 128.00,832.00 l 736.00,0.00 L 864.00,672.00 z"  />
<glyph unicode="&#xe297;" d="M 96.00,864.00l0.00-800.00 l 800.00,0.00 L 896.00,864.00 L 96.00,864.00 z M 480.00,96.00L 128.00,96.00 L 128.00,640.00 l 352.00,0.00 L 480.00,96.00 z M 864.00,96.00L 512.00,96.00 L 512.00,640.00 l 352.00,0.00 L 864.00,96.00 z M 864.00,672.00L 128.00,672.00 L 128.00,832.00 l 736.00,0.00 L 864.00,672.00 z"  />
<glyph unicode="&#xe298;" d="M 96.00,864.00l0.00-800.00 l 800.00,0.00 L 896.00,864.00 L 96.00,864.00 z M 254.016,96.00L 128.00,96.00 L 128.00,640.00 l 126.016,0.00 L 254.016,96.00 z M 704.00,96.00L 288.00,96.00 L 288.00,640.00 l 416.00,0.00 L 704.00,96.00 z M 864.00,96.00l-128.00,0.00 L 736.00,640.00 l 128.00,0.00 L 864.00,96.00 
			z M 864.00,672.00L 128.00,672.00 L 128.00,832.00 l 736.00,0.00 L 864.00,672.00 z"  />
<glyph unicode="&#xe299;" d="M 889.056,738.048c 30.688-74.016, 16.064-162.368-44.128-222.56
	c-66.272-66.272-166.432-76.64-244.288-32.704l-56.288-61.472l 40.16-40.32l 24.00,24.00c 12.256,12.288, 32.16,12.288, 44.416,0.00l 194.624-196.608
	c 12.288-12.256, 12.288-32.16,0.00-44.416l-88.832-88.832c-12.256-12.288-32.16-12.288-44.416,0.00l-194.624,196.608c-12.288,12.256-12.288,32.16,0.00,44.416
	l 21.92,21.92l-38.272,38.368l-269.152-294.048c-24.544-24.544-64.32-24.544-88.832,0.00l-22.208,22.208c-24.544,24.544-24.544,64.32,0.00,88.832l 306.624,256.80
	l-203.648,204.192l-64.32,0.032L 87.36,774.144l 59.904,60.00l 122.40-74.912l 0.80-62.976l 206.016-206.816l 59.936,50.176
	c-58.592,79.872-52.48,192.384, 19.712,264.576c 59.904,59.904, 147.776,74.784, 221.60,44.672L 645.76,718.72l 111.072-111.072L 889.056,738.048z M 196.80,162.112
	c-12.256,12.256-32.128,12.256-44.416,0.00c-12.288-12.288-12.288-32.16,0.00-44.448c 12.288-12.256, 32.16-12.256, 44.416,0.00
	C 209.088,129.984, 209.088,149.856, 196.80,162.112z"  />
<glyph unicode="&#xe29a;" d="M 876.576,906.752l-116.672-70.976l-0.832-64.16l-257.536-256.896l-35.296,35.296c-12.512,12.512-32.768,12.512-45.28,0.00
	c-12.48-12.48-24.032-21.184-24.032-21.184l 13.12-13.12c-0.128,0.128-0.288,0.256-0.416,0.384c-63.616-63.584-104.64-81.984-104.64-81.984
	l-199.616-202.272c-12.512-12.544-12.512-32.704,0.00-45.248l 113.152-113.152c 12.48-12.512, 32.736-12.512, 45.248,0.00l 199.584,202.272
	c0.00,0.00, 18.368,40.96, 82.048,104.672l 11.328-11.328c0.00,0.00, 10.08,10.112, 22.624,22.624c 12.512,12.512, 12.512,32.736,0.00,45.248l-34.304,34.304l 256.576,257.824
	l 65.504,0.032l 70.496,116.608L 876.576,906.752z M 127.328,211.136l 203.136,203.136l 22.624-22.592l-203.136-203.168L 127.328,211.136z M 172.576,164.448
	l 203.136,203.20l 22.624-22.688L 195.20,141.824L 172.576,164.448z M 240.448,96.576l-22.624,22.624l 203.136,203.168l 22.656-22.624L 240.448,96.576z"  />
<glyph unicode="&#xe29b;" d="M 832.00,576.00L 512.00,576.00 l0.00-64.00 l-64.00,0.00 l0.00,96.00 l 64.00,0.00 l 320.00,0.00 L 832.00,800.00 l-32.00,0.00 l0.00-96.00 c0.00-17.664-14.336-32.00-32.00-32.00L 192.00,672.00 c-17.696,0.00-32.00,14.336-32.00,32.00L 160.00,832.00 
	c0.00,17.696, 14.304,32.00, 32.00,32.00l 576.00,0.00 c 17.664,0.00, 32.00-14.304, 32.00-32.00l 64.00,0.00 l0.00-32.00 l0.00-224.00 L 832.00,576.00 z M 736.00,832.00L 224.00,832.00 l0.00-32.00 l 512.00,0.00 L 736.00,832.00 z M 544.00,160.00c0.00-35.328-28.672-64.00-64.00-64.00s-64.00,28.672-64.00,64.00L 416.00,480.00 l 128.00,0.00 L 544.00,160.00 z
	 M 480.00,205.344c-17.696,0.00-32.00-14.336-32.00-32.00c0.00-17.696, 14.304-32.00, 32.00-32.00c 17.664,0.00, 32.00,14.304, 32.00,32.00C 512.00,191.008, 497.664,205.344, 480.00,205.344z"  />
<glyph unicode="&#xe29c;" d="M 393.984,671.52L 285.856,751.968l 108.128,77.60l 340.992,0.00 l0.00-158.016 L 393.984,671.552 z M 513.024,895.904l 93.696,0.00 
	L 606.72,864.00 l-93.696,0.00 L 513.024,895.904 z M 606.176,636.832l 35.328-563.328c0.00-22.88-18.496-41.376-41.376-41.376l-80.736,0.00 c-22.88,0.00-41.376,18.496-41.376,41.376
	l 33.44,563.328L 606.176,636.832 z M 560.864,76.736c 17.60,0.00, 31.872,14.24, 31.872,31.872s-14.272,31.872-31.872,31.872c-17.632,0.00-31.904-14.24-31.904-31.872
	S 543.264,76.736, 560.864,76.736z"  />
<glyph unicode="&#xe29d;" d="M 881.76,722.56c-43.36-52.704-162.24-198.24-256.672-313.92l-119.904,121.728
	c 108.448,96.512, 242.688,215.808, 291.20,258.528c 86.304,76.064, 161.984,121.312, 178.432,102.816C 985.12,881.472, 957.76,815.04, 881.76,722.56z M 604.128,383.04
	c-36.576-44.768-68.064-83.328-87.328-106.976l-141.952,138.336c 23.008,20.48, 61.312,54.56, 105.728,94.048L 604.128,383.04z M 495.648,250.144l0.00,0.384 
	c-82.40-316.16-448.576-134.40-448.576-134.40s 153.632-19.36, 153.632,123.936c0.00,138.912, 141.184,151.456, 149.856,152.096l 145.376-141.664
	C 495.936,250.464, 495.648,250.144, 495.648,250.144z"  />
<glyph unicode="&#xe29e;" d="M 212.00,414.592L 107.584,96.64l 139.552,140.064c-9.60,24.224-7.232,65.60, 12.384,85.184
			c 26.272,26.304, 69.536,25.696, 95.808-0.608c 26.304-26.304, 27.712-70.336, 1.44-96.64c-20.00-20.00-63.936-21.152-88.448-10.784l-138.336-138.72
			l 310.432,109.056l 113.056,203.648l-137.728,135.872L 212.00,414.592z M 735.392,884.832c0.00,0.00-192.352-192.32-222.016-222.016
			c-29.728-29.696-45.248-141.408-45.248-141.408l 86.24-86.272c0.00,0.00, 108.896,15.552, 140.00,46.688c 31.136,31.104, 222.016,222.016, 222.016,222.016
			L 735.392,884.832z"  />
<glyph unicode="&#xe29f;" d="M 801.344,394.496L 801.344,794.08 c0.00,39.488-32.00,71.552-71.552,71.552L 103.52,865.632 
			C 64.00,865.664, 31.968,833.60, 31.968,794.08l0.00-399.584 c0.00-39.52, 32.032-71.552, 71.552-71.552l 119.328,0.00 l0.00-164.384l 182.528,164.384l 324.384,0.00 
			C 769.344,322.944, 801.344,354.976, 801.344,394.496z M 920.48,708.544l-89.536,0.00 c0.00,0.00,0.00-319.104,0.00-349.088s-38.912-68.544-68.896-68.544
			s-350.24-1.76-350.24-1.76c0.00-39.52, 32.032-63.552, 71.552-63.552l 137.888,0.00 l 179.904-163.264l-0.224,163.264l 119.552,0.00 
			c 39.552,0.00, 71.552,24.032, 71.552,63.552L 992.032,638.976 C 992.032,678.464, 960.032,708.544, 920.48,708.544z"  />
<glyph unicode="&#xe2a0;" d="M 804.224,570.72c0.00,165.28-180.064,299.264-402.112,299.264C 180.032,869.984,0.00,736.00,0.00,570.72
			c0.00-99.328, 65.024-187.328, 165.12-241.76c-0.288-0.864-79.744-145.44-79.744-145.44s 242.624,92.544, 243.296,92.928
			c 23.808-3.296, 48.352-4.96, 73.44-4.96C 624.16,271.488, 804.224,405.472, 804.224,570.72z M 1100.32,477.216
			c0.00,165.248-169.504,298.048-352.992,299.232c 263.04-262.016-46.752-541.184-299.232-541.184c0.00,0.00, 28.064-57.28, 250.112-57.28
			c 25.056,0.00, 49.632,1.728, 73.44,4.992c 0.672-0.448, 243.328-92.928, 243.328-92.928s-79.488,144.544-79.744,145.408
			C 1035.296,289.888, 1100.32,377.92, 1100.32,477.216z" horiz-adv-x="1100"  />
<glyph unicode="&#xe2a1;" d="M 825.12,833.536L 198.88,833.536 c-39.52,0.00-71.552-32.064-71.552-71.552l0.00-399.616 
			c0.00-39.488, 32.032-71.552, 71.552-71.552l 119.328,0.00 l 0.032-164.384l 182.528,164.384l 324.384,0.00 c 39.552,0.00, 71.552,32.064, 71.552,71.552L 896.704,761.984 
			C 896.672,801.472, 864.672,833.536, 825.12,833.536z M 320.00,544.992c-17.696,0.00-32.00,14.336-32.00,32.00c0.00,17.696, 14.304,32.00, 32.00,32.00c 17.664,0.00, 32.00-14.304, 32.00-32.00
			C 352.00,559.328, 337.664,544.992, 320.00,544.992z M 448.00,546.336c-17.696,0.00-32.00,14.336-32.00,32.00c0.00,17.696, 14.304,32.00, 32.00,32.00c 17.664,0.00, 32.00-14.304, 32.00-32.00
			C 480.00,560.672, 465.664,546.336, 448.00,546.336z M 576.64,545.664c-17.664,0.00-32.00,14.304-32.00,32.00c0.00,17.664, 14.336,32.00, 32.00,32.00c 17.696,0.00, 32.00-14.336, 32.00-32.00
			C 608.64,560.00, 594.304,545.664, 576.64,545.664z M 704.00,544.992c-17.696,0.00-32.00,14.336-32.00,32.00c0.00,17.696, 14.304,32.00, 32.00,32.00c 17.664,0.00, 32.00-14.304, 32.00-32.00
			C 736.00,559.328, 721.664,544.992, 704.00,544.992z"  />
<glyph unicode="&#xe2a2;" d="M 512.00,823.232c-222.048,0.00-402.08-133.984-402.08-299.264c0.00-99.328, 65.024-187.328, 165.12-241.76
			c-0.288-0.864-79.744-145.44-79.744-145.44s 242.656,92.544, 243.328,92.928c 23.808-3.296, 48.352-4.96, 73.408-4.96
			c 222.048,0.00, 402.08,133.984, 402.08,299.232C 914.08,689.248, 734.048,823.232, 512.00,823.232z M 318.976,492.00c-17.664,0.00-32.00,14.336-32.00,32.00c0.00,17.696, 14.336,32.00, 32.00,32.00
			s 32.00-14.304, 32.00-32.00C 350.976,506.336, 336.672,492.00, 318.976,492.00z M 446.304,490.656c-17.664,0.00-32.00,14.336-32.00,32.00c0.00,17.696, 14.336,32.00, 32.00,32.00
			c 17.696,0.00, 32.00-14.304, 32.00-32.00C 478.304,504.992, 464.00,490.656, 446.304,490.656z M 575.616,490.656c-17.664,0.00-32.00,14.336-32.00,32.00c0.00,17.696, 14.336,32.00, 32.00,32.00
			c 17.696,0.00, 32.00-14.304, 32.00-32.00C 607.616,504.992, 593.312,490.656, 575.616,490.656z M 703.616,490.656c-17.664,0.00-32.00,14.336-32.00,32.00c0.00,17.696, 14.336,32.00, 32.00,32.00
			c 17.696,0.00, 32.00-14.304, 32.00-32.00C 735.616,504.992, 721.312,490.656, 703.616,490.656z"  />
<glyph unicode="&#xe2a3;" d="M 746.40,66.112l-268.16,186.88L 478.24,677.024 l 268.16,184.864c 35.36,0.00, 86.048-26.752, 86.048-59.744
	l0.00-676.256 C 832.48,92.864, 781.792,66.112, 746.40,66.112z M 448.416,259.264L 255.552,259.264 c-35.36,0.00-64.00,42.304-64.00,75.328l0.00,258.88 
	c0.00,32.96, 28.672,79.84, 64.00,79.84l 192.864,0.00 L 448.416,259.264 z"  />
<glyph unicode="&#xe2a4;" d="M 757.44,653.344l-31.68-64.608c 30.304-25.984, 49.504-64.544, 49.504-107.552
			c0.00-47.424-10.752-90.304-46.496-116.032l 30.624-54.624c 46.752,41.952, 76.192,102.816, 76.192,170.592C 835.552,549.76, 805.312,611.392, 757.44,653.344z
			 M 992.576,879.584l-44.576-54.08c 83.136-90.752, 135.744-211.68, 135.744-344.448c0.00-132.544-52.512-253.312-135.36-344.032l 44.512-55.20
			c 94.816,106.752, 152.256,244.736, 152.256,399.232C 1145.12,635.136, 1086.944,772.896, 992.576,879.584z M 874.304,769.088l-39.68-57.056
			c 58.944-59.20, 96.32-140.80, 96.32-230.944c0.00-91.968-38.88-175.008-99.936-234.528l 41.248-54.752c 73.76,75.328, 118.176,175.488, 118.176,289.248
			C 990.432,592.704, 945.696,694.112, 874.304,769.088z M0.00,607.776l0.00-258.88 c0.00-32.992, 28.672-75.328, 64.00-75.328l 192.864,0.00 L 256.864,687.616 L 64.00,687.616 
			C 28.672,687.616,0.00,640.736,0.00,607.776z M 554.912,876.192L 286.72,691.328l0.00-424.00 l 268.192-186.88c 35.328,0.00, 86.016,26.752, 86.016,59.744L 640.928,816.448 
			C 640.928,849.44, 590.24,876.192, 554.912,876.192z" horiz-adv-x="1144"  />
<glyph unicode="&#xe2a5;" d="M 918.88,482.048l 71.68-71.744c 4.672-4.64, 4.672-12.192,0.00-16.864l-25.312-25.312
	c-4.64-4.64-12.192-4.64-16.864,0.00l-71.68,71.744l-71.744-71.744c-4.672-4.64-12.192-4.64-16.864,0.00l-25.312,25.312
	c-4.64,4.672-4.64,12.256,0.00,16.864l 71.744,71.744l-71.744,71.744c-4.64,4.672-4.64,12.192,0.00,16.864l 25.312,25.312
	c 4.672,4.672, 12.224,4.672, 16.864,0.00l 71.744-71.712l 71.68,71.712c 4.672,4.672, 12.256,4.672, 16.864,0.00l 25.312-25.312
	c 4.672-4.672, 4.672-12.224,0.00-16.864L 918.88,482.048z M 584.80,82.112l-268.128,186.88L 316.672,693.024 l 268.128,184.864c 35.36,0.00, 86.048-26.752, 86.048-59.744
	l0.00-676.256 C 670.88,108.864, 620.192,82.112, 584.80,82.112z M 29.952,348.576l0.00,260.896 c0.00,32.96, 28.672,79.84, 64.00,79.84l 192.864,0.00 l0.00-416.032 L 93.952,273.28 
	C 58.592,273.248, 29.952,315.552, 29.952,348.576z"  />
<glyph unicode="&#xe2a6;" d="M 192.00,96.00l 96.00,0.00 l0.00,288.00 L 192.00,384.00 L 192.00,96.00 z M 576.00,416.00l-160.00,0.00 c-17.696,0.00-32.00-14.304-32.00-32.00l0.00-96.00 c0.00-17.664, 14.304-32.00, 32.00-32.00l 160.00,0.00 
			c 17.664,0.00, 32.00,14.336, 32.00,32.00l0.00,96.00 C 608.00,401.696, 593.664,416.00, 576.00,416.00z M 448.992,288.992l-32.00,0.00 l0.00,94.016 l 32.00,0.00 L 448.992,288.992 z M 511.008,288.992l-32.00,0.00 l0.00,94.016 l 32.00,0.00 L 511.008,288.992 z
			 M 576.992,288.992l-32.00,0.00 l0.00,94.016 l 32.00,0.00 L 576.992,288.992 z M 544.00,864.00l-96.00,0.00 l0.00-416.00 l 96.00,0.00 L 544.00,864.00 z M 800.00,864.00l-96.00,0.00 l0.00-160.00 l 96.00,0.00 L 800.00,864.00 z M 288.00,864.00L 192.00,864.00 l0.00-256.00 l 96.00,0.00 L 288.00,864.00 z M 704.00,96.00l 96.00,0.00 L 800.00,480.00 l-96.00,0.00 L 704.00,96.00 z M 448.00,96.00l 96.00,0.00 l0.00,128.00 l-96.00,0.00 L 448.00,96.00 z
			 M 320.00,576.00L 160.00,576.00 c-17.696,0.00-32.00-14.304-32.00-32.00l0.00-96.00 c0.00-17.664, 14.304-32.00, 32.00-32.00l 160.00,0.00 c 17.664,0.00, 32.00,14.336, 32.00,32.00l0.00,96.00 C 352.00,561.696, 337.664,576.00, 320.00,576.00z M 192.992,448.992l-32.00,0.00 
			l0.00,94.016 l 32.00,0.00 L 192.992,448.992 z M 256.992,448.992l-32.00,0.00 l0.00,94.016 l 32.00,0.00 L 256.992,448.992 z M 320.992,448.992l-32.00,0.00 l0.00,94.016 l 32.00,0.00 L 320.992,448.992 z M 832.00,672.00l-160.00,0.00 c-17.696,0.00-32.00-14.304-32.00-32.00l0.00-96.00 
			c0.00-17.664, 14.304-32.00, 32.00-32.00l 160.00,0.00 c 17.664,0.00, 32.00,14.336, 32.00,32.00l0.00,96.00 C 864.00,657.696, 849.664,672.00, 832.00,672.00z M 704.992,544.992l-32.00,0.00 l0.00,94.016 l 32.00,0.00 L 704.992,544.992 z M 767.008,544.992l-32.00,0.00 
			l0.00,94.016 l 32.00,0.00 L 767.008,544.992 z M 832.992,544.992l-32.00,0.00 l0.00,94.016 l 32.00,0.00 L 832.992,544.992 z"  />
<glyph unicode="&#xe2a7;" d="M 831.68,798.656l-0.128-311.52l-119.424,119.456L 569.60,464.032l-85.28,85.28l 142.528,142.528
	l-108.288,108.256L 831.68,798.656z M 367.808,262.24l 103.616-101.824L 160.32,159.872l 0.128,309.76l 122.08-122.08l 157.60,157.568l 85.28-85.28L 367.808,262.24z
	"  />
<glyph unicode="&#xe2a8;" d="M 877.024,739.776l-85.28,85.28l-157.60-157.60l-122.08,122.08l-0.128-309.76l 311.136,0.544
			l-103.616,101.856L 877.024,739.776z M 274.464,339.744l-142.496-142.496l 85.28-85.312l 142.496,142.56l 119.424-119.424l 0.128,311.488L 166.208,448.00L 274.464,339.744z
			"  />
<glyph unicode="&#xe2ac;" d="M 883.968,321.44l-30.656-162.304L 170.688,159.136 l-30.656,162.304L 63.712,321.44 l0.00-257.984 l 896.576,0.00 l0.00,257.984 L 883.968,321.44 z M 864.64,609.728l-224.704,0.00 l0.00,93.76 l-255.808,0.00 l0.00-93.76 
	L 161.568,609.728 l 349.248-365.184L 864.64,609.728z M 639.904,864.576l-255.808,0.00 l0.00-34.112 l 255.808,0.00 L 639.904,864.576 z M 639.904,800.864l-255.808,0.00 l0.00-65.216 l 255.808,0.00 L 639.904,800.864 z"  />
</font>
</defs>
</svg>
